<?xml version="1.0" encoding="UTF-8"?>
<svg id="Layer_2" data-name="Layer 2" xmlns="http://www.w3.org/2000/svg" viewBox="0 0 385.62 396.02">
  <defs>
    <style>
      .cls-1 {
        fill: #edb12a;
      }

      .cls-1, .cls-2, .cls-3, .cls-4, .cls-5, .cls-6, .cls-7, .cls-8, .cls-9, .cls-10, .cls-11, .cls-12, .cls-13, .cls-14, .cls-15 {
        stroke-width: 0px;
      }

      .cls-2 {
        fill: #fbd15b;
      }

      .cls-3 {
        fill: #203990;
      }

      .cls-4 {
        fill: #56548c;
      }

      .cls-5 {
        fill: #ffc8af;
      }

      .cls-6 {
        fill: #ec827d;
      }

      .cls-7 {
        fill: #55588e;
      }

      .cls-8 {
        fill: #ff8578;
      }

      .cls-9 {
        fill: #e3edff;
      }

      .cls-10 {
        fill: #878cf0;
      }

      .cls-11 {
        fill: #606bf1;
      }

      .cls-12 {
        fill: #4758d1;
      }

      .cls-13 {
        fill: #112b46;
      }

      .cls-14 {
        fill: #f7a584;
      }

      .cls-15 {
        fill: #b1b2f3;
      }
    </style>
  </defs>
  <g id="OBJECTS">
    <g>
      <g>
        <path class="cls-9" d="M138.52,23.09c-1.58,0-2.87,1.4-2.87,3.13v6.73c0,1.73,1.28,3.13,2.87,3.13h42.42c1.58,0,2.87-1.4,2.87-3.13v-6.73c0-1.73-1.29-3.27-2.87-3.13-3.6.32-42.42,0-42.42,0Z"/>
        <rect class="cls-9" x="161.59" y="6.42" width="48.15" height="12.98" rx="2.87" ry="2.87"/>
        <rect class="cls-9" x="187.23" y="23.53" width="48.15" height="12.98" rx="2.87" ry="2.87"/>
        <rect class="cls-9" x="135.66" y="57.29" width="48.15" height="12.98" rx="2.87" ry="2.87"/>
        <rect class="cls-9" x="161.59" y="40.63" width="48.15" height="12.98" rx="2.87" ry="2.87"/>
      </g>
      <path class="cls-2" d="M95.85,14.44v56.49h45.33V14.44h-45.33ZM132.24,63.82h-27.46V21.56h27.46v42.26Z"/>
      <path class="cls-11" d="M51.99,49.46v47.48h34.23v-47.48h-34.23ZM79.48,90.97h-20.74v-35.52h20.74v35.52Z"/>
      <path class="cls-10" d="M161.29,81.33h-65.64v47.33h65.64v-47.33ZM103.92,119.33v-28.67h49.11v28.67h-49.11Z"/>
      <g>
        <path class="cls-9" d="M58.5,154.28c-1.58,0-2.87,1.4-2.87,3.13v6.73c0,1.73,1.28,3.13,2.87,3.13h42.42c1.58,0,2.87-1.4,2.87-3.13v-6.73c0-1.73-1.28-3.13-2.87-3.13h-42.42Z"/>
        <rect class="cls-9" x="81.56" y="137.62" width="48.15" height="12.98" rx="2.87" ry="2.87"/>
        <rect class="cls-9" x="107.2" y="154.72" width="48.15" height="12.98" rx="2.87" ry="2.87"/>
        <path class="cls-9" d="M136.1,171.83c-1.58,0-2.87,1.4-2.87,3.13v6.73c0,1.73,1.28,3.13,2.87,3.13h42.42c1.58,0,2.87-1.4,2.87-3.13v-6.73c0-1.73-1.28-3.13-2.87-3.13h-42.42Z"/>
        <rect class="cls-9" x="81.56" y="171.83" width="48.15" height="12.98" rx="2.87" ry="2.87"/>
      </g>
      <g>
        <path class="cls-9" d="M223.93,169.33c-1.58,0-2.87,1.4-2.87,3.13v6.73c0,1.73,1.28,3.13,2.87,3.13h42.42c1.58,0,2.87-1.4,2.87-3.13v-6.73c0-1.73-1.28-3.16-2.87-3.13-2.42.05-42.42,0-42.42,0Z"/>
        <rect class="cls-9" x="246.99" y="152.66" width="48.15" height="12.98" rx="2.87" ry="2.87"/>
        <rect class="cls-9" x="272.63" y="169.77" width="48.15" height="12.98" rx="2.87" ry="2.87"/>
        <path class="cls-9" d="M301.53,186.87c-1.58,0-2.87,1.4-2.87,3.13v6.73c0,1.73,1.28,3.13,2.87,3.13h42.42c1.58,0,2.87-1.4,2.87-3.13v-6.73c0-1.73-1.28-3.13-2.87-3.13h-42.42Z"/>
        <rect class="cls-9" x="221.06" y="203.53" width="48.15" height="12.98" rx="2.87" ry="2.87"/>
        <rect class="cls-9" x="246.99" y="186.87" width="48.15" height="12.98" rx="2.87" ry="2.87"/>
        <rect class="cls-9" x="272.63" y="203.97" width="48.15" height="12.98" rx="2.87" ry="2.87"/>
      </g>
      <g>
        <rect class="cls-3" x="218.68" y="108.61" width="130.52" height="5.05"/>
        <rect class="cls-3" x="218.68" y="51.06" width="130.52" height="5.05"/>
        <path class="cls-2" d="M248.84,108.61h-9.31c-6.94-16.84,1.05-26.85.49-28.91-.56-2.07-3.26-2.44-2.7-5.25.2-.96,1.05-1.61,2.1-2.06h9.53c1.05.45,1.9,1.1,2.09,2.06.57,2.81-2.13,3.18-2.7,5.25-.56,2.06,7.43,12.06.49,28.91Z"/>
        <path class="cls-4" d="M278.37,66.95h-15.49c-5.42,15.2-5.42,29.09,0,41.66h15.49c5.42-12.58,5.42-26.46,0-41.66Z"/>
        <path class="cls-2" d="M334.57,26.08h-17.8s-4.69,5.56-4.41,13.15c.28,7.59,4.5,11.84,4.5,11.84h17.62s4.22-4.25,4.5-11.84c.28-7.59-4.41-13.15-4.41-13.15Z"/>
        <path class="cls-11" d="M308.82,93.16h-15.89s-3.1,4.51-1.69,9.52c1.13,4.02,4.18,5.94,4.18,5.94h10.89s3.05-1.92,4.18-5.94c1.41-5-1.69-9.52-1.69-9.52Z"/>
        <path class="cls-6" d="M338.97,97.89c-.28-7.22-8.78-17.17-6.47-19.32,2.53-2.34,1.31-4.22-.38-4.22h-8.25c-1.69,0-2.91,1.88-.37,4.22,2.31,2.14-6.19,12.1-6.47,19.32-.28,7.22,3.47,10.72,3.47,10.72h15s3.75-3.5,3.47-10.72Z"/>
        <path class="cls-11" d="M301.85,35.08c-.28-10.76-8.78-25.6-6.47-28.79,2.53-3.49,1.31-6.29-.38-6.29h-8.25c-1.69,0-2.91,2.8-.37,6.29,2.31,3.19-6.19,18.03-6.47,28.79-.28,10.76,3.47,15.98,3.47,15.98h15s3.75-5.22,3.47-15.98Z"/>
        <path class="cls-10" d="M268.54,40.31c-.41-7.24-12.74-17.23-9.39-19.38,3.67-2.35,1.9-4.23-.54-4.23h-11.97c-2.45,0-4.22,1.88-.54,4.23,3.36,2.15-8.98,12.14-9.39,19.38-.41,7.24,5.03,10.76,5.03,10.76h21.77s5.44-3.51,5.03-10.76Z"/>
      </g>
      <g>
        <ellipse class="cls-9" cx="191.63" cy="355.19" rx="191.63" ry="38.83"/>
        <ellipse class="cls-9" cx="306.29" cy="327.14" rx="79.33" ry="10.78"/>
        <ellipse class="cls-9" cx="129.81" cy="388.04" rx="106.3" ry="7.98"/>
        <g>
          <path class="cls-11" d="M302.59,212.26c1.11,7.2.46,14.56-1.21,21.62-.89,3.77-2.08,7.45-3.45,11.07-.76,2.01-2.71,6.67-4.17,2.05-3.82-12.03-2.79-24.5,1.96-36.22.58-1.43,1.45-3.03,2.98-3.25,1.13-.16,2.24.55,2.87,1.51.63.95.85,2.11,1.03,3.24Z"/>
          <path class="cls-11" d="M272.26,186.83c6.2,6.41,10.86,14.28,13.62,22.75,1.43,4.39,6.6,20.04,0,22.27-1.4.47-2.94.24-4.36-.15-9.4-2.61-17.51-13.11-21.97-21.32-3.22-5.93-5.01-12.86-3.76-19.5.72-3.82,2.96-7.88,6.77-8.63,3.66-.72,7.1,1.89,9.7,4.58Z"/>
          <path class="cls-11" d="M350.17,215.12c-4.69,5.01-10.08,9.45-16.45,11.94-6.2,2.43-13.66,2.88-19.79-.04-6-2.86-6.66-11.29-5.72-17.13,2.28-14.2,12.95-26.72,26.6-31.23,12.34-4.07,28.34,1.07,26.54,16.62-.79,6.8-4.9,12.75-9.42,17.89-.58.66-1.17,1.31-1.77,1.95Z"/>
          <path class="cls-4" d="M322.03,273.71c-2.1-2.21-1.96-4.02,0-5.48,1.4-1.05,1.99-2.58,1.72-4.2-.22-1.32-1.02-2.49-2.13-3.22-3.59-2.36-11.52-3.31-22.29-3.31s-18.7.95-22.29,3.31c-1.11.73-1.92,1.9-2.13,3.22-.27,1.61.32,3.15,1.72,4.2,1.96,1.46,2.1,3.27,0,5.48-3.1,3.27-16.07,46.34,5.36,61.34,8.93,3.21,17.35,2.86,17.35,2.86,0,0,8.42.36,17.35-2.86,21.43-15,8.46-58.08,5.36-61.34Z"/>
          <path class="cls-3" d="M319.29,262.93c0,1.43-5.61,2.65-13.44,3.11-.35.02-.71.03-1.06.05-.34.01-.67.03-1.02.04-.99.04-2.01.06-3.06.07-.45.01-.92.01-1.38.01-.26,0-.53,0-.79-.01-.57,0-1.13-.01-1.67-.01-.36-.01-.73-.02-1.07-.03-.17,0-.34-.01-.49-.01-1.58-.05-3.08-.14-4.51-.25-.37-.03-.72-.06-1.07-.09-6.17-.56-10.36-1.64-10.36-2.87,0-.15.06-.29.17-.43.8-1,4.33-1.86,9.33-2.37.35-.04.69-.07,1.05-.09,1.56-.15,3.23-.25,5-.32h.05c.35-.01.71-.02,1.06-.03.57-.01,1.16-.02,1.75-.03.52-.01,1.04-.01,1.56-.01.75,0,1.48,0,2.2.02,1.41.02,2.78.07,4.08.14.36.02.72.04,1.06.06,1.98.13,3.81.31,5.42.53,3.77.53,6.37,1.26,7.03,2.11.12.14.17.28.17.43Z"/>
          <g>
            <path class="cls-13" d="M338.76,189.27c-16.98,19.93-28.12,44.73-32.1,70.6-.33,2.05-.6,4.11-.82,6.17-.35.02-.71.03-1.06.05.22-2.11.51-4.2.82-6.28,1.46-9.52,3.88-18.89,7.2-27.93,5.78-15.75,14.27-30.51,25.16-43.29.19-.22.53-.24.75-.05.22.19.24.52.05.74Z"/>
            <path class="cls-13" d="M296.85,266.2c-.36-.01-.73-.02-1.07-.03-.33-2.14-.61-4.3-.83-6.44-.49-4.68-.74-9.4-.74-14.11,0-5.85.38-11.7,1.14-17.49.04-.29.31-.49.59-.45.29.03.49.31.45.59-.75,5.75-1.13,11.55-1.13,17.35,0,4.71.25,9.4.75,14.08.22,2.18.51,4.35.84,6.51Z"/>
            <path class="cls-13" d="M290.78,265.9c-.37-.03-.72-.06-1.07-.09-.25-1.89-.55-3.79-.86-5.67-3.24-19.17-9.69-37.79-19.05-54.83-.15-.25-.05-.57.2-.72.26-.14.58-.04.72.21,9.44,17.16,15.93,35.93,19.19,55.24.33,1.95.63,3.91.88,5.86Z"/>
          </g>
        </g>
        <g>
          <rect class="cls-4" x="147.89" y="167.2" width="87.49" height="37.67"/>
          <path class="cls-7" d="M235.38,232.12c-1.55,0-2.8-1.25-2.8-2.8v-66.17c0-3.14-2.56-5.7-5.7-5.7h-70.49c-3.14,0-5.7,2.56-5.7,5.7v66.12c0,1.55-1.25,2.8-2.8,2.8s-2.8-1.25-2.8-2.8v-66.12c0-6.23,5.07-11.3,11.3-11.3h70.49c6.23,0,11.3,5.07,11.3,11.3v66.17c0,1.55-1.25,2.8-2.8,2.8Z"/>
          <path class="cls-7" d="M141.85,329h0c-1.29,0-2.34-1.05-2.34-2.34v-88.25h4.68v88.25c0,1.29-1.05,2.34-2.34,2.34Z"/>
          <path class="cls-7" d="M241.99,329h0c-1.29,0-2.34-1.05-2.34-2.34v-88.25h4.68v88.25c0,1.29-1.05,2.34-2.34,2.34Z"/>
          <path class="cls-7" d="M147.89,319.85h0c-1.29,0-2.34-1.05-2.34-2.34v-88.25h4.68v88.25c0,1.29-1.05,2.34-2.34,2.34Z"/>
          <path class="cls-7" d="M235.38,326.23h0c-1.29,0-2.34-1.05-2.34-2.34v-88.25h4.68v88.25c0,1.29-1.05,2.34-2.34,2.34Z"/>
          <g>
            <path class="cls-1" d="M248.67,340.35c-6.06-5.68-26.2-9.85-50.14-9.85s-44.08,4.17-50.14,9.85h-1.87v3.57c0,7.41,23.28,13.42,52.01,13.42s52.01-6.01,52.01-13.42v-3.57h-1.87Z"/>
            <ellipse class="cls-2" cx="198.54" cy="340.35" rx="52.01" ry="13.42"/>
          </g>
          <path class="cls-1" d="M198.54,341.72h0c-1.41,0-2.56-1.15-2.56-2.56v-87.27h5.12v87.27c0,1.41-1.15,2.56-2.56,2.56Z"/>
          <path class="cls-13" d="M201.95,202.74s53.03,28.85,68.31,55.04c7.87,13.5-6.71,61.24-10.23,72.48-3.52,11.24-17.58,8.62-17.39-12.23.19-20.85.2-47.06.2-47.06,0,0-48.56-29.39-51.23-40.26s-11.89-35.49,10.34-27.96Z"/>
          <path class="cls-13" d="M165.49,204.03c-6.19,3.07-44.65,25.61-55.16,41.49-10.51,15.88,10.51,78.16,16.31,86.52,5.81,8.36,16.59-1.8,14.79-10.7-1.8-8.91-8.16-58.96-8.16-58.96,0,0,42.47-21.08,52.81-34.67,10.34-13.58-11.26-28.3-20.6-23.68Z"/>
          <path class="cls-12" d="M161.7,104.73c6.58-1.17,13.67-.29,19.61.06,15.1.87,32.64,6.04,45.41,14.29,6.59,4.25,12.21,10.58,13.9,18.24,1.81,8.17-1.02,16.66-4.79,24.13-3.77,7.47-8.54,14.51-11.06,22.49-2.4,7.62-2.62,15.76-4.69,23.48-1.67,6.25-4.95,12.65-10.53,16.25-6.49,4.18-13.48,3.61-20.95,3.72-12.05.17-34.9-8.91-36.18-15.8-.68-3.64,4.16-14.6,4.88-18.23,4.19-20.99-5.02-35.87-4.03-56.95.45-9.57-3.4-14.59,2.36-22.36,1.22-1.65,4.5-9.04,6.06-9.32Z"/>
          <path class="cls-11" d="M229.89,181.46c2.7,1.22,9.93-1.57,16.99,4.32,7.06,5.9,6.35,17.03.79,21.36-5.56,4.33-18.36-3.09-20.01-12.42-1.65-9.33,2.23-13.26,2.23-13.26Z"/>
          <path class="cls-11" d="M252,196.97s.14-23.84-2.46-40.89c-2.65-17.37-8.23-23.91-12.92-28.71-10.28-10.52-16.11.71-14.94,10.78,1.82,15.61,7.11,38.08,14.1,47.97,11.5,16.26,16.22,10.85,16.22,10.85Z"/>
          <g>
            <path class="cls-1" d="M248.67,242.74c-6.06-5.68-26.2-9.85-50.14-9.85s-44.08,4.17-50.14,9.85h-1.87v3.57c0,7.41,23.28,13.42,52.01,13.42s52.01-6.01,52.01-13.42v-3.57h-1.87Z"/>
            <ellipse class="cls-2" cx="198.54" cy="242.74" rx="52.01" ry="13.42"/>
            <path class="cls-1" d="M161.7,227.72v11.88c0,5.25,16.49,9.51,36.84,9.51s36.84-4.26,36.84-9.51v-11.88h-73.68Z"/>
            <ellipse class="cls-2" cx="198.54" cy="227.72" rx="36.84" ry="9.51"/>
            <g>
              <path class="cls-10" d="M214.88,188.7c-8.44-14.18-3.33-17.23-1.46-18.68,1.81-1.41-.44-6.97-14.88-6.97s-16.69,5.56-14.88,6.97c1.87,1.45,6.97,4.49-1.46,18.68-11.38,19.13-5.73,40.57,16.34,40.57s27.72-21.44,16.34-40.57Z"/>
              <path class="cls-4" d="M208.46,167.2c0,1.21-3.23,2.22-7.59,2.49-.74.05-1.53.07-2.33.07-.28,0-.55,0-.8-.01h-.01c-4.43-.1-8.03-.94-8.9-2.04-.12-.14-.19-.31-.19-.47-.02-.02-.02-.04-.02-.04,0-1.16,2.92-2.12,6.94-2.46.94-.07,1.95-.11,2.98-.11h.14c5.42.02,9.78,1.15,9.78,2.57Z"/>
            </g>
          </g>
          <path class="cls-5" d="M196.12,153.05l3.1,7.1s.09.23.27.62c.69,1.6,2.58,5.97,3.83,8.87-1.31.08-2.67.13-4.08.13-.48,0-.96,0-1.41-.02h-.02c-7.76-.17-12.48-1.97-14-3.9-3.76-3.21-20.27-13.07-15.26-18.26,4.13-4.25,11.92-3,17.13-2.72,8.08.43,7.9,2.25,16.06,3.14,10.92,1.18,4.33,5.2-5.61,5.04Z"/>
          <path class="cls-5" d="M233.76,182.82c-1.59-2.73-4.31-3.34-6.5-8.48-1.37-3.21-4.61,2.62-1.24,8.57,3.37,5.95-9.49,12.62-13.45,14.03-3.96,1.41-6.37,9.32-6.15,11.87.22,2.54,17.45-1.7,18.3-1.98-6.22,7.06-7.73,10.2-4.77,9.26,4.09-1.29,9.57-3.89,13.81-10.39,4.24-6.5,7.01-10.9,0-22.89Z"/>
          <path class="cls-5" d="M124.67,328.4c.22.47-17.24,25.24-17.24,28.53s9.39,5.37,16.73,2.07c7.34-3.29,9.49-14.71,14.39-19.28,4.91-4.57,6.6-7.8,2.88-18.39-6.55,9.17-16.76,7.07-16.76,7.07Z"/>
          <path class="cls-5" d="M260.03,330.26c-.22.47,17.19,25.16,17.19,28.45s-9.36,5.35-16.68,2.07c-7.32-3.28-9.46-14.67-14.35-19.23-4.89-4.56-6.58-7.78-2.87-18.33,6.53,9.14,16.71,7.05,16.71,7.05Z"/>
          <path class="cls-14" d="M191.63,94.51l-2.28,10.23-8.05.06c4.07,11.82,7.9,16.99,14.67,18.36,6.77,1.36,20.84-9.45,20.84-9.45,0,0-6.54-1.78-5.04-9.43,1.5-7.65,5.04-12.92,5.04-12.92l-25.18,3.16Z"/>
          <path class="cls-5" d="M186.31,86.59c-1.02,8.96-.21,18.67,5.7,23.82,11.18,9.75,24.54-2.2,31.22-11.34,3.87-5.29,7.48-11.05,8.44-17.53,1.16-7.86-2.04-16.23-8.14-21.32-5.53-4.61-17.11-4.27-23.61-.49-6.33,3.68-8.63,6.79-10.8,13.66-1.13,3.58-2.25,8.27-2.81,13.2Z"/>
          <path class="cls-3" d="M195.64,71.87c3.6,7.02,5.66,8.77,11.74,12.81,6.07,4.04,3.89-1.75,3.89-1.75,6.92,7.02,10,5.09,9.34,1.05,1.8,3.33,5.13,5.62,5.13,5.62-1.4,4.38-2.78,9.86-3.11,10.29-.33.44,6.15-6.28,9.28-11.71,3.13-5.43,3.48-11.22,3.48-11.22.86-11.45-8-24.16-24.92-20.09-6.59-4.95-14.01-.46-18.06,6.58-2.28,1.58-9.18,16.77-6.17,24,3.19-5.93,9.41-15.58,9.41-15.58Z"/>
          <path class="cls-11" d="M114.39,121.63s8.93-7.79,21.71-11.96c8-2.61,16.17-4.57,24.56-5.22,1.02-.08,2.12-.13,3,.4,1.15.7,1.55,2.15,1.75,3.48.49,3.26.36,6.66-.78,9.76-2.45,6.69-9.17,9.57-15.75,10.62-18.49,2.98-42.06,4.57-34.49-7.08Z"/>
          <path class="cls-12" d="M142.75,117.05c-13.38-1.53-24.9,5.86-21.72,13.51,7.27.86,18.24-.31,27.84-1.85,4.4-.71,8.85-2.24,12.06-5.17-6.68-3.35-13.17-5.92-18.19-6.49Z"/>
          <path class="cls-11" d="M184.71,144.81c-1.9-2.14-34.76-25.86-51.39-27.76-16.63-1.9-30.4,9.98-16.63,19,13.78,9.03,27.64,6.75,53.07,20.36,1.07.57,14.94-11.6,14.94-11.6Z"/>
        </g>
        <path class="cls-10" d="M114.5,277.15c-11.58-13.42-19.54-42.89-12.17-47.89,7.37-5,12.17-8.7,8.74-16.59h-.22c-1.95-5.77-16.7-10.26-34.6-10.26s-32.65,4.5-34.59,10.27h-.22c-3.43,7.88,1.37,11.58,8.74,16.58s-.59,34.47-12.17,47.89c-11.58,13.42-23.09,45.8-5.26,73.95,6.05,9.56,13.65,16.69,19.21,20.27,15,3.72,24.3,2.9,24.3,2.9,0,0,9.31.82,24.31-2.9,5.55-3.58,13.16-10.71,19.21-20.27,17.82-28.15,6.32-60.53-5.26-73.95ZM76.24,221.36c-14.24,0-25.79-3.3-25.79-7.37,0-.33.07-.65.22-.97,1.65-3.61,12.47-6.4,25.57-6.4s23.92,2.79,25.57,6.4c.15.32.22.64.22.97,0,4.07-11.55,7.37-25.79,7.37Z"/>
        <path class="cls-4" d="M102.03,213.99c0,4.07-11.55,7.37-25.79,7.37s-25.79-3.3-25.79-7.37c0-.33.07-.65.22-.97,1.65-3.61,12.47-6.4,25.57-6.4s23.92,2.79,25.57,6.4c.15.32.22.64.22.97Z"/>
        <g>
          <path class="cls-4" d="M166.56,333.94c-3.1-3.26-2.89-5.92,0-8.08,2.07-1.54,2.93-3.81,2.53-6.19-.32-1.94-1.51-3.66-3.15-4.74-5.29-3.48-16.98-4.88-32.85-4.88s-27.57,1.39-32.85,4.88c-1.64,1.08-2.83,2.81-3.15,4.74-.39,2.38.47,4.65,2.53,6.19,2.89,2.16,3.1,4.81,0,8.08-4.57,4.82-23.69,31.45,7.9,53.56,13.16,4.74,25.57,4.21,25.57,4.21,0,0,12.41.53,25.57-4.21,31.58-22.11,12.47-48.74,7.9-53.56Z"/>
          <path class="cls-13" d="M162.52,318.05c0,2.31-9.78,4.23-22.89,4.73-1.46.05-2.97.08-4.52.11-.67.01-1.35.01-2.03.01-.39,0-.78,0-1.16-.01-1.63,0-3.24-.03-4.79-.08-13.4-.45-23.49-2.41-23.49-4.75,0-.21.08-.43.25-.63,1.6-2.02,10.77-3.65,22.67-4.1,1.37-.05,2.78-.08,4.22-.09.76-.02,1.53-.02,2.29-.02,1.09,0,2.18.01,3.24.03,5.9.11,11.26.49,15.58,1.08,5.56.77,9.38,1.85,10.36,3.1.17.2.25.42.25.63Z"/>
        </g>
        <path class="cls-6" d="M131.93,322.89c-1.63,0-3.24-.03-4.79-.08.01-2.9-.13-6.2-.57-9.47-.26-1.92-.62-3.83-1.13-5.64,0,0-49.37-17.9-27.97-23.98-5.26-3.62-31.23-31.47-7.76-37.39-7.06-5.58-31.9-55.83,3.2-28.1,25.59,20.22,34.38,67.68,37.88,95.02.46,3.6.83,6.85,1.14,9.65Z"/>
        <path class="cls-6" d="M161.16,298.68c3.61,2.04-1.84,9.81-9.24,15.64-3.74,2.96-7.98,5.42-11.8,6.41-.18.68-.35,1.37-.47,2.04-1.46.05-2.97.08-4.52.11.32-2.96.71-6.21,1.21-9.64,1.83-12.44,5.05-27.14,10.7-38.18,11.98-23.43,18.92-27.53,21.99-19.23,3.07,8.31-4.71,22-4.71,22,5.76-3.04,2.95,13.06-3.16,20.85Z"/>
      </g>
      <rect class="cls-8" x="111.15" y="27.07" width="12.49" height="12.49"/>
      <rect class="cls-10" x="119.44" y="42.69" width="9.86" height="9.86"/>
      <rect class="cls-15" x="110.68" y="52.54" width="5.8" height="5.8"/>
      <circle class="cls-8" cx="119.11" cy="105" r="8.05" transform="translate(-39.36 114.98) rotate(-45)"/>
      <circle class="cls-2" cx="137.76" cy="99.91" r="4.51"/>
      <polygon class="cls-2" points="67.65 60.05 60.56 72.32 74.73 72.32 67.65 60.05"/>
      <polygon class="cls-11" points="72.15 87.05 67.65 79.26 76.64 79.26 72.15 87.05"/>
    </g>
  </g>
</svg>