<?xml version="1.0" encoding="UTF-8"?>
<svg id="Layer_2" data-name="Layer 2" xmlns="http://www.w3.org/2000/svg" xmlns:xlink="http://www.w3.org/1999/xlink" viewBox="0 0 716.92 423.93">
  <defs>
    <style>
      .cls-1, .cls-2, .cls-3, .cls-4, .cls-5, .cls-6, .cls-7, .cls-8, .cls-9, .cls-10, .cls-11, .cls-12, .cls-13, .cls-14, .cls-15, .cls-16, .cls-17, .cls-18, .cls-19, .cls-20, .cls-21, .cls-22, .cls-23, .cls-24, .cls-25, .cls-26, .cls-27, .cls-28, .cls-29, .cls-30, .cls-31 {
        stroke-width: 0px;
      }

      .cls-1, .cls-2, .cls-32 {
        fill: #1c9585;
      }

      .cls-2 {
        opacity: .1;
      }

      .cls-3 {
        fill: #95b3ef;
      }

      .cls-4 {
        fill: #2e3552;
      }

      .cls-5 {
        fill: #82b378;
      }

      .cls-6 {
        fill: #2c3a64;
      }

      .cls-7 {
        fill: #ed985f;
      }

      .cls-8 {
        fill: #b5453c;
      }

      .cls-9 {
        fill: #163560;
      }

      .cls-10 {
        fill: #efcbab;
      }

      .cls-11 {
        fill: #afcdfb;
      }

      .cls-12 {
        fill: #fff2e9;
      }

      .cls-13 {
        fill: #edc39d;
      }

      .cls-14 {
        fill: #aec3ff;
      }

      .cls-15 {
        fill: none;
      }

      .cls-16 {
        fill: #d9e5fc;
      }

      .cls-32 {
        stroke: #fff;
        stroke-miterlimit: 10;
        stroke-width: .25px;
      }

      .cls-17 {
        fill: #fff;
      }

      .cls-18 {
        fill: #a8d29f;
      }

      .cls-19 {
        fill: #ebf3fa;
      }

      .cls-20 {
        fill: #ccdbfd;
      }

      .cls-21 {
        fill: #f2ccaa;
      }

      .cls-33 {
        clip-path: url(#clippath);
      }

      .cls-22 {
        fill: #ed9f4a;
      }

      .cls-23 {
        fill: #ffb27d;
      }

      .cls-24 {
        fill: #bf8b60;
      }

      .cls-25 {
        fill: #f9ddbf;
      }

      .cls-26 {
        fill: #e07e34;
      }

      .cls-27 {
        fill: #2b478b;
      }

      .cls-28 {
        fill: #f99746;
      }

      .cls-29 {
        fill: #e8945b;
      }

      .cls-30 {
        fill: #1b3568;
      }

      .cls-31 {
        fill: #ed7d2b;
      }
    </style>
    <clipPath id="clippath">
      <polyline class="cls-15" points="408.52 234.4 276.12 234.4 276.12 220.29 293.47 220.29 304.12 220.29 314.76 220.29 335.58 220.29 335.56 220.33 350.44 220.33 350.41 220.29 371.8 220.29 371.78 220.33 390.56 220.33 390.54 220.29 408.52 220.29 408.52 234.4"/>
    </clipPath>
  </defs>
  <g id="DESIGNED_BY_FREEPIK" data-name="DESIGNED BY FREEPIK">
    <g>
      <path class="cls-2" d="M690.47,423.42l-305.92-.14h-30.53s-3.45-.01-3.45-.01l-303.12-.14S8.07,381.29,1.06,316.92h0c-.03-.27-.06-.52-.08-.78,0-.08-.02-.16-.02-.23-1.23-11.93-1.35-24.63.1-37.97v-.04c.06-.49.11-.97.17-1.46.01-.14.03-.28.05-.42,2.12-17.69,7.01-36.49,15.71-56.13.25-.56.5-1.12.75-1.68,1.39-3.08,2.88-6.17,4.47-9.29.26-.51.53-1.03.79-1.54.28-.53.56-1.06.84-1.6.45-.86.91-1.72,1.39-2.59,3.17-5.83,6.68-11.72,10.57-17.66,4.24-6.49,8.92-13.04,14.07-19.65.21-.27.41-.53.62-.79,60.69-76.85,171.3-70.53,236.85-64.21,20.97,2.02,37.33,4.05,45.96,3.34,35.71-2.9,36.26-69.74,139.19-97.65,80.72-21.88,163.49,11.19,171.92,94.99.14,1.35.25,2.72.35,4.1,1.31,18.57-.96,39.54-7.58,62.86h0c-.13.47-.27.94-.4,1.41h0s0,.02,0,.02v.02c-.21.69-.41,1.38-.62,2.07-1.2,3.99-2.23,7.83-3.11,11.52-1.28,5.34-2.24,10.38-2.91,15.14-.18,1.29-.34,2.56-.48,3.81-.99,8.9-.93,16.8-.03,23.9,3.11,24.66,16.32,39.76,30.73,53.92,4.4,4.32,8.9,8.54,13.27,12.93.54.54,1.07,1.08,1.6,1.62,5.47,5.59,10.67,11.48,15.09,18.16,14.65,22.14,20.82,52.97.14,110.37"/>
      <path class="cls-14" d="M591.36,422.64h.15c1.25-.02,2.22-1.05,2.1-2.23l-8.36-83.45-7.29.65,12,83.89c.09.66.69,1.14,1.39,1.13h0Z"/>
      <path class="cls-14" d="M548.36,422.64h.15c1.25-.02,2.22-1.05,2.1-2.23l-8.36-83.45-7.29.65,12,83.89c.09.66.69,1.14,1.39,1.13h0Z"/>
      <path class="cls-14" d="M467.62,422.64h-.15c-1.25-.02-2.22-1.05-2.1-2.23l8.35-83.45,7.29.65-12,83.89c-.09.66-.69,1.14-1.39,1.13h0Z"/>
      <path class="cls-14" d="M589,325.14l7.93-69.7c1.04-10.04-2.32-19.88-16.82-20.64l-25.5-1.55c-15.11-.62-21.93,11.95-23.85,21.64l-15.14,76.61,73.37-6.36h0Z"/>
      <path class="cls-14" d="M584.74,338.18h-113.17c-2.27,0-4.14-1.86-4.14-4.13v-5.09c0-2.27,1.86-4.13,4.14-4.13h117.3v9.22c0,2.27-1.86,4.13-4.13,4.13h0Z"/>
      <path class="cls-14" d="M585.66,338.18h-66.82c-1.77,0-3.21-1.45-3.21-3.21v-6.94c0-1.77,1.44-3.21,3.21-3.21h70.03v10.15c0,1.77-1.44,3.21-3.21,3.21h0Z"/>
      <path class="cls-21" d="M483.74,389.96s1.48,12.86,3.68,18.5c1.36,3.47.06,6.9-.91,8.75-1.78,3.36-2.23,5.21.62,5.29,6.48.17,8.09-1.35,10.01-7.24.88-2.69-.55-9.49,3.36-14.32,2.96-3.64.36-7.46-2.82-8.98-3.17-1.52-7.6-9.83-7.6-9.83l-6.35,7.83h0Z"/>
      <path class="cls-31" d="M541.43,290.8s-90.46,3.01-89.67,23.71c.3,7.95,9.71,29.52,11.26,33.61,10.35,27.13,20.71,45.6,20.71,45.6,0,0,9.82-2.75,10.73-9.55,0,0-6.69-37.32-11.36-45.42-3.35-5.81,3.6-10.9,3.6-10.9,0,0,33.38,2.07,43.73-.76,10.35-2.83,10.98-36.3,10.98-36.3h0Z"/>
      <path class="cls-25" d="M461.01,391s-2.22,10.43-4.88,13.12c-2.66,2.7-5.45,9.44-8.45,11.33-3.01,1.89-8.1,4.57-6.55,6.97,0,0,15.33.83,16.77-1.72,1.34-2.36,5.8-8.66,10.44-9.66,4.51-.97,5.09-5.73,3.24-8.74-1.84-3.01-.93-14.62-.93-14.62l-9.64,3.31h0Z"/>
      <path class="cls-28" d="M565.65,307.31c.03-.93-.07-2.35-.25-4.07-.24-2.58-.6-5.06-.97-7.22-1.27-8.33-3.07-17.76-3.07-17.76l-40.46-.09-2.5,8.72c-1.72,6.01-6.59,10.59-12.68,11.97-24.29,5.51-46.99,12.99-46.49,21.61,2.94,50.65-.28,78.01-.28,78.01,0,0,7.74,3.79,13.82.09,0,0,4.45-20.21,8.61-32.22,8.45-24.42,4.46-32.15,5.76-32.51,1.29-.36,54.93,4.54,74.55-11.69,3.31-2.73,4.14-8.71,3.96-14.85h0Z"/>
      <path class="cls-23" d="M478.32,222.94s-1.01-4.15-2.72-6.02c-1.1-1.2-2.05-2.24-2.83-3.1-1.53-1.67-1.85-3-1.35-5.21.77-3.44,1.81-8.57,3.43-8.1,2.34.67-.14,5.52,1.64,6.8,1.78,1.27,7.18,2.78,6.97,4.51-.21,1.74.71,8.2.71,8.2l-5.84,2.91h0Z"/>
      <path class="cls-25" d="M571.18,236.09c-.1,6.24-1.07,13.28-2.35,22.92-.71,5.37-2.7,12.25-3.46,14.04-1.89,4.49-4.02,5.21-4.02,5.21l-8.49,2.13c-8.99,2.25-18.43,1.99-27.28-.76l-4.52-1.26c-1.63-.46-2.88-1.78-3.23-3.44-1.4-6.55-4.5-23.5-1.83-34.18,3.36-13.47,8.48-22.82,8.48-22.82,0,0,15.81-3.68,32.57-1.45,5.43.72,10.55,1.58,12.98,8.16,1.15,3.13,1.2,8.6,1.15,11.44h0Z"/>
      <path class="cls-23" d="M549.59,215.37c-1.09-3.07-1.95-7.61-1.92-13.3l-.83.16-13.89,2.72s.31,4.37.31,8.48v.1c0,3.57,1.28,5.03,2.7,5.17,4.18.42,14.53-.79,13.62-3.34h0Z"/>
      <path class="cls-29" d="M532.95,204.95s.31,4.37.31,8.48c7.77-.2,11.89-7.28,13.58-11.2l-13.89,2.72h0Z"/>
      <path class="cls-9" d="M547.62,172.3s-16.72-4.67-21.17-.79c-4.45,3.87-1.07,18.49-1.07,18.49l22.04,12.37s.29-1.14,3.36-1.69c3.07-.55,9.32-4.45,8.16-8.73-1.16-4.28-11.32-19.65-11.32-19.65h0Z"/>
      <path class="cls-23" d="M529.4,206.94s18.19,2.61,19.64-8.75c1.45-11.36,4.78-18.67-6.78-20.81-11.55-2.15-14.37,1.9-15.78,5.57-1.41,3.67-1.79,23.02,2.91,23.99h0Z"/>
      <path class="cls-9" d="M534,176.05s3.31,13.96,10.72,16.9c7.41,2.94,10.99,1.31,10.99,1.31,0,0-5.28-5.41-5.47-13.71,0,0-11.67-10.35-16.24-4.49h0Z"/>
      <path class="cls-9" d="M535.1,177.29s-3.88.92-5.74,3.42c-1.83,2.45-3.54,5.79-3.79,10.11,0,0-2.61-9.53,2.26-14.12,5.17-4.86,7.27.58,7.27.58h0Z"/>
      <path class="cls-19" d="M534.26,200.4s-1.47,1.5-3.97,1.06c-2.02-.35-2.58-2.21-2.58-2.21,0,0,3.84-.42,6.54,1.15h0Z"/>
      <path class="cls-17" d="M533.82,200.65s-.49,1.3-3.79.67c0,0-2.77-.53-2.5-1.99,0,0,2.84-.7,6.29,1.32h0Z"/>
      <path class="cls-31" d="M560.44,185.53s6.64-15.97-4.62-21.28c-11.26-5.32-19.01-2.35-24.42,5.52l29.04,15.76h0Z"/>
      <path class="cls-28" d="M560.06,182.56c-3.58-3.02-8.07-6.06-13.18-8.75-4.11-2.16-8.17-3.89-11.95-5.13-9.68-3.18-17.52-3.2-19.48.53-1.92,3.63,1.42,9.76,9.08,15.81-.22-1.8-.3-3.17-.38-5.3.04-1.54-.06-2.64.49-3.69.64-1.21,2.26-1.81,4.52-1.82,3.87-.03,9.62,1.64,15.51,4.74,7.09,3.75,12.33,8.5,13.66,12.02h0c.01.05.03.09.04.14.04.12.08.23.11.35.03.11.05.22.08.33.04.17.06.35.07.53.03.27.02.53-.02.77,0,.04,0,.08-.02.11-.38,2.58-3.16,5.14-4.68,6.27,7.21,1.61,12.88.75,14.48-2.28,1.79-3.38-1.67-8.99-8.33-14.63h0Z"/>
      <path class="cls-23" d="M524.48,217.94s-5.98.52-12.54,9.77c-8.7,12.27-25.58,23.42-24.08,27.51.95,2.6,2.53,4.98,6.07,4.74,7.46-.52,19.43-7.54,23.25-14.68,5.64-10.53,7.29-27.35,7.29-27.35h0Z"/>
      <path class="cls-23" d="M478.32,222.94l9.55,32.28s14.81-5.85,10.93-10.54c-8.6-10.38-14.94-27.02-14.94-27.02,0,0,1.18.82-5.53,5.27h0Z"/>
      <path class="cls-25" d="M528.26,217.22s-6.21.45-10.67,3.03c-4.47,2.58-13.47,15.27-13.47,15.27,0,0,4,11.24,12.07,13.68,8.07,2.44,12.07-31.98,12.07-31.98h0Z"/>
      <path class="cls-23" d="M514.17,218.03s1.35-5.32,1.91-6.56c0,0-.89-.37-1.59.23-.7.59-1.52,1.47-1.49,2.97.03,1.51,1.18,3.36,1.18,3.36h0Z"/>
      <path class="cls-28" d="M490.3,205.24s3.4,2.06,5.28.89c1.87-1.17.58-1.63.58-1.63,0,0-.81-1.82-4.4-2.26,0,0-.4.49-.89,1.42-.49.93-.57,1.59-.57,1.59h0Z"/>
      <path class="cls-9" d="M520.47,213.74l-.32.89c-.17.47-.68.7-1.15.53l-23.41-8.99c-.45-.17-.67-.67-.51-1.12.16-.45.66-.69,1.12-.54l23.72,8.11c.46.16.71.67.55,1.13h0Z"/>
      <path class="cls-23" d="M514.29,220.24s-.28-11-3.19-12.25c-2.91-1.25-7.24-2.01-7.79-1.06s2.28,5.18,2.45,6.3c.17,1.12-.57,2.9.06,4.35.64,1.45,3.58,5.68,3.58,5.68l4.88-3.02h0Z"/>
      <path class="cls-23" d="M566.96,228.76c-2.55-5.23-9.67-6.03-13.36-1.54-2.16,2.63-5.04,6.33-8.37,11.12-1.57,2.26-7.61,8.39-9.68,6.57-8.91-7.85-21.26-24.67-21.26-24.67,0,0-1.6.53-3.11,1.33-1.14.61-1.77,1.69-1.77,1.69,1.7,5.88,14.2,31.93,23.21,37.16,9.57,6.5,31.11-14.92,34.04-18.31,1.82-2.1,2.72-8.39.3-13.36h0Z"/>
      <path class="cls-25" d="M554.1,221.42c-.47.16-9.24,13.16-9.24,13.16,0,0,7.05,14.94,20.36,15.23,0,0,9.7-19.77,3.21-24.31-6.5-4.55-14.33-4.07-14.33-4.07h0Z"/>
      <path class="cls-19" d="M490.73,185.31c.16.66-4.52,2.35-10.44,3.77-5.93,1.42-10.86,2.04-11.02,1.38s4.52-2.35,10.44-3.77c5.93-1.42,10.86-2.04,11.02-1.38h0Z"/>
      <path class="cls-17" d="M495.8,193.16c.08.28.14.55.19.83.13.56.2,1.1.25,1.62.03.31.05.61.07.9.17,6.61-4.69,10-4.69,10l1.62,1.71c.49.51.33,1.35-.31,1.66-1.4.66-3.91,1.71-7.23,2.51-3.69.89-6.15,1.09-7.55,1.11-.74.01-1.27-.7-1.06-1.4l.66-2.25s-6.77-.94-9.28-8.2c-.09-.24-.16-.48-.23-.74-.14-.48-.27-.98-.36-1.51-.02-.1-.04-.2-.06-.31-.03-.15-.05-.3-.07-.45-.46-3.26.31-6,1.5-8.19h0c2.47.1,5.46-.16,8.65-.82.41-.08.84-.17,1.26-.28.09-.01.18-.04.27-.06l.63-.15c4.01-1.02,7.51-2.49,9.94-4.03.2.13.41.28.62.42,2.05,1.48,3.95,3.66,4.95,6.88.07.25.15.5.21.74h0Z"/>
      <path class="cls-28" d="M495.8,193.16c.08.28.14.55.19.83-.58.41-1.24.73-1.72.47-.16-.09-.32-.21-.47-.33-.43-.34-.85-.67-2.03-.34-.87.24-1.18.93-1.49,1.6-.25.55-.48,1.07-1.02,1.23-.59.18-1.09-.08-1.59-.32-.49-.25-1.01-.5-1.65-.4-.73.1-1.19.58-1.68,1.09-.38.39-.77.8-1.29,1.04-1.2.55-2.38.47-4.05-.31-.89-.41-1.3-.02-2.06.85-.22.26-.46.52-.72.77-.48.45-1.08.8-1.73.96-.96.23-2.03.06-3-.79-.77-.68-2.45-.42-3.6-.11-.02-.1-.04-.2-.06-.31-.03-.15-.05-.3-.07-.45,1.2-.32,3.16-.64,4.23.29,1.36,1.19,2.84.67,3.7-.14.25-.23.47-.48.68-.71.74-.84,1.51-1.71,2.95-1.05,1.48.68,2.43.77,3.41.31.4-.18.73-.52,1.08-.88.53-.55,1.13-1.18,2.11-1.32.89-.13,1.57.2,2.12.47.45.23.74.37,1.02.28.21-.07.38-.42.56-.83.32-.7.76-1.67,1.97-2.01,1.57-.43,2.22.09,2.71.48.12.1.23.19.36.26.13.07.62-.19,1.17-.63h0Z"/>
      <path class="cls-28" d="M496.24,195.61c.03.31.05.61.07.9-.51.33-1.06.53-1.48.3-.2-.1-.37-.26-.53-.41-.47-.43-.88-.79-1.89-.28-.28.14-.64.69-.97,1.17-.49.73-.99,1.49-1.62,1.68-.58.18-1.09-.08-1.59-.33-.49-.25-1.01-.5-1.65-.4-.74.11-1.2.58-1.68,1.09-.38.39-.77.8-1.3,1.04-.39.19-.78.32-1.16.41-1.08.26-2.13.15-3.17-.32-1.03-.48-1.31-.16-1.86.5-.11.13-.22.26-.34.4-1.22,1.31-3.11,1.34-4.22.6-1.56-1.04-3.35-.69-4.38-.33-.09-.24-.16-.48-.23-.74,1.18-.41,3.2-.79,5.04.42.84.57,2.29.53,3.23-.49.11-.12.22-.24.31-.36.56-.68,1.2-1.43,2.76-.71,1.2.56,2.38.53,3.69-.09.4-.18.73-.52,1.08-.88.53-.55,1.12-1.17,2.11-1.32.89-.13,1.57.2,2.12.47.45.23.74.36,1.02.28.36-.11.83-.81,1.21-1.37.41-.63.81-1.21,1.26-1.43,1.48-.75,2.25-.06,2.75.4.14.12.27.24.39.31.12.07.55-.15,1.04-.53h0Z"/>
      <path class="cls-28" d="M473.4,197.15c-.08-.32.12-.63.43-.71.32-.08.63.12.71.43.08.32-.12.63-.43.71-.31.08-.63-.12-.71-.43h0Z"/>
      <path class="cls-28" d="M477.95,202.03c-.08-.32.12-.63.43-.71.31-.08.63.12.71.43.07.32-.12.63-.43.71-.32.08-.63-.12-.71-.43h0Z"/>
      <path class="cls-28" d="M486,200.09c-.07-.32.12-.63.43-.71.32-.08.63.12.71.43.08.32-.12.63-.43.71-.31.08-.63-.12-.71-.43h0Z"/>
      <path class="cls-28" d="M492.54,197.92c-.07-.32.12-.63.43-.71.32-.08.63.12.71.43.08.32-.12.63-.43.71-.31.08-.63-.12-.71-.43h0Z"/>
      <path class="cls-28" d="M471.65,202.94c-.08-.32.12-.63.43-.71.31-.08.63.12.71.43.07.32-.12.63-.43.71-.32.08-.63-.12-.71-.43h0Z"/>
      <path class="cls-28" d="M481.09,195.7c-.08-.32.12-.63.43-.71.31-.08.63.12.71.43.07.32-.12.63-.44.71-.31.08-.63-.12-.71-.43h0Z"/>
      <path class="cls-28" d="M487.87,194.07c-.07-.32.12-.63.43-.71.32-.08.63.12.71.43.07.32-.12.63-.44.71-.31.08-.63-.12-.71-.43h0Z"/>
      <path class="cls-28" d="M493.4,191.53c-.08-.32.12-.63.43-.71.32-.08.63.12.71.43.08.32-.12.63-.43.71-.31.08-.63-.12-.71-.43h0Z"/>
      <path class="cls-28" d="M468.96,197.4c-.08-.32.12-.63.43-.71.31-.08.63.12.71.43.08.32-.12.63-.43.71-.31.08-.63-.12-.71-.43h0Z"/>
      <path class="cls-19" d="M477.76,209.84s6.48.54,13.87-3.33c0,0-1.97,2.62-7.01,3.84-4.4,1.07-6.85-.51-6.85-.51h0Z"/>
      <path class="cls-23" d="M483.85,217.67s.76-1.77,1.45-2.3c.69-.53.04-4.52,0-5.8-.04-1.27-.66-.49-1.45,0-.79.49-.44,3.65-1.54,4.46-1.1.81-2.72,2.77-1.85,3.64.87.87,3.39,0,3.39,0h0Z"/>
      <path class="cls-9" d="M405.89,421.49h-.11c-.68,0-1.23-.9-1.21-2l1.84-128.67,5.41-1.02-4.61,129.71c-.04,1.12-.61,1.99-1.31,1.99h0Z"/>
      <path class="cls-9" d="M395.04,293.18h228.75c1.64,0,2.98-1.33,2.98-2.98v-1.81c0-1.64-1.33-2.98-2.98-2.98h-228.75c-1.64,0-2.98,1.33-2.98,2.98v1.81c0,1.64,1.33,2.98,2.98,2.98h0Z"/>
      <path class="cls-9" d="M608.39,421.49h.11c.68,0,1.23-.9,1.21-2l-1.84-128.67-5.41-1.02,4.61,129.71c.04,1.12.61,1.99,1.31,1.99h0Z"/>
      <path class="cls-25" d="M458.56,263.65c-1.16-11.74-8.81-13.31-11.13-16.32-2.32-3.02,2.78-11.83,2.78-11.83h-16.23s5.1,8.81,2.78,11.83c-2.32,3.02-9.97,4.58-11.13,16.32-1.16,11.74,8.58,18.7,8.58,18.7l-2.76,3.24h21.29l-2.76-3.24s9.74-6.96,8.58-18.7h0Z"/>
      <path class="cls-13" d="M424.84,255.65c-.03,1.1-.21,2.89-.47,5.05-.28,2.28-.65,4.96-1.04,7.65-.44,2.97-.9,5.94-1.28,8.38-.53,3.33-.92,5.68-.92,5.68l2.01,2.86h-11.6l2.01-2.86s-.39-2.34-.91-5.66c-.38-2.46-.84-5.46-1.29-8.45-.48-3.31-.93-6.62-1.22-9.16-.17-1.46-.27-2.67-.3-3.49-.15-5.25,5.57-7.11,5.57-9.12,0-.24-.03-.54-.07-.89-.34-2.58-1.78-7.61-1.78-7.61h7.58s-1.41,4.93-1.77,7.53c-.06.39-.08.71-.08.97,0,2.01,5.73,3.87,5.57,9.12h0Z"/>
      <path class="cls-17" d="M473.79,269.13c0,.65-.07,1.27-.16,1.86-.04.35-.1.68-.17,1.02-1.56,7.37-7.85,9.83-7.85,9.83l1.98,3.43h-20.2l1.98-3.43s-7.25-2.84-8.1-11.55c-.03-.29-.05-.57-.06-.88-.03-.56-.03-1.15,0-1.77,0-.11,0-.24.02-.36,0-.17.02-.35.04-.51.28-2.89,1.29-5.24,2.62-7.13h27.22c1.4,2.01,2.45,4.52,2.65,7.64.02.3.04.59.04.88,0,.33,0,.65-.01.97h0Z"/>
      <path class="cls-28" d="M473.8,268.16c0,.33,0,.65,0,.97-.75.3-1.56.48-2.03.06-.16-.14-.3-.31-.43-.5-.38-.49-.77-.96-2.15-.91-1.03.03-1.56.71-2.07,1.37-.42.54-.82,1.05-1.46,1.1-.7.04-1.19-.37-1.68-.78-.48-.41-.98-.83-1.72-.89-.83-.08-1.48.33-2.15.76-.52.33-1.06.68-1.71.81-1.48.3-2.75-.11-4.41-1.42-.88-.7-1.43-.36-2.51.39-.31.23-.64.45-1,.66-.65.37-1.41.6-2.17.6-1.12,0-2.26-.48-3.11-1.68-.67-.95-2.6-1.12-3.95-1.08,0-.11,0-.24.02-.36,0-.17.02-.35.04-.51,1.42-.03,3.68.13,4.61,1.44,1.19,1.68,2.97,1.5,4.14.83.34-.19.64-.41.94-.61,1.04-.74,2.12-1.5,3.55-.37,1.45,1.15,2.48,1.5,3.69,1.25.5-.1.95-.38,1.43-.69.73-.47,1.56-1.01,2.69-.91,1.02.09,1.69.64,2.22,1.09.44.37.72.61,1.05.58.25-.02.53-.36.84-.76.54-.7,1.29-1.65,2.72-1.7,1.85-.06,2.43.69,2.87,1.25.1.14.21.27.33.38.12.11.74-.04,1.46-.39h0Z"/>
      <path class="cls-28" d="M473.63,270.99c-.04.35-.1.68-.16,1.02-.65.23-1.31.3-1.71-.06-.19-.16-.34-.38-.48-.6-.41-.6-.76-1.11-2.02-.82-.34.08-.9.59-1.38,1.04-.74.68-1.5,1.38-2.24,1.44-.69.04-1.18-.37-1.67-.78-.48-.41-.98-.83-1.72-.89-.85-.08-1.48.33-2.15.76-.52.33-1.06.68-1.71.81-.49.1-.95.15-1.4.15-1.27,0-2.4-.4-3.42-1.2-1.02-.81-1.41-.52-2.19.06-.16.11-.31.23-.49.35-1.7,1.13-3.8.65-4.83-.45-1.45-1.56-3.53-1.65-4.76-1.53-.03-.29-.05-.58-.06-.88,1.41-.14,3.75-.03,5.47,1.81.78.85,2.39,1.2,3.71.32.16-.1.3-.21.44-.31.8-.6,1.71-1.27,3.25-.05,1.18.94,2.49,1.22,4.11.89.5-.1.95-.38,1.43-.69.73-.47,1.55-1,2.69-.91,1.02.09,1.69.64,2.22,1.09.44.37.72.6,1.05.58.43-.02,1.14-.68,1.7-1.2.62-.58,1.22-1.12,1.77-1.25,1.84-.43,2.5.53,2.94,1.17.12.17.23.34.35.44.11.1.65-.02,1.29-.31h0Z"/>
      <path class="cls-28" d="M447.92,266.63c0-.37.3-.67.67-.67s.67.3.67.67-.3.67-.67.67-.67-.3-.67-.67h0Z"/>
      <path class="cls-28" d="M451.66,273.24c0-.37.3-.67.67-.67s.67.3.67.67-.3.67-.67.67-.67-.3-.67-.67h0Z"/>
      <path class="cls-28" d="M461.1,273.24c0-.37.3-.67.67-.67s.67.3.67.67-.3.67-.67.67-.67-.3-.67-.67h0Z"/>
      <path class="cls-28" d="M468.92,272.57c0-.37.3-.67.67-.67s.67.3.67.67-.3.67-.67.67-.67-.3-.67-.67h0Z"/>
      <path class="cls-28" d="M444.45,272.57c0-.37.3-.67.67-.67s.67.3.67.67-.3.67-.67.67-.67-.3-.67-.67h0Z"/>
      <path class="cls-28" d="M456.83,267.06c0-.37.3-.67.67-.67s.67.3.67.67-.3.67-.67.67-.67-.3-.67-.67h0Z"/>
      <path class="cls-28" d="M464.77,267.06c0-.37.3-.67.67-.67s.67.3.67.67-.3.67-.67.67-.67-.3-.67-.67h0Z"/>
      <path class="cls-28" d="M471.56,265.72c0-.37.3-.67.67-.67s.67.3.67.67-.3.67-.67.67-.67-.3-.67-.67h0Z"/>
      <path class="cls-28" d="M442.94,265.72c0-.37.3-.67.67-.67s.67.3.67.67-.3.67-.67.67-.67-.3-.67-.67h0Z"/>
      <path class="cls-19" d="M449.38,281.84s7.04,2.32,16.24,0c0,0-2.88,2.38-8.79,2.39-5.16,0-7.45-2.39-7.45-2.39h0Z"/>
      <path class="cls-1" d="M35.5,342.19c-4.07,0-8.83-.77-10.57-4.09-3.27-6.22-.82-10.4-2.91-14.21-1.46-2.66-3.22-4.44-4.08-4.44-.37,0-.57.33-.51,1.07.21,2.45,4.87,8.16,4.29,12.71-.38,3-.51,5.49-1.88,5.49-.71,0-1.76-.67-3.35-2.27-4.67-4.71-10.34-14.92-7.43-19.61-.51-.26-1.45-.35-2.58-.35-1.62,0-3.62.2-5.28.41-.04,0-.08.01-.12.02h0c-.03-.27-.06-.52-.08-.78,0-.08-.02-.16-.02-.23,6.66-.8,10.86-3.66,11-3.75h0s-.97-14.28,10.16-14.59c0,0,7.43.72,11.41,4.08,0,0-13.31,5.51-12.13,7.92.13.27.41.39.81.39,3.15,0,13.58-7.6,13.58-7.6,0,0,12.49,7.56,14.9,12.15,0,0-16.03.73-14.3,2.77s18.45,2.07,18.45,2.07c0,0,9.47,9.93,3.96,16.11-3.42,3.84-6.74,5.01-9.13,5.01-1.46,0-2.57-.44-3.15-.97-1.43-1.33-7.68-11.13-9.36-11.13-.09,0-.17.03-.23.09-1.21,1.19,1.29,9.9,5.19,13.12,0,0-3.04.6-6.62.6M9.41,316.26c-.22.28-.32.5-.35.56h0c.13-.19.24-.38.35-.56"/>
      <path class="cls-1" d="M40.25,299.56c-1.13,0-2.82-.51-5.28-1.67-9.39-4.4-23.23-16.34-21.48-24.78-.1-.01-.2-.02-.32-.02-2.34,0-7.42,2.38-11.2,4.33-.26.16-.56.33-.92.52v-.04c.06-.49.11-.97.17-1.46.01-.14.03-.28.05-.42,9.23-4.75,13.8-11.14,13.95-11.34h0s-9.12-20.46,7.06-26.91c0,0,5.21-1.36,10.95-1.36,2.72,0,5.55.31,8.02,1.2,0,0-16.57,15.26-13.54,18.17.19.19.43.28.71.28,4.08,0,16.53-18.61,16.53-18.61,0,0,22.41,4.36,28.42,9.82,0,0-23.15,9.7-19.5,11.78.38.22.98.31,1.76.31,6.72,0,26.46-7.22,26.46-7.22,0,0,19.25,9.48,14.49,21.53-3.94,9.98-10.19,12.88-13.91,12.88-.77,0-1.44-.13-1.95-.34-2.71-1.13-16.16-11.35-19.4-11.35-.32,0-.54.1-.64.31-1.14,2.4,7.23,13.84,14.68,16.47,0,0-10.89,6.61-19.71,6.61-2.82,0-5.44-.68-7.42-2.47-8.15-7.37-6.81-14.83-11.93-19.29-3.18-2.77-6.33-4.4-7.88-4.4-.94,0-1.29.61-.67,1.93,1.62,3.48,11.55,9.35,13.15,16.35,1.18,5.16,2.49,9.21-.67,9.21M13.7,272.06c-.2.62-.21,1.01-.21,1.04.07-.37.15-.71.21-1.04"/>
      <path class="cls-1" d="M29.61,222.21c-4.66,0-9.34-.68-12.62-2.32.25-.56.5-1.12.75-1.68,1.39-3.08,2.88-6.17,4.47-9.29.16.16.4.32.73.47,2.94,1.37,12.53-.22,17.36,3.42,4.83,3.65,8.7,5.84.25,8.1-3.04.81-6.99,1.3-10.95,1.3M48.25,212.33c-.09,0-.18,0-.26,0-9.26-.34-12.44-5.88-18.17-5.98-.17,0-.34,0-.5,0-2.73,0-5.04.43-6.3,1.03.28-.53.56-1.06.84-1.6.45-.86.91-1.72,1.39-2.59,3.17-5.83,6.68-11.72,10.57-17.66,4.24-6.49,8.92-13.04,14.07-19.65.21-.27.41-.53.62-.79,1.09-.11,2.31-.19,3.6-.19,5.14,0,11.21,1.29,13.1,6.93,3.47,10.36-.83,15.89-3.43,16.71-2.59.81-19.49,1.58-18.93,3.74.42,1.59,6.78,3.55,12.61,3.55,2.11,0,4.15-.26,5.81-.88,0,0-5.89,17.4-15.01,17.4"/>
      <path class="cls-11" d="M608.64,67.9c0,19.36-15.69,35.06-35.06,35.06s-35.06-15.7-35.06-35.06h70.11Z"/>
      <path class="cls-3" d="M609.38,68.7h-71.59c-.56,0-1.01-.45-1.01-1.01s.45-1.01,1.01-1.01h71.59c.56,0,1.01.45,1.01,1.01s-.45,1.01-1.01,1.01h0Z"/>
      <path class="cls-14" d="M556.02,3.9c-5.17,19.63-10.34,39.01-13.84,51.45h0v.06c-.05.1-.1.16-.1.26v.02c-.58,1.97-1.1,3.74-1.57,5.35h0c-.26.99-.57,1.88-.78,2.66v.02c-.37,1.19-.68,2.11-.94,2.94h0c-.31.93-.56,1.61-.77,2.02v.02c-.06.05-.06.1-.11.16l-.36-.21h-.01s-.2-.16-.2-.16c.16-.26.36-.89.73-1.83h0c.26-.85.58-1.88.94-3.08v-.05c.21-.68.42-1.3.68-2.09h0c.47-1.73,1.1-3.77,1.72-6h0c.05-.11.05-.21.1-.31v-.04h0c3.52-12.41,8.68-31.76,13.83-51.37l.7.16h0Z"/>
      <polygon class="cls-14" points="596.09 20.42 608.27 66.68 608.27 66.69 608.64 67.89 608.64 67.9 608.64 67.99 608.64 68 608.84 68.7 608.85 68.72 608.85 68.78 609.05 68.72 609.16 68.7 609.52 68.62 609 66.69 609 66.68 596.98 20.99 596.09 20.42 596.09 20.42"/>
      <polygon class="cls-3" points="585.53 103.84 561.64 103.84 561.64 100.81 585.53 100.81 585.53 103.84 585.53 103.84"/>
      <path class="cls-5" d="M556.43,138.53c-.04-.13-4.47-12.83,0-22.71,4.31-9.52,2.53-24.27.5-36.06-1.46-8.45.14-21.24,4.77-26.1,1.49-1.56,3.19-2.24,5.08-2.01,8.63,1.04,9.16,14.89,9.16,15.03h-.36c0-.13-.52-13.67-8.85-14.68-1.77-.21-3.37.43-4.78,1.9-3.65,3.84-6.47,15.38-4.67,25.8,2.04,11.84,3.83,26.66-.52,36.27-4.41,9.75-.04,22.32,0,22.45l-.34.12h0Z"/>
      <path class="cls-5" d="M556.19,137.17s4.32,2.75,4.24,7.7c0,0-3.84-1.33-4.24-7.7h0Z"/>
      <path class="cls-5" d="M556.44,142.05s2.42,4.51-.07,8.79c0,0-2.69-3.04.07-8.79h0Z"/>
      <path class="cls-5" d="M556.15,137.18s-.17,5.12-4.46,7.58c0,0-.81-3.98,4.46-7.58h0Z"/>
      <path class="cls-5" d="M554.89,130.41s5.48,1.77,6.81,7.18c0,0-4.56-.36-6.81-7.18h0Z"/>
      <path class="cls-5" d="M554.89,130.41s-.28,5.75-5.16,8.44c0,0-.84-4.49,5.16-8.44h0Z"/>
      <path class="cls-5" d="M554.75,122.51s6.12,3.19,6.61,9.84c0,0-5.31-1.34-6.61-9.84h0Z"/>
      <path class="cls-5" d="M554.75,122.51s-1.49,6.74-7.79,8.94c0,0-.09-5.47,7.79-8.94h0Z"/>
      <path class="cls-5" d="M557.12,114.38s6.87,4.84,6.37,12.95c0,0-6.19-2.48-6.37-12.95h0Z"/>
      <path class="cls-5" d="M557.12,114.38s-2.89,7.89-10.85,9.52c0,0,.78-6.62,10.85-9.52h0Z"/>
      <path class="cls-5" d="M559.18,104.22s5.8,5.79,3.97,13.51c0,0-5.53-3.4-3.97-13.51h0Z"/>
      <path class="cls-5" d="M559.18,104.22s-4.09,7.11-12.01,7.35c0,0,1.84-6.23,12.01-7.35h0Z"/>
      <path class="cls-5" d="M514.04,134.67l-.34-.09c3.04-11.99.53-29.55-1.13-41.17-.46-3.24-.86-6.04-1.02-7.97-.45-5.35,2.45-16.76,9.04-24.27,3.88-4.42,8.35-6.78,13.29-7.01,15.34-.71,18.73,12.33,18.76,12.46l-.35.09c-.03-.13-3.37-12.89-18.4-12.19-4.84.23-9.22,2.54-13.04,6.89-6.52,7.43-9.39,18.71-8.95,24,.16,1.92.56,4.71,1.02,7.95,1.66,11.65,4.18,29.25,1.12,41.31h0Z"/>
      <path class="cls-5" d="M514.47,105.51s6.08.6,8.67,5.9c0,0-4.8.66-8.67-5.9h0Z"/>
      <path class="cls-5" d="M515.08,112.51s5.86,1.7,7.44,7.39c0,0-4.83-.24-7.44-7.39h0Z"/>
      <path class="cls-5" d="M515.32,121.5s4.41,2.6,4.51,7.55c0,0-3.88-1.19-4.51-7.55h0Z"/>
      <path class="cls-5" d="M515.16,128.11s3.55,3.69,2.32,8.48c0,0-3.42-2.19-2.32-8.48h0Z"/>
      <path class="cls-5" d="M514.26,132.91s1.29,4.96-2.13,8.53c0,0-1.9-3.59,2.13-8.53h0Z"/>
      <path class="cls-5" d="M515.12,128.11s-1.36,4.94-6.11,6.32c0,0,.14-4.06,6.11-6.32h0Z"/>
      <path class="cls-5" d="M515.32,121.5s-1.36,4.94-6.11,6.32c0,0,.14-4.06,6.11-6.32h0Z"/>
      <path class="cls-5" d="M514.94,112.37s-.54,5.09-5,7.24c0,0-.52-4.03,5-7.24h0Z"/>
      <path class="cls-5" d="M514.47,105.53s-.62,5.91-5.8,8.4c0,0-.61-4.68,5.8-8.4h0Z"/>
      <path class="cls-5" d="M513.06,96.23s6.09-.46,9.55,4.31c0,0-4.61,1.47-9.55-4.31h0Z"/>
      <path class="cls-5" d="M513.06,96.25s.41,5.93-4.26,9.28c0,0-1.4-4.5,4.26-9.28h0Z"/>
      <path class="cls-5" d="M511.7,85.03s6.09.35,8.9,5.54c0,0-4.77.85-8.9-5.54h0Z"/>
      <path class="cls-5" d="M511.7,85.05s-.38,5.93-5.46,8.63c0,0-.8-4.65,5.46-8.63h0Z"/>
      <path class="cls-5" d="M513.48,74.42s5.49,2.66,6.1,8.53c0,0-4.73-1.04-6.1-8.53h0Z"/>
      <path class="cls-5" d="M513.48,74.44s-2.63,5.34-8.35,5.88c0,0,1.04-4.6,8.35-5.88h0Z"/>
      <path class="cls-5" d="M517.87,64.79s5.82,4.8,4.83,12.02c0,0-5.37-2.63-4.83-12.02h0Z"/>
      <path class="cls-5" d="M517.86,64.81s-4.71,5.64-11.74,4.62c0,0,2.6-5.21,11.74-4.62h0Z"/>
      <path class="cls-5" d="M525.24,57.04s5.72,6.26,3.46,14.15c0,0-5.56-3.78-3.46-14.15h0Z"/>
      <path class="cls-5" d="M525.22,57.06s-6.14,5.53-13.8,3.28c0,0,3.72-5.39,13.8-3.28h0Z"/>
      <path class="cls-5" d="M535.2,54.3s2.92,7.96-2.16,14.4c0,0-3.71-5.61,2.16-14.4h0Z"/>
      <path class="cls-5" d="M535.17,54.31s-7.78,2.79-14.01-2.2c0,0,5.49-3.58,14.01,2.2h0Z"/>
      <path class="cls-5" d="M549.45,60.96s-5.4,4.67-11.85,2.19c0,0,3.33-4.69,11.85-2.19h0Z"/>
      <path class="cls-5" d="M549.44,60.95s-4.36-5.78-2.22-12.42c0,0,4.33,3.63,2.22,12.42h0Z"/>
      <path class="cls-5" d="M592.43,121.96l-.25.02c-.77-8.73-6.55-19.9-10.38-27.28-1.07-2.06-1.99-3.84-2.55-5.09-1.55-3.48-2.28-11.79.37-18.35,1.56-3.86,4-6.49,7.26-7.8,10.1-4.06,15.42,3.87,15.47,3.95l-.21.14c-.05-.08-5.27-7.84-15.16-3.86-3.18,1.28-5.58,3.86-7.11,7.66-2.63,6.5-1.91,14.72-.38,18.15.56,1.25,1.48,3.02,2.54,5.08,3.84,7.41,9.63,18.6,10.4,27.38h0Z"/>
      <path class="cls-5" d="M585.89,102.35s4.2-1.02,7.18,1.92c0,0-3.05,1.56-7.18-1.92h0Z"/>
      <path class="cls-5" d="M587.94,106.89s4.32-.23,6.7,3.2c0,0-3.29.97-6.7-3.2h0Z"/>
      <path class="cls-5" d="M590.2,112.85s3.56.71,4.78,4c0,0-2.88.11-4.78-4h0Z"/>
      <path class="cls-5" d="M591.64,117.31s3.24,1.64,3.53,5.13c0,0-2.8-.67-3.53-5.13h0Z"/>
      <path class="cls-5" d="M592.16,120.73s2.02,3.01.57,6.21c0,0-2.12-1.95-.57-6.21h0Z"/>
      <path class="cls-5" d="M591.61,117.32s.25,3.62-2.61,5.66c0,0-.85-2.75,2.61-5.66h0Z"/>
      <path class="cls-5" d="M590.2,112.85s.24,3.62-2.61,5.66c0,0-.85-2.75,2.61-5.66h0Z"/>
      <path class="cls-5" d="M587.81,106.83s.83,3.53-1.65,6.01c0,0-1.29-2.57,1.65-6.01h0Z"/>
      <path class="cls-5" d="M585.9,102.36s.96,4.1-1.92,6.98c0,0-1.5-2.99,1.92-6.98h0Z"/>
      <path class="cls-5" d="M582.78,96.47s3.96-1.73,7.4.65c0,0-2.74,2.06-7.4-.65h0Z"/>
      <path class="cls-5" d="M582.79,96.48s1.66,3.87-.68,7.21c0,0-1.99-2.68.68-7.21h0Z"/>
      <path class="cls-5" d="M579.25,89.3s4.16-1.19,7.25,1.63c0,0-2.99,1.68-7.25-1.63h0Z"/>
      <path class="cls-5" d="M579.26,89.31s1.13,4.06-1.63,7.05c0,0-1.62-2.92,1.63-7.05h0Z"/>
      <path class="cls-5" d="M577.97,81.78s4.3.49,6.07,4.28c0,0-3.41.41-6.07-4.28h0Z"/>
      <path class="cls-5" d="M577.97,81.79s-.51,4.18-4.21,5.89c0,0-.38-3.32,4.21-5.89h0Z"/>
      <path class="cls-5" d="M578.65,74.31s5.02,1.85,6.04,6.91c0,0-4.21-.51-6.04-6.91h0Z"/>
      <path class="cls-5" d="M578.65,74.33s-1.83,4.88-6.78,5.84c0,0,.52-4.1,6.78-5.84h0Z"/>
      <path class="cls-5" d="M581.77,67.4s5.29,2.85,5.63,8.66c0,0-4.6-1.23-5.63-8.66h0Z"/>
      <path class="cls-5" d="M581.76,67.42s-2.82,5.13-8.47,5.42c0,0,1.23-4.48,8.47-5.42h0Z"/>
      <path class="cls-5" d="M587.79,63.24s3.81,4.65,1.92,10.14c0,0-3.79-2.89-1.92-10.14h0Z"/>
      <path class="cls-5" d="M587.78,63.25s-4.55,3.68-9.89,1.8c0,0,2.84-3.68,9.89-1.8h0Z"/>
      <path class="cls-5" d="M598.89,64.37s-2.52,4.39-7.42,4.23c0,0,1.13-3.92,7.42-4.23h0Z"/>
      <path class="cls-5" d="M598.87,64.36s-4.27-2.85-4.39-7.79c0,0,3.75,1.42,4.39,7.79h0Z"/>
      <path class="cls-5" d="M574.65,60.23s-6.17,2.95-11.73-.63c0,0,4.22-3.41,11.73.63h0Z"/>
      <path class="cls-5" d="M574.64,60.21s-2.83-6.03.69-11.42c0,0,3.29,4.13-.69,11.42h0Z"/>
      <path class="cls-5" d="M568.78,52.39s-1.98,4.93-7.62,5.7c0,0,.5-4.19,7.62-5.7h0Z"/>
      <path class="cls-5" d="M566.39,51.76s-5.86.78-9.48-3.64c0,0,4.38-1.68,9.48,3.64h0Z"/>
      <path class="cls-5" d="M557.99,86.47s7.56,3.18,8.78,11.01c0,0-6.41-1.06-8.78-11.01h0Z"/>
      <path class="cls-5" d="M557.99,86.47s-1.1,8.13-8.34,11.34c0,0-.64-6.47,8.34-11.34h0Z"/>
      <path class="cls-5" d="M556.51,76.59s8.67,2.35,11.13,10.68c0,0-7.12-.22-11.13-10.68h0Z"/>
      <path class="cls-5" d="M556.51,76.59s-.01,8.99-7.42,13.53c0,0-1.64-6.93,7.42-13.53h0Z"/>
      <path class="cls-5" d="M556.91,66.08s8.28,3.48,9.63,12.06c0,0-7.03-1.16-9.63-12.06h0Z"/>
      <path class="cls-5" d="M556.91,66.08s-1.2,8.9-9.14,12.43c0,0-.71-7.09,9.14-12.43h0Z"/>
      <path class="cls-5" d="M559.19,58.09s7.21,5.36,6.45,14.02c0,0-6.54-2.81-6.45-14.02h0Z"/>
      <path class="cls-5" d="M559.19,58.09s-3.3,8.36-11.85,9.88c0,0,1.01-7.05,11.85-9.88h0Z"/>
      <path class="cls-28" d="M671.15,395.59c0,14.14-11.46,25.59-25.6,25.59s-25.6-11.46-25.6-25.59h51.19Z"/>
      <path class="cls-31" d="M671.69,396.18h-52.27c-.41,0-.74-.33-.74-.74s.33-.74.74-.74h52.27c.41,0,.74.33.74.74s-.33.74-.74.74h0Z"/>
      <polygon class="cls-31" points="654.81 421.83 636.25 421.83 636.83 419.62 654.27 419.62 654.81 421.83 654.81 421.83"/>
      <path class="cls-18" d="M633.58,394.7s-8.71-22.68-12.06-24.3c-3.35-1.62-11.04-4.38-17.33-.67-6.28,3.71-10.03,12.69-10.03,12.69,0,0,4.56,1.84,14.89-.79,10.33-2.62,12.06-8.81,12.97-8.2.91.61,10.03,21.26,10.03,21.26h1.52Z"/>
      <path class="cls-5" d="M659.11,394.7s1.76-32.63,11.21-37.04c9.45-4.41,17.29,1.66,18.78,7.54,1.49,5.88,1.08,19.24,3.24,23.37,0,0-14.05-1.02-15.4-10.94-1.35-9.92-6.48-17.31-7.7-16.65-1.21.65-8.11,10.48-8.38,33.73h-1.76Z"/>
      <path class="cls-18" d="M641.82,394.7s-5.4-39.35-14.45-44.97c-9.05-5.62-24.31-5.62-24.86-5.62s4.59,8.36,13.64,14.22c9.05,5.86,16.9,4.84,17.43,6.13,4.95,12.23,6.08,30.24,6.08,30.24h2.16Z"/>
      <path class="cls-5" d="M645.55,394.7s-.22-25.31-6.43-27.1c-6.21-1.79-15.3,5.15-16.97,14.04,0,0-1.48,5.9-3.47,8,0,0,4.5,1.97,9.23,1.02,4.73-.95,8.71-6.28,8.98-10.88.27-4.59,2.03-10.77,2.84-10.38.81.39,1.96,2.69,2.77,6.4.81,3.71,1.42,18.89,1.42,18.89h1.64Z"/>
      <path class="cls-18" d="M648.98,394.7s-3.65-29.29-1.76-35.64c1.89-6.35,11.08-11.75,17.83-12.02,0,0-.67,8.11-2.43,13.24-1.76,5.14-13.64,6.31-13.91,8.7-.27,2.38,1.69,25.73,1.69,25.73h-1.42Z"/>
      <path class="cls-5" d="M653.23,394.7s-1.77-10.11-1.52-12.54c.25-2.43,2.94-6.48,5.02-7.7,0,0-.15,5.62.81,7.9.96,2.28-4.35,7.19-4.26,7.9.1.71.81,4.44.81,4.44h-.86Z"/>
      <path class="cls-32" d="M469.92,151.51h-18.83c-3.46,0-6.3-2.83-6.3-6.3v-24.09c.46-.06.91-.14,1.35-.23,3.29-.73,4.92-1.24,6.96-3.18.66-.63,1.11-1.05,1.41-1.34h.63s0,0,0,0h5.37s0,0,0,0h6.61s0,0,0,0h9.1v28.84c0,3.46-2.83,6.3-6.3,6.3"/>
      <path class="cls-32" d="M455.14,116.37h0s-.18-.42-.18-.42c.05-.05.08-.08.11-.1.05.32.07.51.08.53h0M455.04,115.72c-.06-.03-.14-.08-.25-.13l-3.35-7.71c.64-.25,1.24-.51,1.75-.79,1.09,4.07,1.64,7.3,1.84,8.63M448.14,100.27l-4.51-10.38c.11-.19.21-.39.31-.6.76-1.62.79-1.66.79-1.67,2.27,3.26,4.07,6.9,5.5,10.47-.81.58-1.5,1.34-2.09,2.18M444.73,87.62s-.93-.13-2.16-.18l-1.6-3.69c.59.2.96.32.96.32,0,0,0,0,0,0,1.01,1.11,1.94,2.3,2.81,3.55"/>
      <path class="cls-32" d="M460.51,116.37h0c-.15-4.43.1-10.33.53-16.37.31.07.49.11.49.11,0,0-.16-.19-.46-.48.55-7.63,1.35-15.45,1.95-20.79h0c.39-3.48.69-5.9.77-6.53,0,0,0,0,0,0l-.11,1.53s-.05.02-.05.02c.01,0,.03,0,.05,0h0l-.79,10.55c-.29.13-.46.22-.46.22,0,0,.18,0,.45-.01l-.78,10.45c-.48.75-.74,1.34-.74,1.34,0,0,.31-.28.68-.56l-1.52,20.51h0M463.78,72.28s0,0,0-.01c0-.08.01-.12.01-.12v.13"/>
      <path class="cls-32" d="M467.12,116.37h0c.24-2.63,1.03-4.84,2.14-6.69.02,0,.04,0,.07,0,.05.1.07.15.07.15,0,0,0-.06.02-.15.24,0,.58-.01.95-.01.68,0,1.48.02,2.07.1.31.04.53.28.73.64l-6.05,5.97h0M469.43,109.49s0-.06,0-.09c3.16-5.06,8.69-7.42,11.7-8.37.15,0,.34,0,.54,0,.31,0,.65,0,.97.02l-2.16,2.13c-.52-.5-1.08-.9-1.56-.9-.02,0-.04,0-.06,0-1.28.09-3.04,1.27-3.04,1.27.04-.01.09-.02.14-.02.66,0,1.52,1.42,2.33,1.81l-2.31,2.28c-2.87.24-5.54,1.38-6.54,1.85"/>
      <path class="cls-32" d="M441.92,84.08s-.37-.12-.96-.32c-2.12-.73-7.14-2.56-8.3-3.99-1.49-1.83-4.63-3.51-4.63-3.51,0,0,3.73-.8,7.75-.8.29,0,.58,0,.87.01,4.29.13,5.26,8.46,5.28,8.6,0,0,0,0,0,0"/>
      <path class="cls-32" d="M435.99,94.8s-.7-4.81,1.31-6.38c1.01-.79,2.88-.99,4.49-.99.27,0,.54,0,.79.01,1.23.05,2.15.18,2.16.18h0s-.02.05-.79,1.67c-.1.22-.21.41-.31.6-.72,1.25-1.59,1.92-3.19,2.98-1.84,1.22-4.46,1.92-4.46,1.92"/>
      <path class="cls-32" d="M441.66,121.31c-1.68,0-2.93-.14-2.93-.14,0,0,1.66-7.23,5.39-8.37.45-.14.96-.2,1.5-.2,3.33,0,7.91,2.31,9.18,2.98.11.06.19.1.25.13.06.03.09.05.09.05l-.08.07s-.06.06-.11.1c-.09.09-.23.22-.44.42-.3.29-.75.71-1.41,1.34-2.04,1.94-3.67,2.45-6.96,3.18-.44.1-.89.17-1.35.23-1.08.14-2.17.19-3.13.19"/>
      <path class="cls-32" d="M459.13,72.7c-.29,0-.56-.03-.81-.11-1.67-.52-5.48-1.05-5.48-1.05,0,0,3.21-2.56,5.9-3.08.15-.03.3-.04.44-.04,1.24,0,2.41.98,3.27,1.96.73.83,1.22,1.67,1.33,1.9,0,0,0,0,0,.01.01.03.02.05.01.05,0,0,0,0,0,0,0,0,0,0-.01,0,0,0,0,0,0,0-.2-.15-.48-.21-.8-.21-.52,0-1.17.15-1.84.3-.67.15-1.37.3-2,.3"/>
      <path class="cls-32" d="M482.11,100.41c-.41-1.15-1.4-4.58.14-5.33.92-.45,2.28-.57,3.42-.57s2.15.13,2.15.13c0,0-1.74,2.34-2.29,3.61-.46,1.05-2.42,1.32-3.06,2.03-.12.04-.24.09-.36.13"/>
      <path class="cls-32" d="M463.96,72.29c-.1,0-.17,0-.17,0,0,0-.04-1.95,2.19-3,0,0,.48,1.27,0,2.19-.39.74-1.57.81-2.02.81"/>
      <path class="cls-32" d="M471.32,106.79s-1.89-.48-2.3-2.91c0,0,.09,0,.24,0,.42,0,1.31.07,1.86.59.76.71.2,2.32.2,2.32"/>
      <path class="cls-32" d="M469.39,76.67s-2.63-.04-3.5-.39c-.86-.34-1.46-2.41-2.23-2.41h0s-.03,0-.05,0c0,0,.02,0,.05-.02.28-.11,1.67-.62,2.79-.62.14,0,.27,0,.4.03,1.27.17,2.54,3.41,2.54,3.41"/>
      <path class="cls-32" d="M479,105.47c-.18,0-.33,0-.46-.03-.08-.01-.17-.04-.26-.09-.8-.39-1.66-1.81-2.33-1.81-.05,0-.09,0-.14.02,0,0,1.76-1.18,3.04-1.27.02,0,.04,0,.06,0,.48,0,1.05.4,1.56.9.85.82,1.57,1.91,1.57,1.91,0,0-1.92.38-3.04.38"/>
      <path class="cls-32" d="M455.65,81.29c-1.73,0-4.1-.74-4.1-.74,0,0,2.62-3.5,5.33-3.88.19-.03.38-.04.57-.04,2.59,0,5.53,2.21,5.55,2.22h0s-.19-.02-.46-.02c-.51,0-1.32.07-1.7.45-.59.59-2.82,1.71-4.53,1.97-.21.03-.43.05-.66.05"/>
      <path class="cls-32" d="M462.47,78.18s-1.48-.81-1.78-1.73c-.3-.92,0-2.06,0-2.06,0,0,.31.3,1.32,1.28,1.01.99.47,2.52.47,2.52"/>
      <path class="cls-32" d="M476.32,90.6s-6.36-.13-8.46-1.77c-2.1-1.64-1.93-4-2.87-4.13-.44-.06-1.05-.08-1.56-.08-.21,0-.4,0-.57,0-.27,0-.45.01-.45.01,0,0,.17-.09.46-.22.96-.44,3.27-1.36,5.58-1.36,1.06,0,2.13.2,3.07.72,3.61,2.03,4.79,6.82,4.79,6.82"/>
      <path class="cls-32" d="M461.35,96.42s.26-.6.74-1.34c.73-1.14,1.98-2.64,3.62-2.91.28-.05.56-.07.84-.07,2.39,0,4.49,1.59,4.49,1.59,0,0-3.34,2.59-5.12,2.62-.02,0-.04,0-.06,0-.77,0-1.37-.25-1.85-.5-.48-.25-.83-.5-1.11-.5-.07,0-.14.02-.2.05-.21.12-.45.31-.68.48-.36.29-.68.56-.68.56"/>
      <path class="cls-32" d="M487.46,117.6s-8.44-.17-11.23-2.35c-2.08-1.63-2.48-3.79-3.07-4.85-.2-.36-.42-.59-.73-.64-.59-.08-1.39-.1-2.07-.1-.37,0-.71,0-.95.01,0-.05,0-.12.01-.19,1-.47,3.67-1.61,6.54-1.85.35-.03.71-.05,1.07-.05,1.41,0,2.83.26,4.07.96,4.79,2.7,6.35,9.05,6.35,9.05M469.01,109.69s.09-.05.26-.13c.02.04.04.08.06.12-.02,0-.04,0-.07,0-.16,0-.25,0-.25,0"/>
      <path class="cls-32" d="M494.56,107.01s-6.36-.13-8.46-1.77c-2.1-1.64-1.93-4-2.87-4.13-.18-.03-.38-.04-.6-.05-.32-.02-.66-.02-.97-.02-.2,0-.38,0-.54,0-.29,0-.48.01-.48.01,0,0,.57-.3,1.46-.64.11-.04.23-.09.36-.13,1.14-.4,2.68-.82,4.23-.82,1.06,0,2.13.2,3.07.72,3.61,2.03,4.79,6.82,4.79,6.82"/>
      <path class="cls-32" d="M457.19,88.28c-1.44,0-4-.85-4-.85,0,0,2.47-3.38,5.08-3.38.13,0,.27,0,.4.03,2.75.38,3.26,3.35,3.26,3.35,0,0-.41-.41-1.12-.91-.07-.05-.15-.07-.23-.07-.77,0-2.09,1.83-3.39,1.83"/>
      <path class="cls-32" d="M444.86,109.75s.61-5.66,3.28-9.48c.59-.84,1.28-1.6,2.09-2.18.42-.31.88-.57,1.38-.77,1.04-.42,2.04-.6,2.96-.6,3.14,0,5.53,1.97,6.49,2.9.3.29.46.48.46.48,0,0-.17-.05-.49-.11-.53-.11-1.46-.28-2.65-.38-.02,0-.05,0-.07,0-1.83,0-2.17,5.78-4.88,7.35-.07.04-.15.08-.23.13-.51.28-1.11.54-1.75.79-2.89,1.11-6.59,1.87-6.59,1.87"/>
      <path class="cls-32" d="M469.4,109.83s-.02-.05-.07-.15c-.01-.03-.03-.07-.06-.12-.11-.22-.3-.56-.55-.94-.07-.1-.17-.14-.29-.14-.32,0-.81.28-1.35.56-.54.28-1.12.56-1.63.56-.11,0-.22-.01-.31-.04-1.22-.35-3.13-1.86-3.13-1.86,0,0,2.52-2.35,4.63-2.35.35,0,.69.07,1.01.22,1.71.83,1.83,2.93,1.8,3.84,0,.03,0,.06,0,.09,0,.07,0,.14-.01.19,0,.1-.02.15-.02.15"/>
      <path class="cls-14" d="M69.06,423.02h-.18c-1.49-.03-2.63-1.24-2.49-2.64l9.92-99.02,8.65.77-14.24,99.55c-.11.78-.82,1.35-1.65,1.34h0Z"/>
      <path class="cls-14" d="M106.52,423.02h-.18c-1.49-.03-2.63-1.24-2.49-2.64l9.92-99.02,8.65.77-14.24,99.55c-.11.78-.82,1.35-1.65,1.34h0Z"/>
      <path class="cls-14" d="M234.49,423.02h.18c1.49-.03,2.63-1.24,2.49-2.64l-9.91-99.02-8.65.77,14.24,99.55c.11.78.82,1.35,1.65,1.34h0Z"/>
      <path class="cls-14" d="M75.04,322.8h133.16c4.36,0,7.93-3.57,7.93-7.92s-3.57-7.93-7.93-7.93h-124.68c-6.35,0-11.49,5.15-11.49,11.49v1.34c0,1.67,1.35,3.02,3.02,3.02h0Z"/>
      <path class="cls-14" d="M139.94,322.8h85.61c2.17,0,3.95-1.78,3.95-3.95v-7.95c0-2.17-1.78-3.95-3.95-3.95h-85.61c-2.17,0-3.95,1.78-3.95,3.95v7.95c0,2.17,1.78,3.95,3.95,3.95h0Z"/>
      <path class="cls-23" d="M194.91,201.91s11.4,35.88,14.79,37.25c3.38,1.37,27.67-2.22,27.67-2.22v4.98s-22.35,10.22-30.45,9.55c-8.1-.66-18.52-24.77-18.52-24.77l6.52-24.8h0Z"/>
      <path class="cls-25" d="M259.94,371.87s10.25,12.33,13.29,15.41c3.04,3.08,6.21,10.77,9.64,12.93,3.43,2.16,9.24,5.22,7.47,7.95,0,0-17.5.95-19.14-1.96-1.52-2.69-6.62-9.89-11.91-11.02-5.15-1.1-5.8-6.54-3.7-9.98,2.11-3.44-8.56-14.06-8.56-14.06l12.92.72h0Z"/>
      <path class="cls-30" d="M135.26,268.49s93.12,20.18,101.24,39.58c17.96,42.92,29.43,70.14,29.43,70.14,0,0-6.95,6.95-13.88,2.73,0,0-25.46-27.18-30.2-40.9-9.64-27.87-15.05-24.08-16.52-24.49-1.48-.41-46.68,4.12-69.07-14.39-9.32-7.71-1-32.68-1-32.68h0Z"/>
      <path class="cls-6" d="M180.88,161.99s-.84,3.03.85,4.05c1.7,1.02-3.54,6.77-4.28,11.3-.73,4.53.83,6.77.83,6.77,0,0-.39-2.67.49-4.07,0,0-.81,3.14,1.13,5.26,1.94,2.12,1,3.36,1,3.36,0,0,5.57-.37,6.61-4.24,0,0-.18,1.82-.53,2.51,0,0,5.27-2.35,6.38-6.19,1.11-3.84-1.9-7.99-3.59-8.44-1.7-.45-4.74-4.69-4.35-5.93.39-1.25-4.56-4.38-4.56-4.38h0Z"/>
      <path class="cls-6" d="M193.52,142.41l-28.63,27.36s-1.34-5.31-4.43-4.23c-4.82,1.69-10.66-8.08-8.67-21.26.45-2.99,4.04-9.18,9.8-12.32,25.22-13.7,31.93,10.45,31.93,10.45h0Z"/>
      <path class="cls-23" d="M187.93,209.66c-3.6,2.04-8.02,3.59-13.45,4.34-20.39,2.81-26.51-14.76-28.34-26.61,2.86-1.31,5.46-1.42,6.95-1.47,1.46-.04,2.99-.02,4.25.04,2.4-1.51,6.38-8.24,8.1-19.09l.92.34,15.35,5.73s-1.17,4.94-1.95,9.63c-.61,3.68-.97,7.21-.35,8.14,1.2.38,1.93.62,1.93.62v.02c.19.37,4.07,8.29,6.6,18.31h0Z"/>
      <path class="cls-28" d="M194.15,222.67c-.12.42-.26.83-.41,1.26-4.27,11.6-15.33,49.66-15.33,49.66,2.05,8.21-43.96,22.79-44.75,15.22-2.34-6.31-4.68-21.46.28-28.8,1.21-1.79.07-6.6,1.1-7.96.66-.88-2.08-3.87-1.59-4.84,1.24-2.43,1.92-5.11,1.99-7.85.17-7.29-1.22-31.6-2.1-37.17-1.67-10.63,4.55-14.14,4.55-14.14,5.32-2.68,19.44-2.12,19.44-2.12,0,0,6.97,11.77,8.07,13.55,3.19,5.14,15.88,6.3,17.02,3.25,1.12-2.99-2.85-11.55-3.03-12.05l1.93.62c.29.09.57.17.85.26,1.38.43,2.58.96,3.72,1.27,7.33,2.01,8.2,4.33,8.2,4.33-5,3.86,3.25,14.32.06,25.49h0Z"/>
      <path class="cls-7" d="M181.7,172.94s-1.18,4.93-1.95,9.63c-8.84-1.7-12.21-10.56-13.39-15.36l15.35,5.73h0Z"/>
      <path class="cls-23" d="M183.94,177.88s-21.06-3.08-18.94-16.17c2.12-13.08.83-22.29,14.37-20.88,13.53,1.42,15.33,6.83,15.68,11.37.35,4.54-5.58,26.14-11.12,25.68h0Z"/>
      <path class="cls-6" d="M195.62,144.83c-2.6-4.47-5.2-4-6.77-3.04-10.45-8.19-19.37-.06-19.37-.06-2.94,9.16-10.58,13.43-10.58,13.43,0,0,3.44,2.99,12.64,2.16,2.81-.25,5.53-1.78,7.95-3.77-4.55,5.4-10.11,8.92-10.11,8.92,11.34-3.15,17.96-17.12,18.64-18.6,1.09,1.36,3.21,4.27,3.58,6.85.5,3.5-.15,10.44,1.89,10.53,0,0,6.04-9.72,2.13-16.42h0Z"/>
      <path class="cls-27" d="M149.24,185.84s11.02,11.22,10.34,29.38l6.78-.92s-1.25-12.19-13.27-28.37l-3.85-.08h0Z"/>
      <path class="cls-27" d="M188.87,222.4l-4.15-.67c4.28-14.9-.93-26.94-2.55-30.15,1.38.43,2.62.86,3.72,1.27,7.16,17.95,2.98,29.55,2.98,29.55h0Z"/>
      <path class="cls-27" d="M157.75,224.96c0-1.13-.11-12.15-.11-12.15,0,0,.17-3.4,5.99-2.41,5.81.99,26.42,4.59,26.42,4.59,0,0,2.39,2.31,1.64,5.76-.75,3.45-2.48,23.74-2.48,23.74l-5.88,50.05-63.51,5.97s-6.08-7.08,4.49-29.53c4.07-8.64,9.15-23.75,9.15-23.75,0,0,24.39-4.96,24.3-22.27h0Z"/>
      <path class="cls-31" d="M159.76,213.67c-.08-.97.64-1.82,1.61-1.9.97-.08,1.82.64,1.9,1.61.08.97-.64,1.82-1.61,1.9-.97.08-1.82-.64-1.9-1.61h0Z"/>
      <path class="cls-28" d="M160.08,213.64c-.08-.97.64-1.82,1.61-1.9.97-.08,1.82.64,1.9,1.61.08.97-.64,1.82-1.61,1.9-.97.08-1.82-.64-1.9-1.61h0Z"/>
      <path class="cls-27" d="M160.77,213.25c.03-.14.17-.22.31-.19.14.03.22.17.19.31-.03.14-.17.22-.31.19-.14-.03-.22-.17-.19-.31h0Z"/>
      <path class="cls-27" d="M162.4,213.63c.03-.14.17-.22.31-.19.14.03.22.17.19.31-.03.14-.17.22-.31.19-.14-.03-.22-.17-.19-.31h0Z"/>
      <path class="cls-31" d="M185.51,217.28c-.08-.97.64-1.82,1.61-1.9.97-.08,1.82.64,1.9,1.61.08.97-.64,1.82-1.61,1.9-.97.08-1.82-.64-1.9-1.61h0Z"/>
      <path class="cls-28" d="M185.82,217.25c-.08-.97.64-1.82,1.61-1.9.97-.08,1.82.64,1.9,1.61.08.97-.64,1.82-1.61,1.9-.97.08-1.82-.64-1.9-1.61h0Z"/>
      <path class="cls-27" d="M186.51,216.86c.03-.14.17-.22.31-.19.14.03.22.17.19.31-.03.14-.17.22-.31.19-.14-.03-.22-.17-.19-.31h0Z"/>
      <path class="cls-27" d="M188.14,217.24c.03-.14.17-.22.31-.19.14.03.22.17.19.31-.03.14-.17.22-.31.19-.14-.03-.22-.17-.19-.3h0Z"/>
      <path class="cls-6" d="M155.26,156.88s-1.45,3.01.14,4.39c1.59,1.38-4.96,6.42-6.57,11.01-1.61,4.6-.39,7.23-.39,7.23,0,0,.09-2.86,1.27-4.16,0,0-1.43,3.13.2,5.71,1.63,2.58.43,3.69.43,3.69,0,0,5.89.65,7.7-3.2,0,0-.53,1.87-1.02,2.52,0,0,5.95-1.47,7.82-5.28,1.87-3.81-.5-8.7-2.18-9.49-1.69-.79-4.09-5.78-3.44-7.01.64-1.23-3.95-5.42-3.95-5.42h0Z"/>
      <path class="cls-12" d="M179.22,169.21s2.65,2.57,4.9,2.86c2.22.28,4-2.07,4-2.07,0,0-4.07-1.59-8.9-.79h0Z"/>
      <path class="cls-28" d="M194.1,197.18s5.84,10.53,6.75,18.98c0,0-1.08,4.06-7.71,4.75,0,0-3.09-23.59-1.7-24.34,1.38-.75,2.67.61,2.67.61h0Z"/>
      <path class="cls-13" d="M258.54,243.36c-.77-.6-1.35-1.09-1.66-1.45-2-2.34.78-6.89.78-6.89h-23.07s2.78,4.56.78,6.89c-.31.36-.9.85-1.66,1.45-7.39,5.21-13.49,17.82-13.46,19.45,0,.51.05,1.04.11,1.58,1.25,11.21,12.79,27.1,12.79,27.1h25.96s11.39-15.69,12.76-26.89c.08-.61.12-1.21.13-1.8.03-1.63-6.04-13.75-13.45-19.45h0Z"/>
      <path class="cls-13" d="M257.35,235.38h-22.53c-.33,0-.59-.27-.59-.59s.27-.59.59-.59h22.53c.33,0,.59.27.59.59s-.27.59-.59.59h0Z"/>
      <path class="cls-24" d="M299,423.13h-103.96c0-8.18,6.63-14.82,14.82-14.82h74.32c8.18,0,14.82,6.64,14.82,14.82h0Z"/>
      <path class="cls-24" d="M270.29,293.31h0c0-1.12-.91-2.02-2.02-2.02h-42.49c-1.12,0-2.02.91-2.02,2.02s.91,2.02,2.02,2.02h15.29c1.12,0,2.02.91,2.02,2.02v16.19c0,1.12-.9,2.02-2.02,2.02h-3.54c-1.12,0-2.02.9-2.02,2.02v4.16c0,1.12.91,2.02,2.02,2.02h3.54c1.12,0,2.02.91,2.02,2.02v80.52c0,1.12.91,2.02,2.02,2.02h3.84c1.12,0,2.02-.9,2.02-2.02v-80.52c0-1.12.91-2.02,2.02-2.02h2.58c1.12,0,2.02-.9,2.02-2.02v-4.16c0-1.12-.91-2.02-2.02-2.02h-2.58c-1.12,0-2.02-.91-2.02-2.02v-16.19c0-1.12.91-2.02,2.02-2.02h15.29c1.12,0,2.02-.9,2.02-2.02h0Z"/>
      <path class="cls-21" d="M182.39,389.15s-1.52,13.47-3.79,19.39c-1.4,3.64-.06,7.23.94,9.17,1.83,3.53,2.3,5.47-.64,5.55-6.67.18-8.32-1.42-10.3-7.59-.91-2.81.57-9.94-3.46-15-3.04-3.82-.37-7.82,2.9-9.41,3.27-1.59,7.82-10.31,7.82-10.31l6.53,8.21h0Z"/>
      <path class="cls-27" d="M126.1,266.94s89.47,21.86,89.47,39.22c0,8.73-10.09,32.39-11.71,36.88-10.74,29.77-21.47,50.06-21.47,50.06,0,0-10.1-2.99-11.02-10.43,0,0,4.23-41.49,9.06-50.38,1.29-2.37,2.42-4.27,3.33-5.73.93-1.49,4.62-7.81,1.85-8.6-13.06-3.75-60.1-5.65-66.48-12.14-7.76-7.9,6.97-38.88,6.97-38.88h0Z"/>
      <path class="cls-23" d="M138.72,213.56s20.48,27.76,32.06,38.1c11.57,10.34,43.49,17.83,43.49,17.83l1.21-6.56s-30.29-21.7-32.51-24.49c-21.28-26.7-23.21-32.5-29.04-42.21-4.47-7.45-14.13,8.97-15.21,17.33h0Z"/>
      <path class="cls-23" d="M218.52,263.93s.22-1.57,1.52-2.3c1.31-.73,2.45-2.16,2.6-1.78.15.37.29,1.01-.34,1.85-.63.84-1.72,2.25-3.77,2.23h0Z"/>
      <path class="cls-23" d="M210.91,260.62s6.68,3.43,7.6,3.31c2.16-.28,6.02-5.4,9.78-3.53,3.76,1.87,7.58,5.21,6.47,6.78-1.1,1.57-5.45.22-7.43.69-1.98.47-6.71,3.37-10.31,2.53-3.46-.81-11.13-4.75-11.13-4.75l5.01-5.05h0Z"/>
      <path class="cls-28" d="M143.02,188.66c-.39.05-8.11,3.56-8.98,5.86-.88,2.3,3.11,20.23,3.11,20.23l3.68,8.46s15.94-3.61,23.14-11.5c0,0-10.78-24.36-20.95-23.05h0Z"/>
      <path class="cls-23" d="M241.89,234.2h6.87s-.52-2.07-3.43-2.29c-2.91-.22-5.67,2.29-5.67,2.29h2.24Z"/>
      <path class="cls-4" d="M716.04,423.93H.87c-.48,0-.87-.39-.87-.88v-.45c0-.48.39-.88.87-.88h715.17c.48,0,.88.39.88.88v.45c0,.48-.39.88-.88.88h0Z"/>
      <g class="cls-33">
        <rect class="cls-16" x="276.12" y="220.29" width="132.4" height="14.1"/>
      </g>
      <path class="cls-16" d="M350.41,220.29h-14.83l1.43-2.49s-5.34-2.09-5.96-8.5c-.02-.21-.04-.42-.04-.65-.02-.42-.02-.85,0-1.3,0-.08,0-.15,0-.23,0,.08,0,.16,0,.23.09,0,.19,0,.29,0,.97,0,2.18.16,2.63.8.63.88,1.47,1.24,2.29,1.24.56,0,1.12-.17,1.6-.44.26-.15.51-.32.74-.49.49-.34.84-.57,1.18-.57.21,0,.42.09.67.28.97.76,1.76,1.11,2.59,1.11.21,0,.43-.02.65-.07.48-.1.88-.35,1.26-.6.46-.29.89-.57,1.44-.57.05,0,.1,0,.15,0,.54.04.91.35,1.27.65.34.29.69.58,1.16.58.02,0,.05,0,.07,0,.47-.03.77-.41,1.08-.81.38-.49.77-.99,1.52-1.01.05,0,.1,0,.15,0,.9,0,1.17.33,1.44.67.1.13.21.26.32.37.15.13.34.18.55.18.29,0,.63-.1.94-.23h0c0,.48-.05.93-.11,1.37,0,.03,0,.05,0,.07,0-.02,0-.05,0-.07-.36.17-.68.26-.84.26-.05,0-.09,0-.11-.03-.08-.08-.17-.2-.26-.33-.27-.39-.64-.94-1.53-.94-.19,0-.4.02-.63.08-.41.1-.84.49-1.3.92-.42.38-.93.86-1.25.88,0,0-.02,0-.03,0-.23,0-.43-.16-.75-.43-.39-.33-.88-.74-1.63-.8-.07,0-.13,0-.2,0-.73,0-1.29.36-1.78.67-.35.22-.68.44-1.05.51-.32.07-.62.1-.91.1-.79,0-1.48-.25-2.12-.75-.46-.37-.85-.5-1.19-.5-.48,0-.86.28-1.21.54-.1.08-.21.15-.33.23-.39.26-.83.38-1.24.38-.6,0-1.15-.24-1.5-.61-1.03-1.11-2.38-1.36-3.4-1.36-.23,0-.44.01-.62.03,0,.22.02.44.04.65.17-.02.36-.03.57-.03.9,0,2.07.22,2.94,1.15.46.49,1.2.81,1.98.81.53,0,1.07-.14,1.57-.48.13-.08.24-.17.36-.26.32-.24.56-.41.83-.41.22,0,.45.11.78.37.76.59,1.59.88,2.52.88.33,0,.67-.03,1.03-.11.48-.1.88-.35,1.26-.6.46-.29.88-.57,1.43-.57.05,0,.1,0,.15,0,.54.04.91.35,1.27.65.34.29.69.58,1.16.58.02,0,.05,0,.07,0,.55-.04,1.11-.56,1.65-1.06.36-.33.77-.71,1.02-.77.19-.04.34-.06.48-.06.55,0,.77.31,1.01.67.1.16.21.32.35.44.15.13.34.19.55.19s.47-.06.71-.14h0c-1.15,5.43-5.78,7.24-5.78,7.24l1.44,2.49M337.02,217.81s1.68,1.76,5.46,1.76h.02c4.35,0,6.47-1.76,6.47-1.76-2.26.57-4.34.76-6.11.76-3.54,0-5.85-.76-5.85-.76M346.14,210.98c-.27,0-.49.22-.49.49s.22.49.49.49.49-.22.49-.49-.22-.49-.49-.49M339.2,210.98c-.27,0-.49.22-.49.49s.22.49.49.49.49-.22.49-.49-.22-.49-.49-.49M351.9,210.49c-.27,0-.49.22-.49.49s.22.49.49.49.49-.22.49-.49-.22-.49-.49-.49M333.88,210.49c-.27,0-.49.22-.49.49s.22.49.49.49.49-.22.49-.49-.22-.49-.49-.49"/>
      <polyline class="cls-20" points="350.44 220.33 335.56 220.33 335.58 220.29 350.41 220.29 350.44 220.33"/>
      <path class="cls-16" d="M336.21,208.74c-.62,0-1.26-.26-1.76-.96-.63-.9-2.11-1.07-3.15-1.07-.08,0-.16,0-.24,0,0,.02,0,.04,0,.05,0-.02,0-.04,0-.06.2-2.13.95-3.86,1.92-5.25h20.04c1.03,1.48,1.8,3.33,1.95,5.63.01.22.03.43.03.65,0,.19,0,.37,0,.55,0-.18,0-.36,0-.55-.42.2-.79.31-.97.31-.05,0-.09,0-.11-.03-.09-.08-.17-.18-.24-.28-.31-.39-.72-.92-1.96-.92-.05,0-.1,0-.15,0-1.06.04-1.61.74-2,1.25-.23.29-.43.55-.62.56-.01,0-.02,0-.04,0-.23,0-.43-.17-.74-.43-.39-.33-.88-.74-1.63-.8-.07,0-.14,0-.21,0-.72,0-1.28.36-1.77.68-.35.22-.68.44-1.05.51-.18.04-.35.06-.53.06-.68,0-1.34-.3-2.19-.98-.38-.3-.73-.42-1.06-.42-.57,0-1.06.35-1.55.69-.22.15-.44.31-.69.45-.37.21-.82.36-1.28.36M348.85,206.43c-.27,0-.49.22-.49.49s.22.49.49.49.49-.22.49-.49-.22-.49-.49-.49M343,206.43c-.27,0-.49.22-.49.49s.22.49.49.49.49-.22.49-.49-.22-.49-.49-.49M336.44,206.11c-.27,0-.49.22-.49.49s.22.49.49.49.49-.22.49-.49-.22-.49-.49-.49M353.85,205.45c-.27,0-.49.22-.49.49s.22.49.49.49.49-.22.49-.49-.22-.49-.49-.49M332.77,205.45c-.27,0-.49.22-.49.49s.22.49.49.49.49-.22.49-.49-.22-.49-.49-.49"/>
      <path class="cls-16" d="M336.21,209.38c-.83,0-1.66-.35-2.29-1.24-.45-.64-1.66-.8-2.63-.8-.1,0-.19,0-.29,0,0-.07,0-.15,0-.23,0,0,0-.02,0-.03,0-.11.01-.22.03-.32,0-.02,0-.04,0-.05.08,0,.16,0,.24,0,1.04,0,2.52.17,3.15,1.07.5.71,1.14.96,1.76.96.46,0,.91-.15,1.28-.36.25-.14.47-.3.69-.45.49-.34.98-.69,1.55-.69.33,0,.68.12,1.06.42.85.67,1.51.98,2.19.98.17,0,.35-.02.53-.06.36-.07.7-.28,1.05-.51.49-.32,1.05-.68,1.77-.68.07,0,.13,0,.21,0,.75.06,1.24.47,1.63.8.31.26.51.43.74.43.01,0,.02,0,.04,0,.19-.01.39-.27.62-.56.4-.51.95-1.22,2-1.25.05,0,.1,0,.15,0,1.24,0,1.65.53,1.96.92.08.1.15.2.24.28.02.02.05.03.11.03.18,0,.55-.11.97-.31,0,.19,0,.37,0,.55,0,.06,0,.11,0,.16h0c-.32.13-.65.23-.94.23-.22,0-.41-.05-.55-.18-.11-.1-.22-.23-.32-.37-.27-.34-.54-.67-1.44-.67-.05,0-.1,0-.15,0-.76.03-1.15.52-1.52,1.01-.31.4-.6.77-1.08.81-.02,0-.05,0-.07,0-.47,0-.82-.29-1.16-.58-.35-.3-.72-.61-1.27-.65-.05,0-.1,0-.15,0-.54,0-.98.28-1.44.57-.38.24-.78.5-1.26.6-.22.04-.44.07-.65.07-.83,0-1.63-.35-2.59-1.11-.25-.2-.46-.28-.67-.28-.34,0-.69.22-1.18.57-.23.17-.47.33-.74.49-.48.27-1.04.44-1.6.44"/>
      <path class="cls-16" d="M342.61,211.34c-.93,0-1.77-.29-2.52-.88-.33-.26-.57-.37-.78-.37-.27,0-.51.17-.83.41-.12.08-.23.17-.36.26-.5.33-1.05.48-1.57.48-.79,0-1.52-.32-1.98-.81-.87-.94-2.04-1.15-2.94-1.15-.21,0-.4.01-.57.03-.02-.21-.04-.42-.04-.65.19-.02.4-.03.62-.03,1.02,0,2.37.26,3.4,1.36.34.37.9.61,1.5.61.41,0,.84-.11,1.24-.38.12-.08.23-.15.33-.23.35-.26.72-.54,1.21-.54.33,0,.72.13,1.19.5.64.51,1.33.75,2.12.75.29,0,.59-.03.91-.1.36-.07.7-.28,1.05-.51.5-.32,1.05-.67,1.78-.67.06,0,.13,0,.2,0,.75.06,1.24.47,1.63.8.31.27.52.43.75.43,0,0,.02,0,.03,0,.32-.02.84-.5,1.25-.88.46-.43.9-.83,1.3-.92.24-.06.45-.08.63-.08.89,0,1.27.55,1.53.94.09.13.17.25.26.33.02.02.06.03.11.03.17,0,.48-.09.84-.26,0,.03,0,.05,0,.07-.03.23-.07.45-.11.67t0,0c-.24.08-.49.14-.71.14s-.4-.05-.55-.19c-.14-.12-.25-.28-.35-.44-.24-.35-.46-.67-1.01-.67-.14,0-.3.02-.48.06-.25.06-.66.44-1.02.77-.54.5-1.1,1.02-1.65,1.06-.02,0-.05,0-.07,0-.47,0-.81-.29-1.16-.58-.35-.3-.72-.61-1.27-.65-.05,0-.1,0-.15,0-.55,0-.98.28-1.43.57-.38.24-.78.5-1.26.6-.36.08-.7.11-1.03.11"/>
      <path class="cls-16" d="M336.44,207.1c-.27,0-.49-.22-.49-.49s.22-.49.49-.49.49.22.49.49-.22.49-.49.49"/>
      <path class="cls-16" d="M339.2,211.97c-.27,0-.49-.22-.49-.49s.22-.49.49-.49.49.22.49.49-.22.49-.49.49"/>
      <path class="cls-16" d="M346.14,211.97c-.27,0-.49-.22-.49-.49s.22-.49.49-.49.49.22.49.49-.22.49-.49.49"/>
      <path class="cls-16" d="M351.9,211.48c-.27,0-.49-.22-.49-.49s.22-.49.49-.49.49.22.49.49-.22.49-.49.49"/>
      <path class="cls-16" d="M333.88,211.48c-.27,0-.49-.22-.49-.49s.22-.49.49-.49.49.22.49.49-.22.49-.49.49"/>
      <path class="cls-16" d="M343,207.42c-.27,0-.49-.22-.49-.49s.22-.49.49-.49.49.22.49.49-.22.49-.49.49"/>
      <path class="cls-16" d="M348.85,207.42c-.27,0-.49-.22-.49-.49s.22-.49.49-.49.49.22.49.49-.22.49-.49.49"/>
      <path class="cls-16" d="M353.85,206.43c-.27,0-.49-.22-.49-.49s.22-.49.49-.49.49.22.49.49-.22.49-.49.49"/>
      <path class="cls-16" d="M332.77,206.43c-.27,0-.49-.22-.49-.49s.22-.49.49-.49.49.22.49.49-.22.49-.49.49"/>
      <path class="cls-16" d="M342.48,219.56c-3.78,0-5.46-1.76-5.46-1.76,0,0,2.31.76,5.85.76,1.77,0,3.85-.19,6.11-.76,0,0-2.12,1.75-6.47,1.76h-.02"/>
      <path class="cls-16" d="M390.54,220.29h-18.74l1.82-3.15s-6.74-2.64-7.54-10.74c-.03-.27-.05-.53-.05-.82-.03-.52-.03-1.07,0-1.65,0-.09,0-.18.01-.28,0,.09-.01.19-.01.28.12,0,.24,0,.36,0,1.22,0,2.75.2,3.32,1.01.79,1.12,1.85,1.56,2.89,1.56.71,0,1.41-.21,2.02-.56.33-.19.64-.4.93-.61.62-.43,1.05-.72,1.49-.72.27,0,.54.11.85.35,1.22.96,2.22,1.4,3.27,1.4.27,0,.54-.03.82-.09.61-.12,1.11-.44,1.59-.75.58-.37,1.13-.72,1.82-.72.06,0,.13,0,.19,0,.69.06,1.16.44,1.6.82.43.36.87.73,1.47.73.03,0,.06,0,.09,0,.6-.04.97-.52,1.36-1.02.48-.61.97-1.24,1.92-1.28.06,0,.13,0,.19,0,1.14,0,1.48.42,1.82.85.13.17.26.33.4.46.18.16.43.23.7.23.37,0,.79-.12,1.19-.29h0c0,.61-.06,1.18-.14,1.73,0,.03,0,.05,0,.08,0-.03,0-.05,0-.08-.46.21-.86.33-1.07.33-.06,0-.11-.01-.14-.03-.1-.1-.21-.25-.32-.41-.33-.49-.81-1.19-1.93-1.19-.24,0-.5.03-.8.1-.52.12-1.07.62-1.65,1.16-.53.49-1.18,1.09-1.58,1.12,0,0-.02,0-.03,0-.29,0-.55-.21-.94-.54-.49-.41-1.12-.93-2.06-1.01-.08,0-.17-.01-.25-.01-.93,0-1.63.45-2.25.85-.45.28-.87.55-1.33.64-.4.08-.79.12-1.15.12-1,0-1.86-.31-2.67-.95-.59-.46-1.07-.63-1.5-.63-.61,0-1.09.35-1.52.68-.13.1-.27.19-.41.29-.5.33-1.04.48-1.56.48-.76,0-1.46-.3-1.89-.77-1.3-1.4-3.01-1.72-4.3-1.72-.29,0-.55.02-.79.04,0,.28.02.55.06.82.21-.02.45-.04.71-.04,1.13,0,2.62.27,3.71,1.46.58.62,1.51,1.02,2.5,1.02.66,0,1.36-.18,1.99-.6.16-.11.31-.22.45-.32.41-.3.7-.52,1.05-.52.27,0,.58.13.99.46.95.74,2.01,1.12,3.19,1.12.42,0,.85-.04,1.3-.14.61-.12,1.11-.44,1.59-.75.58-.37,1.12-.72,1.81-.72.06,0,.13,0,.2,0,.69.06,1.16.44,1.6.82.43.36.87.73,1.46.73.03,0,.06,0,.09,0,.69-.05,1.4-.7,2.09-1.33.45-.42.97-.9,1.28-.97.24-.06.44-.08.61-.08.69,0,.97.39,1.27.84.13.2.27.4.44.56.18.17.42.23.7.23s.59-.07.9-.18h0c-1.46,6.85-7.3,9.14-7.3,9.14l1.82,3.15M373.62,217.14s2.12,2.22,6.9,2.22h.03c5.49,0,8.18-2.22,8.18-2.22-2.85.72-5.48.96-7.72.96-4.48,0-7.38-.96-7.38-.96M385.14,208.52c-.34,0-.62.28-.62.62s.28.62.62.62.62-.28.62-.62-.28-.62-.62-.62M376.37,208.52c-.34,0-.62.28-.62.62s.28.62.62.62.62-.28.62-.62-.28-.62-.62-.62M392.42,207.9c-.34,0-.62.28-.62.62s.28.62.62.62.62-.28.62-.62-.28-.62-.62-.62M369.66,207.9c-.34,0-.62.28-.62.62s.28.62.62.62.62-.28.62-.62-.28-.62-.62-.62"/>
      <polyline class="cls-20" points="390.56 220.33 371.78 220.33 371.8 220.29 390.54 220.29 390.56 220.33"/>
      <path class="cls-16" d="M372.6,205.69c-.78,0-1.59-.33-2.23-1.22-.8-1.13-2.66-1.35-3.98-1.35-.1,0-.21,0-.3,0,0,.03,0,.06,0,.09,0-.03,0-.06,0-.09.26-2.69,1.2-4.87,2.43-6.63h25.31c1.3,1.87,2.28,4.21,2.47,7.11.02.27.04.55.04.82,0,.26,0,.51,0,.76,0-.25,0-.51,0-.76-.53.25-.99.4-1.22.4-.06,0-.11-.01-.14-.03-.11-.1-.21-.23-.3-.36-.39-.5-.91-1.17-2.48-1.17-.06,0-.13,0-.19,0-1.33.05-2.03.94-2.53,1.58-.29.37-.55.7-.79.71-.01,0-.03,0-.04,0-.29,0-.54-.21-.93-.54-.49-.41-1.12-.93-2.06-1.01-.09,0-.18-.01-.26-.01-.91,0-1.62.45-2.24.85-.45.28-.87.55-1.33.64-.23.05-.44.07-.66.07-.86,0-1.69-.38-2.77-1.24-.49-.38-.93-.53-1.34-.53-.71,0-1.34.44-1.96.88-.28.19-.56.39-.87.57-.46.27-1.03.45-1.62.45M388.56,202.78c-.34,0-.62.28-.62.62s.28.62.62.62.62-.28.62-.62-.28-.62-.62-.62M381.17,202.78c-.34,0-.62.28-.62.62s.28.62.62.62.62-.28.62-.62-.28-.62-.62-.62M372.88,202.37c-.34,0-.62.28-.62.62s.28.62.62.62.62-.28.62-.62-.28-.62-.62-.62M394.88,201.53c-.34,0-.62.28-.62.62s.28.62.62.62.62-.28.62-.62-.28-.62-.62-.62M368.25,201.53c-.34,0-.62.28-.62.62s.28.62.62.62.62-.28.62-.62-.28-.62-.62-.62"/>
      <path class="cls-16" d="M372.6,206.5c-1.04,0-2.1-.44-2.89-1.56-.57-.81-2.1-1.01-3.32-1.01-.12,0-.25,0-.36,0,0-.09,0-.18.01-.28,0-.02,0-.04,0-.06,0-.13.02-.26.03-.39,0-.03,0-.06,0-.09.1,0,.2,0,.3,0,1.32,0,3.18.21,3.98,1.35.63.89,1.45,1.22,2.23,1.22.59,0,1.16-.18,1.62-.45.31-.18.6-.38.87-.57.61-.44,1.24-.88,1.96-.88.41,0,.86.15,1.34.53,1.08.85,1.91,1.24,2.77,1.24.22,0,.44-.02.66-.07.46-.09.88-.36,1.33-.64.62-.4,1.32-.85,2.24-.85.08,0,.17,0,.26.01.94.08,1.57.6,2.06,1.01.39.33.64.54.93.54.01,0,.03,0,.04,0,.24-.02.49-.34.79-.71.5-.65,1.2-1.54,2.53-1.58.06,0,.13,0,.19,0,1.57,0,2.09.67,2.48,1.17.1.13.19.25.3.36.02.02.07.03.14.03.23,0,.7-.14,1.22-.4,0,.26,0,.51,0,.76,0,.05,0,.09,0,.14t0,0c-.4.16-.82.29-1.19.29-.27,0-.51-.07-.7-.23-.15-.13-.28-.29-.4-.46-.34-.43-.67-.85-1.82-.85-.06,0-.12,0-.19,0-.95.03-1.45.66-1.92,1.28-.39.5-.76.98-1.36,1.02-.03,0-.06,0-.09,0-.6,0-1.04-.37-1.47-.73-.44-.38-.91-.77-1.6-.82-.06,0-.13,0-.19,0-.69,0-1.24.35-1.82.72-.48.31-.98.63-1.59.75-.28.06-.55.09-.82.09-1.05,0-2.05-.44-3.27-1.4-.31-.25-.58-.35-.85-.35-.43,0-.87.28-1.49.72-.29.21-.6.42-.93.61-.61.35-1.31.56-2.02.56"/>
      <path class="cls-16" d="M380.68,208.98c-1.18,0-2.23-.37-3.19-1.12-.41-.33-.72-.46-.99-.46-.34,0-.64.22-1.05.52-.15.11-.29.22-.45.32-.63.42-1.33.6-1.99.6-1,0-1.93-.41-2.5-1.02-1.1-1.18-2.58-1.46-3.71-1.46-.26,0-.5.01-.71.04-.03-.27-.05-.53-.06-.82.24-.02.5-.04.79-.04,1.29,0,2.99.32,4.3,1.72.43.47,1.13.77,1.89.77.52,0,1.06-.14,1.56-.48.15-.1.28-.19.41-.29.44-.33.92-.68,1.52-.68.42,0,.91.17,1.5.63.81.64,1.67.95,2.67.95.37,0,.75-.04,1.15-.12.46-.09.88-.36,1.33-.64.62-.4,1.32-.85,2.25-.85.08,0,.16,0,.25.01.94.08,1.57.6,2.06,1.01.4.34.65.54.94.54.01,0,.02,0,.03,0,.4-.02,1.06-.63,1.58-1.12.58-.54,1.13-1.04,1.65-1.16.3-.07.56-.1.8-.1,1.12,0,1.6.7,1.93,1.19.11.16.22.32.32.41.02.02.07.03.14.03.21,0,.61-.12,1.07-.33,0,.03,0,.05,0,.08-.04.3-.09.58-.14.87h0c-.31.11-.62.18-.9.18s-.51-.07-.7-.23c-.18-.15-.31-.36-.44-.56-.3-.45-.58-.84-1.27-.84-.18,0-.38.03-.61.08-.31.07-.83.55-1.28.97-.69.63-1.39,1.29-2.09,1.33-.03,0-.06,0-.09,0-.59,0-1.03-.37-1.46-.73-.44-.38-.91-.77-1.6-.82-.07,0-.13,0-.2,0-.69,0-1.23.35-1.81.72-.48.31-.98.63-1.59.75-.45.1-.88.14-1.3.14"/>
      <path class="cls-16" d="M372.88,203.62c-.34,0-.62-.28-.62-.62s.28-.62.62-.62.62.28.62.62-.28.62-.62.62"/>
      <path class="cls-16" d="M376.37,209.77c-.34,0-.62-.28-.62-.62s.28-.62.62-.62.62.28.62.62-.28.62-.62.62"/>
      <path class="cls-16" d="M385.14,209.77c-.34,0-.62-.28-.62-.62s.28-.62.62-.62.62.28.62.62-.28.62-.62.62"/>
      <path class="cls-16" d="M392.42,209.15c-.34,0-.62-.28-.62-.62s.28-.62.62-.62.62.28.62.62-.28.62-.62.62"/>
      <path class="cls-16" d="M369.66,209.15c-.34,0-.62-.28-.62-.62s.28-.62.62-.62.62.28.62.62-.28.62-.62.62"/>
      <path class="cls-16" d="M381.17,204.02c-.34,0-.62-.28-.62-.62s.28-.62.62-.62.62.28.62.62-.28.62-.62.62"/>
      <path class="cls-16" d="M388.56,204.02c-.34,0-.62-.28-.62-.62s.28-.62.62-.62.62.28.62.62-.28.62-.62.62"/>
      <path class="cls-16" d="M394.88,202.78c-.34,0-.62-.28-.62-.62s.28-.62.62-.62.62.28.62.62-.28.62-.62.62"/>
      <path class="cls-16" d="M368.25,202.78c-.34,0-.62-.28-.62-.62s.28-.62.62-.62.62.28.62.62-.28.62-.62.62"/>
      <path class="cls-16" d="M380.52,219.36c-4.78,0-6.9-2.22-6.9-2.22,0,0,2.91.96,7.38.96,2.24,0,4.87-.24,7.72-.96,0,0-2.68,2.21-8.18,2.22h-.03"/>
      <polyline class="cls-32" points="490.3 165.7 248.76 165.7 248.76 151.6 259.98 151.6 270.55 151.6 287.3 151.6 303.53 151.6 327.67 151.6 343.91 151.6 365.13 151.6 376.72 151.6 387.02 151.6 398.62 151.6 413.52 151.6 425.12 151.6 490.3 151.6 490.3 165.7"/>
      <path class="cls-32" d="M270.55,151.6h-10.56l1.03-1.79s-3.79-1.48-4.24-6.04c-.02-.15-.03-.3-.03-.46-.02-.3-.02-.6,0-.93,0-.05,0-.11,0-.16,0,.06,0,.11,0,.16.06,0,.13,0,.2,0,.69,0,1.55.11,1.86.57.45.63,1.04.88,1.63.88.4,0,.8-.12,1.14-.31.19-.11.36-.23.52-.35.35-.24.59-.4.84-.4.15,0,.3.06.48.2.69.54,1.25.79,1.84.79.15,0,.3-.02.46-.05.34-.07.62-.25.9-.42.32-.21.63-.4,1.02-.4.04,0,.07,0,.11,0,.39.03.65.25.9.46.24.2.49.41.83.41.01,0,.03,0,.05,0,.34-.02.55-.29.76-.57.27-.35.55-.7,1.08-.72.03,0,.07,0,.1,0,.64,0,.83.24,1.02.48.07.1.15.19.23.26.1.09.24.13.39.13.21,0,.45-.07.67-.16h0c0,.34-.04.66-.08.97,0,.02,0,.04,0,.05,0-.02,0-.04,0-.05-.26.12-.48.18-.6.18-.04,0-.06,0-.08-.02-.06-.05-.12-.14-.18-.23-.19-.28-.46-.67-1.09-.67-.13,0-.28.02-.45.06-.29.07-.6.35-.93.65-.3.27-.66.61-.89.63,0,0-.01,0-.02,0-.16,0-.31-.12-.53-.31-.28-.23-.63-.52-1.16-.57-.05,0-.09,0-.14,0-.52,0-.92.25-1.27.48-.25.16-.49.31-.74.36-.23.05-.44.07-.65.07-.56,0-1.05-.17-1.5-.53-.33-.26-.61-.36-.84-.36-.34,0-.61.2-.86.38-.07.05-.15.11-.23.16-.28.19-.59.27-.88.27-.42,0-.82-.17-1.06-.44-.73-.79-1.69-.97-2.42-.97-.16,0-.31,0-.44.02,0,.16.01.31.03.46.12-.01.26-.02.4-.02.64,0,1.47.15,2.09.82.32.35.85.57,1.41.57.37,0,.76-.1,1.12-.34.09-.06.17-.12.26-.18.23-.17.39-.29.59-.29.15,0,.32.08.56.26.54.42,1.13.63,1.79.63.24,0,.48-.02.73-.08.34-.07.62-.25.9-.42.32-.21.63-.41,1.02-.41.03,0,.07,0,.11,0,.39.03.65.25.9.46.24.2.49.41.82.41.02,0,.03,0,.05,0,.39-.03.79-.4,1.17-.75.25-.24.55-.5.72-.55.13-.03.25-.05.34-.05.39,0,.54.22.71.47.07.11.15.23.25.31.1.09.24.13.39.13s.33-.04.5-.1h0c-.82,3.86-4.1,5.14-4.1,5.14l1.03,1.79M261.02,149.81s1.19,1.25,3.88,1.25h.02c3.09,0,4.6-1.25,4.6-1.25-1.6.4-3.08.54-4.34.54-2.52,0-4.15-.54-4.15-.54M267.5,144.96c-.19,0-.35.16-.35.35s.16.35.35.35.35-.16.35-.35-.16-.35-.35-.35M262.56,144.96c-.19,0-.35.16-.35.35s.16.35.35.35.35-.16.35-.35-.16-.35-.35-.35M271.59,144.61c-.19,0-.35.16-.35.35s.16.35.35.35.35-.16.35-.35-.16-.35-.35-.35M258.79,144.61c-.19,0-.35.16-.35.35s.16.35.35.35.35-.16.35-.35-.16-.35-.35-.35"/>
      <path class="cls-32" d="M260.44,143.36c-.44,0-.9-.18-1.25-.68-.45-.64-1.5-.76-2.24-.76-.06,0-.12,0-.17,0,0,.01,0,.03,0,.04,0-.01,0-.03,0-.04.14-1.51.67-2.74,1.37-3.73h14.23c.73,1.05,1.28,2.37,1.39,4,0,.15.02.31.02.46,0,.14,0,.27,0,.41,0-.14,0-.27,0-.41-.3.14-.56.22-.69.22-.03,0-.06,0-.07-.02-.06-.06-.12-.13-.17-.2-.22-.28-.51-.66-1.39-.66-.03,0-.07,0-.11,0-.75.03-1.14.53-1.42.89-.16.21-.31.39-.44.4,0,0-.02,0-.03,0-.16,0-.3-.12-.52-.31-.28-.23-.63-.52-1.16-.57-.05,0-.1,0-.15,0-.52,0-.91.25-1.26.48-.25.16-.49.31-.74.36-.13.03-.25.04-.37.04-.49,0-.95-.22-1.56-.69-.28-.21-.52-.3-.76-.3-.4,0-.75.25-1.1.49-.16.1-.31.22-.49.32-.26.15-.58.25-.91.25M269.42,141.73c-.19,0-.35.16-.35.35s.16.35.35.35.35-.16.35-.35-.16-.35-.35-.35M265.27,141.73c-.19,0-.35.16-.35.35s.16.35.35.35.35-.16.35-.35-.16-.35-.35-.35M260.61,141.5c-.19,0-.35.16-.35.35s.16.35.35.35.35-.16.35-.35-.16-.35-.35-.35M272.97,141.03c-.19,0-.35.16-.35.35s.16.35.35.35.35-.16.35-.35-.16-.35-.35-.35M258,141.03c-.19,0-.35.16-.35.35s.16.35.35.35.35-.16.35-.35-.16-.35-.35-.35"/>
      <path class="cls-32" d="M260.44,143.82c-.59,0-1.18-.25-1.63-.88-.32-.45-1.18-.57-1.86-.57-.07,0-.14,0-.2,0,0-.05,0-.11,0-.16,0,0,0-.02,0-.02,0-.08,0-.15.02-.23,0-.01,0-.03,0-.04.05,0,.11,0,.17,0,.74,0,1.79.12,2.24.76.36.5.81.68,1.25.68.33,0,.65-.1.91-.25.18-.1.33-.21.49-.32.34-.24.7-.49,1.1-.49.23,0,.48.08.76.3.61.48,1.07.69,1.56.69.12,0,.25-.01.37-.04.26-.05.49-.2.74-.36.35-.22.74-.48,1.26-.48.05,0,.09,0,.15,0,.53.05.88.34,1.16.57.22.19.36.31.52.31,0,0,.02,0,.03,0,.13,0,.28-.19.44-.4.28-.36.67-.86,1.42-.89.04,0,.07,0,.11,0,.88,0,1.17.38,1.39.66.05.07.11.14.17.2.01.01.04.02.07.02.13,0,.39-.08.69-.22,0,.14,0,.28,0,.41,0,.03,0,.07,0,.1h0c-.23.09-.46.16-.67.16-.15,0-.29-.04-.39-.13-.08-.07-.15-.16-.23-.26-.19-.24-.38-.48-1.02-.48-.03,0-.07,0-.1,0-.54.02-.81.37-1.08.72-.22.28-.43.55-.76.57-.02,0-.03,0-.05,0-.34,0-.59-.21-.83-.41-.25-.21-.51-.43-.9-.46-.04,0-.07,0-.11,0-.38,0-.69.2-1.02.4-.27.17-.55.35-.9.42-.16.03-.31.05-.46.05-.59,0-1.16-.25-1.84-.79-.18-.14-.32-.2-.48-.2-.25,0-.49.16-.84.4-.16.12-.33.24-.52.35-.34.2-.73.31-1.14.31"/>
      <path class="cls-32" d="M264.99,145.21c-.66,0-1.25-.21-1.79-.63-.23-.19-.4-.26-.56-.26-.19,0-.36.12-.59.29-.08.06-.16.12-.26.18-.35.24-.74.34-1.12.34-.56,0-1.08-.23-1.41-.57-.62-.67-1.45-.82-2.09-.82-.15,0-.28,0-.4.02-.02-.15-.03-.3-.03-.46.13-.01.28-.02.44-.02.73,0,1.68.18,2.42.97.24.26.64.44,1.06.44.29,0,.6-.08.88-.27.08-.05.16-.11.23-.16.25-.19.52-.38.86-.38.24,0,.51.1.84.36.45.36.94.53,1.5.53.21,0,.42-.02.65-.07.26-.05.49-.2.74-.36.35-.23.75-.48,1.27-.48.04,0,.09,0,.14,0,.53.05.88.34,1.16.57.22.19.37.31.53.31,0,0,.01,0,.02,0,.23-.01.6-.35.89-.63.33-.3.64-.59.93-.65.17-.04.31-.06.45-.06.63,0,.9.39,1.09.67.06.09.12.18.18.23.01.01.04.02.08.02.12,0,.34-.06.6-.18,0,.02,0,.04,0,.05-.02.16-.05.32-.08.48h0c-.17.06-.35.1-.5.1s-.29-.04-.39-.13c-.1-.09-.18-.2-.25-.31-.17-.25-.32-.47-.71-.47-.1,0-.21.01-.34.05-.18.04-.47.31-.72.55-.39.35-.78.72-1.17.75-.02,0-.03,0-.05,0-.33,0-.58-.21-.82-.41-.25-.21-.51-.43-.9-.46-.04,0-.07,0-.11,0-.39,0-.69.2-1.02.41-.27.17-.55.35-.9.42-.25.05-.5.08-.73.08"/>
      <path class="cls-32" d="M260.61,142.2c-.19,0-.35-.16-.35-.35s.16-.35.35-.35.35.16.35.35-.16.35-.35.35"/>
      <path class="cls-32" d="M262.56,145.66c-.19,0-.35-.16-.35-.35s.16-.35.35-.35.35.16.35.35-.16.35-.35.35"/>
      <path class="cls-32" d="M267.5,145.66c-.19,0-.35-.16-.35-.35s.16-.35.35-.35.35.16.35.35-.16.35-.35.35"/>
      <path class="cls-32" d="M271.59,145.31c-.19,0-.35-.16-.35-.35s.16-.35.35-.35.35.16.35.35-.16.35-.35.35"/>
      <path class="cls-32" d="M258.79,145.31c-.19,0-.35-.16-.35-.35s.16-.35.35-.35.35.16.35.35-.16.35-.35.35"/>
      <path class="cls-32" d="M265.27,142.43c-.19,0-.35-.16-.35-.35s.16-.35.35-.35.35.16.35.35-.16.35-.35.35"/>
      <path class="cls-32" d="M269.42,142.43c-.19,0-.35-.16-.35-.35s.16-.35.35-.35.35.16.35.35-.16.35-.35.35"/>
      <path class="cls-32" d="M272.97,141.73c-.19,0-.35-.16-.35-.35s.16-.35.35-.35.35.16.35.35-.16.35-.35.35"/>
      <path class="cls-32" d="M258,141.73c-.19,0-.35-.16-.35-.35s.16-.35.35-.35.35.16.35.35-.16.35-.35.35"/>
      <path class="cls-32" d="M264.9,151.05c-2.69,0-3.88-1.25-3.88-1.25,0,0,1.64.54,4.15.54,1.26,0,2.74-.13,4.34-.54,0,0-1.51,1.24-4.6,1.25h-.02"/>
      <path class="cls-32" d="M343.91,151.6h-16.23l1.59-2.76s-5.82-2.28-6.51-9.28c-.03-.23-.04-.46-.05-.71-.03-.45-.03-.93,0-1.42,0-.08,0-.16,0-.24,0,.08,0,.16,0,.24.1,0,.2,0,.31,0,1.06,0,2.38.17,2.87.87.68.96,1.6,1.35,2.5,1.35.61,0,1.22-.18,1.75-.48.29-.17.55-.35.8-.53.54-.38.91-.62,1.29-.62.23,0,.46.09.73.31,1.06.83,1.92,1.21,2.83,1.21.23,0,.47-.03.71-.07.52-.11.96-.38,1.38-.65.5-.32.97-.62,1.57-.62.05,0,.11,0,.17,0,.59.05,1,.38,1.38.71.37.31.75.63,1.27.63.03,0,.05,0,.08,0,.52-.03.84-.45,1.17-.88.41-.53.84-1.08,1.66-1.1.06,0,.11,0,.16,0,.99,0,1.28.37,1.57.74.11.15.22.29.35.4.16.14.37.2.6.2.32,0,.69-.11,1.03-.25h0c0,.52-.05,1.02-.12,1.49,0,.01,0,.03,0,.04,0-.01,0-.03,0-.04-.39.18-.74.28-.92.28-.06,0-.1,0-.12-.03-.09-.08-.18-.22-.28-.36-.29-.43-.7-1.03-1.67-1.03-.21,0-.43.03-.69.09-.45.1-.92.54-1.42,1.01-.45.42-1.02.94-1.37.96,0,0-.02,0-.03,0-.25,0-.47-.18-.82-.47-.43-.36-.96-.8-1.78-.87-.07,0-.14,0-.21,0-.8,0-1.41.39-1.94.74-.38.24-.75.47-1.15.55-.35.07-.68.11-1,.11-.86,0-1.61-.27-2.31-.82-.51-.4-.93-.55-1.29-.55-.53,0-.94.3-1.32.59-.11.08-.23.17-.36.25-.43.29-.9.41-1.35.41-.65,0-1.26-.26-1.63-.67-1.13-1.21-2.6-1.49-3.71-1.49-.25,0-.48.01-.68.03,0,.24.02.47.05.71.18-.02.39-.03.62-.03.98,0,2.26.24,3.21,1.26.5.53,1.3.88,2.16.88.57,0,1.17-.16,1.72-.52.14-.09.27-.19.39-.28.35-.26.61-.45.9-.45.24,0,.5.12.86.4.83.64,1.73.96,2.75.96.36,0,.73-.03,1.13-.12.52-.1.96-.38,1.38-.65.5-.32.96-.62,1.56-.62.05,0,.11,0,.17,0,.59.05,1,.38,1.38.71.37.31.75.63,1.26.63.03,0,.05,0,.08,0,.6-.04,1.21-.61,1.8-1.15.39-.36.84-.78,1.11-.84.2-.05.38-.07.53-.07.6,0,.84.34,1.1.73.11.17.23.35.38.48.16.14.37.2.6.2s.51-.06.77-.15h0c-1.26,5.93-6.31,7.9-6.31,7.9l1.59,2.76M329.26,148.84s1.83,1.92,5.96,1.92h.03c4.75,0,7.06-1.92,7.06-1.92-2.46.62-4.74.83-6.67.83-3.87,0-6.38-.83-6.38-.83M339.22,141.39c-.3,0-.54.24-.54.54s.24.54.54.54.54-.24.54-.54-.24-.54-.54-.54M331.64,141.39c-.3,0-.54.24-.54.54s.24.54.54.54.54-.24.54-.54-.24-.54-.54-.54M345.51,140.86c-.3,0-.54.24-.54.54s.24.54.54.54.54-.24.54-.54-.24-.54-.54-.54M325.84,140.86c-.3,0-.54.24-.54.54s.24.54.54.54.54-.24.54-.54-.24-.54-.54-.54"/>
      <path class="cls-32" d="M328.38,138.94c-.67,0-1.38-.28-1.92-1.05-.69-.98-2.3-1.16-3.44-1.16-.09,0-.18,0-.26,0,0,.03,0,.05,0,.08,0-.03,0-.05,0-.08.22-2.32,1.04-4.21,2.1-5.73h21.88c1.12,1.61,1.97,3.64,2.13,6.15.01.24.03.47.03.71,0,.19,0,.39,0,.58,0-.19,0-.38,0-.58-.46.22-.86.34-1.06.34-.05,0-.09,0-.12-.03-.1-.09-.18-.2-.27-.31-.33-.43-.78-1.01-2.14-1.01-.05,0-.11,0-.16,0-1.15.04-1.76.81-2.19,1.37-.25.32-.48.6-.68.61-.01,0-.02,0-.04,0-.25,0-.47-.18-.8-.47-.43-.36-.96-.8-1.78-.87-.08,0-.15-.01-.22-.01-.79,0-1.4.39-1.93.74-.38.24-.75.48-1.15.55-.2.04-.38.06-.57.06-.75,0-1.47-.33-2.4-1.07-.42-.33-.8-.46-1.16-.46-.62,0-1.16.38-1.69.76-.24.16-.48.34-.75.49-.4.23-.89.39-1.4.39M342.18,136.43c-.3,0-.54.24-.54.54s.24.54.54.54.54-.24.54-.54-.24-.54-.54-.54M335.79,136.43c-.3,0-.54.24-.54.54s.24.54.54.54.54-.24.54-.54-.24-.54-.54-.54M328.63,136.08c-.3,0-.54.24-.54.54s.24.54.54.54.54-.24.54-.54-.24-.54-.54-.54M347.64,135.35c-.3,0-.54.24-.54.54s.24.54.54.54.54-.24.54-.54-.24-.54-.54-.54M324.63,135.35c-.3,0-.54.24-.54.54s.24.54.54.54.54-.24.54-.54-.24-.54-.54-.54"/>
      <path class="cls-32" d="M328.38,139.64c-.9,0-1.82-.38-2.5-1.35-.49-.7-1.81-.87-2.87-.87-.11,0-.21,0-.31,0,0-.08,0-.16,0-.24,0-.02,0-.03,0-.05,0-.11.01-.23.03-.34,0-.03,0-.05,0-.08.08,0,.17,0,.26,0,1.14,0,2.75.19,3.44,1.16.55.77,1.25,1.05,1.92,1.05.51,0,1-.16,1.4-.39.27-.15.52-.33.75-.49.53-.38,1.07-.76,1.69-.76.36,0,.74.13,1.16.46.93.74,1.65,1.07,2.4,1.07.19,0,.38-.02.57-.06.4-.08.76-.31,1.15-.55.54-.35,1.14-.74,1.93-.74.07,0,.15,0,.22.01.82.07,1.36.52,1.78.87.34.29.56.47.8.47.01,0,.03,0,.04,0,.2-.01.43-.29.68-.61.43-.56,1.03-1.33,2.19-1.37.05,0,.11,0,.16,0,1.36,0,1.81.58,2.14,1.01.08.11.17.22.27.31.02.02.06.03.12.03.2,0,.6-.12,1.06-.34,0,.2,0,.39,0,.58,0,.07,0,.14,0,.21,0,0,0,0,0,0-.34.14-.71.25-1.03.25-.23,0-.44-.06-.6-.2-.12-.11-.24-.25-.35-.4-.29-.37-.59-.74-1.57-.74-.05,0-.1,0-.16,0-.82.03-1.25.57-1.66,1.1-.33.43-.65.85-1.17.88-.03,0-.05,0-.08,0-.52,0-.9-.32-1.27-.63-.38-.33-.79-.66-1.38-.71-.06,0-.11,0-.17,0-.59,0-1.07.3-1.57.62-.42.27-.85.54-1.38.65-.24.05-.48.07-.71.07-.91,0-1.77-.38-2.83-1.21-.27-.21-.5-.31-.73-.31-.37,0-.75.24-1.29.62-.25.18-.52.36-.8.53-.53.3-1.13.48-1.75.48"/>
      <path class="cls-32" d="M335.37,141.79c-1.02,0-1.93-.32-2.75-.96-.36-.29-.62-.4-.86-.4-.3,0-.55.19-.9.45-.13.09-.25.19-.39.28-.55.36-1.15.52-1.72.52-.86,0-1.66-.35-2.16-.88-.95-1.02-2.23-1.26-3.21-1.26-.23,0-.43.01-.62.03-.03-.23-.04-.46-.05-.71.2-.02.43-.03.68-.03,1.12,0,2.59.28,3.71,1.49.37.41.98.67,1.63.67.45,0,.92-.12,1.35-.41.13-.08.25-.17.36-.25.38-.28.79-.59,1.32-.59.37,0,.79.15,1.29.55.7.55,1.45.82,2.31.82.32,0,.65-.04,1-.11.4-.08.76-.31,1.15-.55.54-.35,1.15-.74,1.94-.74.07,0,.14,0,.21,0,.82.07,1.36.52,1.78.87.34.29.56.47.82.47,0,0,.02,0,.03,0,.35-.02.92-.54,1.37-.96.5-.47.98-.9,1.42-1.01.26-.06.49-.09.69-.09.97,0,1.38.6,1.67,1.03.1.14.19.27.28.36.02.02.06.03.12.03.18,0,.53-.1.92-.28,0,.01,0,.03,0,.04-.03.27-.08.53-.13.78h0c-.27.09-.53.15-.77.15s-.44-.06-.6-.2c-.15-.13-.27-.31-.38-.48-.26-.39-.5-.73-1.1-.73-.15,0-.32.02-.53.07-.27.06-.72.48-1.11.84-.59.54-1.2,1.11-1.8,1.15-.02,0-.05,0-.08,0-.51,0-.89-.32-1.26-.63-.38-.33-.79-.66-1.38-.71-.06,0-.11,0-.17,0-.6,0-1.07.3-1.56.62-.42.27-.85.54-1.38.65-.39.08-.76.12-1.13.12"/>
      <path class="cls-32" d="M328.63,137.16c-.3,0-.54-.24-.54-.54s.24-.54.54-.54.54.24.54.54-.24.54-.54.54"/>
      <path class="cls-32" d="M331.64,142.47c-.3,0-.54-.24-.54-.54s.24-.54.54-.54.54.24.54.54-.24.54-.54.54"/>
      <path class="cls-32" d="M339.22,142.47c-.3,0-.54-.24-.54-.54s.24-.54.54-.54.54.24.54.54-.24.54-.54.54"/>
      <path class="cls-32" d="M345.51,141.93c-.3,0-.54-.24-.54-.54s.24-.54.54-.54.54.24.54.54-.24.54-.54.54"/>
      <path class="cls-32" d="M325.84,141.93c-.3,0-.54-.24-.54-.54s.24-.54.54-.54.54.24.54.54-.24.54-.54.54"/>
      <path class="cls-32" d="M335.79,137.51c-.3,0-.54-.24-.54-.54s.24-.54.54-.54.54.24.54.54-.24.54-.54.54"/>
      <path class="cls-32" d="M342.18,137.51c-.3,0-.54-.24-.54-.54s.24-.54.54-.54.54.24.54.54-.24.54-.54.54"/>
      <path class="cls-32" d="M347.64,136.43c-.3,0-.54-.24-.54-.54s.24-.54.54-.54.54.24.54.54-.24.54-.54.54"/>
      <path class="cls-32" d="M324.63,136.43c-.3,0-.54-.24-.54-.54s.24-.54.54-.54.54.24.54.54-.24.54-.54.54"/>
      <path class="cls-32" d="M335.22,150.76c-4.13,0-5.96-1.92-5.96-1.92,0,0,2.52.83,6.38.83,1.94,0,4.21-.21,6.67-.83,0,0-2.32,1.91-7.06,1.92h-.03"/>
      <path class="cls-32" d="M303.53,151.6h-16.23l1.59-2.49s-5.82-2.06-6.51-8.39c-.03-.21-.04-.42-.05-.64-.03-.41-.03-.84,0-1.29,0-.07,0-.15.01-.22,0,.08-.01.15-.01.22.1,0,.21,0,.31,0,1.06,0,2.38.16,2.87.79.68.87,1.6,1.22,2.5,1.22.61,0,1.22-.16,1.75-.44.29-.15.55-.32.8-.48.54-.34.91-.56,1.29-.56.23,0,.46.08.73.28,1.06.75,1.92,1.09,2.83,1.09.23,0,.47-.02.71-.07.52-.09.96-.35,1.38-.59.5-.29.97-.56,1.57-.56.05,0,.11,0,.17,0,.59.04,1,.35,1.38.64.37.28.75.57,1.27.57.03,0,.05,0,.08,0,.52-.03.84-.4,1.18-.8.41-.48.84-.97,1.66-1,.06,0,.11,0,.16,0,.98,0,1.28.33,1.57.67.11.13.22.26.35.36.16.13.37.18.6.18.32,0,.68-.1,1.03-.22h0c0,.47-.05.92-.13,1.35,0,.02,0,.04,0,.06,0-.02,0-.04,0-.06-.39.16-.74.25-.92.25-.05,0-.1,0-.12-.03-.09-.08-.18-.2-.28-.32-.29-.39-.7-.93-1.67-.93-.2,0-.43.02-.69.08-.45.09-.92.49-1.42.91-.45.38-1.02.85-1.37.87,0,0-.02,0-.03,0-.25,0-.47-.16-.82-.42-.43-.32-.96-.73-1.78-.79-.07,0-.14,0-.21,0-.8,0-1.41.35-1.95.66-.38.22-.75.43-1.15.5-.35.06-.68.1-1,.1-.86,0-1.61-.24-2.31-.74-.51-.36-.93-.49-1.29-.49-.53,0-.94.27-1.32.53-.11.08-.23.15-.36.23-.43.26-.9.37-1.35.37-.65,0-1.26-.24-1.63-.6-1.13-1.09-2.6-1.34-3.71-1.34-.25,0-.47.01-.68.03,0,.22.02.43.05.64.18-.02.39-.03.62-.03.98,0,2.26.21,3.21,1.14.5.48,1.3.8,2.16.8.58,0,1.17-.14,1.72-.47.14-.08.27-.17.39-.25.35-.24.61-.41.91-.41.23,0,.5.1.86.36.82.58,1.73.87,2.75.87.36,0,.73-.03,1.12-.11.52-.09.96-.35,1.38-.59.5-.29.96-.56,1.56-.56.05,0,.11,0,.17,0,.59.04,1,.35,1.38.64.37.28.75.57,1.26.57.02,0,.05,0,.08,0,.6-.04,1.21-.55,1.8-1.04.39-.33.84-.7,1.11-.76.2-.04.38-.06.53-.06.6,0,.84.31,1.1.66.11.16.23.32.38.44.16.13.37.18.6.18s.51-.06.77-.14h0c-1.25,5.35-6.31,7.14-6.31,7.14l1.59,2.49M288.89,149.11s1.83,1.74,5.96,1.74h.03c4.75,0,7.07-1.74,7.07-1.74-2.47.56-4.74.75-6.67.75-3.87,0-6.38-.75-6.38-.75M298.85,142.38c-.3,0-.54.22-.54.49s.24.49.54.49.54-.22.54-.49-.24-.49-.54-.49M291.27,142.38c-.3,0-.54.22-.54.49s.24.49.54.49.54-.22.54-.49-.24-.49-.54-.49M305.13,141.9c-.3,0-.54.22-.54.49s.24.49.54.49.54-.22.54-.49-.24-.49-.54-.49M285.46,141.9c-.3,0-.54.22-.54.49s.24.49.54.49.54-.22.54-.49-.24-.49-.54-.49"/>
      <path class="cls-32" d="M288,140.16c-.67,0-1.38-.25-1.92-.95-.69-.88-2.3-1.05-3.44-1.05-.09,0-.18,0-.26,0,0,.02,0,.04,0,.06,0-.02,0-.04,0-.06.22-2.1,1.03-3.8,2.1-5.18h21.88c1.12,1.46,1.97,3.28,2.13,5.55.01.21.03.43.03.64,0,.17,0,.34,0,.51,0-.17,0-.34,0-.51-.46.2-.86.31-1.06.31-.05,0-.09,0-.12-.03-.1-.08-.18-.18-.27-.28-.33-.39-.78-.91-2.14-.91-.05,0-.11,0-.16,0-1.15.04-1.75.73-2.19,1.24-.25.29-.48.54-.68.55-.01,0-.03,0-.04,0-.25,0-.47-.17-.8-.42-.43-.32-.96-.73-1.78-.79-.08,0-.15,0-.22,0-.79,0-1.4.35-1.93.67-.38.22-.75.43-1.15.5-.2.04-.38.06-.57.06-.75,0-1.47-.3-2.4-.96-.42-.3-.8-.41-1.16-.41-.62,0-1.16.34-1.69.69-.24.14-.48.3-.75.44-.4.21-.89.35-1.4.35M301.8,137.89c-.3,0-.54.22-.54.49s.24.49.54.49.54-.22.54-.49-.24-.49-.54-.49M295.41,137.89c-.3,0-.54.22-.54.49s.24.49.54.49.54-.22.54-.49-.24-.49-.54-.49M288.25,137.58c-.3,0-.54.22-.54.49s.24.49.54.49.54-.22.54-.49-.24-.49-.54-.49M307.26,136.92c-.3,0-.54.22-.54.49s.24.49.54.49.54-.22.54-.49-.24-.49-.54-.49M284.25,136.92c-.3,0-.54.22-.54.49s.24.49.54.49.54-.22.54-.49-.24-.49-.54-.49"/>
      <path class="cls-32" d="M288.01,140.8c-.9,0-1.82-.35-2.5-1.22-.49-.63-1.81-.79-2.87-.79-.11,0-.21,0-.31,0,0-.07,0-.15.01-.22,0-.01,0-.02,0-.04,0-.11.02-.21.03-.32,0-.02,0-.04,0-.06.08,0,.17,0,.26,0,1.14,0,2.75.17,3.44,1.05.55.7,1.25.95,1.92.95.51,0,1-.14,1.4-.35.27-.14.52-.3.75-.44.53-.34,1.07-.69,1.69-.69.36,0,.74.12,1.16.41.93.67,1.65.96,2.4.96.19,0,.38-.02.57-.06.4-.07.76-.28,1.15-.5.54-.31,1.14-.67,1.93-.67.07,0,.15,0,.22,0,.82.06,1.36.47,1.78.79.34.26.56.42.8.42.01,0,.03,0,.04,0,.2-.01.42-.26.68-.55.43-.51,1.03-1.2,2.19-1.24.05,0,.11,0,.16,0,1.36,0,1.81.52,2.14.91.08.1.17.2.27.28.02.02.06.03.12.03.2,0,.6-.11,1.06-.31,0,.17,0,.34,0,.51,0,.07,0,.13,0,.2h0c-.35.13-.71.22-1.03.22-.24,0-.44-.05-.6-.18-.13-.1-.24-.23-.35-.36-.29-.34-.59-.67-1.57-.67-.05,0-.11,0-.16,0-.82.03-1.25.52-1.66,1-.34.39-.66.76-1.18.8-.02,0-.05,0-.08,0-.52,0-.9-.29-1.27-.57-.38-.3-.79-.6-1.38-.64-.06,0-.11,0-.17,0-.59,0-1.07.27-1.57.56-.42.24-.85.49-1.38.59-.24.04-.48.07-.71.07-.91,0-1.78-.34-2.83-1.09-.27-.19-.5-.28-.73-.28-.38,0-.75.22-1.29.56-.25.16-.52.33-.8.48-.53.27-1.13.44-1.75.44"/>
      <path class="cls-32" d="M294.99,142.74c-1.02,0-1.93-.29-2.75-.87-.36-.26-.62-.36-.86-.36-.3,0-.55.17-.91.41-.13.08-.25.17-.39.25-.55.33-1.15.47-1.72.47-.86,0-1.66-.32-2.16-.8-.95-.92-2.23-1.14-3.21-1.14-.23,0-.43.01-.62.03-.03-.21-.04-.42-.05-.64.21-.02.43-.03.68-.03,1.12,0,2.59.25,3.71,1.34.37.37.98.6,1.63.6.45,0,.92-.11,1.35-.37.13-.08.25-.15.36-.23.38-.26.79-.53,1.32-.53.37,0,.79.13,1.29.49.7.5,1.45.74,2.31.74.32,0,.65-.03,1-.1.4-.07.76-.28,1.15-.5.54-.31,1.15-.66,1.95-.66.07,0,.14,0,.21,0,.82.06,1.36.47,1.78.79.34.26.56.42.82.42,0,0,.02,0,.03,0,.35-.02.91-.49,1.37-.87.5-.42.98-.81,1.42-.91.26-.05.49-.08.69-.08.97,0,1.38.55,1.67.93.1.13.19.25.28.32.02.02.06.03.12.03.18,0,.53-.09.92-.25,0,.02,0,.04,0,.06-.03.23-.08.46-.12.67h0c-.27.08-.53.14-.77.14s-.44-.05-.6-.18c-.15-.12-.27-.28-.38-.44-.26-.35-.5-.66-1.1-.66-.15,0-.32.02-.53.06-.27.06-.72.43-1.11.76-.59.49-1.2,1-1.8,1.04-.03,0-.05,0-.08,0-.51,0-.89-.29-1.26-.57-.38-.3-.79-.6-1.38-.64-.06,0-.11,0-.17,0-.6,0-1.06.27-1.56.56-.42.24-.85.49-1.38.59-.39.08-.76.11-1.12.11"/>
      <path class="cls-32" d="M288.25,138.55c-.3,0-.54-.22-.54-.49s.24-.49.54-.49.54.22.54.49-.24.49-.54.49"/>
      <path class="cls-32" d="M291.27,143.35c-.3,0-.54-.22-.54-.49s.24-.49.54-.49.54.22.54.49-.24.49-.54.49"/>
      <path class="cls-32" d="M298.85,143.35c-.3,0-.54-.22-.54-.49s.24-.49.54-.49.54.22.54.49-.24.49-.54.49"/>
      <path class="cls-32" d="M305.13,142.87c-.3,0-.54-.22-.54-.49s.24-.49.54-.49.54.22.54.49-.24.49-.54.49"/>
      <path class="cls-32" d="M285.46,142.87c-.3,0-.54-.22-.54-.49s.24-.49.54-.49.54.22.54.49-.24.49-.54.49"/>
      <path class="cls-32" d="M295.41,138.87c-.3,0-.54-.22-.54-.49s.24-.49.54-.49.54.22.54.49-.24.49-.54.49"/>
      <path class="cls-32" d="M301.8,138.87c-.3,0-.54-.22-.54-.49s.24-.49.54-.49.54.22.54.49-.24.49-.54.49"/>
      <path class="cls-32" d="M307.26,137.89c-.3,0-.54-.22-.54-.49s.24-.49.54-.49.54.22.54.49-.24.49-.54.49"/>
      <path class="cls-32" d="M284.25,137.89c-.3,0-.54-.22-.54-.49s.24-.49.54-.49.54.22.54.49-.24.49-.54.49"/>
      <path class="cls-32" d="M294.85,150.84c-4.13,0-5.96-1.74-5.96-1.74,0,0,2.52.75,6.38.75,1.93,0,4.21-.19,6.67-.75,0,0-2.32,1.73-7.07,1.74h-.03"/>
      <path class="cls-16" d="M314.76,220.29h-21.29l2.76-2.85s-9.74-6.11-8.58-16.42c1.16-10.31,8.81-11.68,11.13-14.33,2.32-2.65-2.78-10.38-2.78-10.38h16.23s-5.1,7.74-2.78,10.38c2.32,2.65,9.97,4.02,11.13,14.33,1.16,10.31-8.58,16.42-8.58,16.42l2.76,2.85"/>
      <path class="cls-32" d="M425.12,151.6h-11.6l2.01-2.86s-.39-2.34-.91-5.66c-.38-2.46-.85-5.46-1.29-8.45-.48-3.31-.93-6.61-1.22-9.16-.17-1.46-.27-2.67-.3-3.49-.15-5.25,5.57-7.11,5.57-9.12,0-.24-.03-.54-.07-.89-.34-2.58-1.78-7.62-1.78-7.62h7.58s-1.41,4.94-1.77,7.53c-.06.39-.08.71-.08.97,0,2.01,5.72,3.87,5.57,9.12-.03,1.09-.21,2.89-.47,5.05-.28,2.28-.65,4.96-1.04,7.65-.44,2.97-.9,5.94-1.28,8.38-.53,3.33-.92,5.68-.92,5.68l2.01,2.86"/>
      <path class="cls-32" d="M398.62,151.6h-11.6l2.01-1.99s-.39-1.63-.91-3.95c-.38-1.71-.84-3.81-1.29-5.89-.48-2.31-.93-4.61-1.22-6.39-.17-1.02-.27-1.86-.3-2.43-.15-3.66,5.57-4.96,5.57-6.36,0-.17-.03-.38-.07-.62-.34-1.8-1.78-5.31-1.78-5.31h7.58s-1.41,3.44-1.77,5.25c-.06.27-.08.5-.08.68,0,1.4,5.73,2.7,5.57,6.36-.03.76-.21,2.01-.47,3.52-.28,1.59-.65,3.46-1.04,5.34-.44,2.07-.9,4.14-1.28,5.84-.53,2.32-.92,3.96-.92,3.96l2.01,1.99"/>
      <path class="cls-32" d="M376.72,151.6h-11.6l2.01-2.38s-.39-1.95-.91-4.71c-.38-2.05-.85-4.55-1.29-7.03-.48-2.76-.93-5.5-1.21-7.62-.17-1.21-.27-2.22-.3-2.9-.15-4.37,5.57-5.91,5.57-7.59,0-.2-.03-.45-.07-.74-.34-2.15-1.78-6.34-1.78-6.34h7.58s-1.41,4.11-1.77,6.27c-.06.32-.08.59-.08.81,0,1.68,5.72,3.22,5.57,7.59-.03.91-.21,2.4-.47,4.2-.28,1.9-.65,4.13-1.04,6.37-.44,2.47-.9,4.94-1.28,6.97-.53,2.77-.92,4.72-.92,4.72l2.01,2.38"/>
      <path class="cls-14" d="M352.85,398.82c-1.2-12.13-9.1-13.74-11.5-16.85-2.39-3.11,2.87-12.21,2.87-12.21h-16.76s5.27,9.1,2.87,12.21c-2.4,3.11-10.3,4.73-11.5,16.85-1.2,12.13,8.86,19.31,8.86,19.31l-2.85,3.35h21.99l-2.85-3.35s10.06-7.19,8.86-19.31h0Z"/>
      <polygon class="cls-8" points="593 278.65 591.56 278.88 588.82 261.84 590.27 261.61 593 278.65 593 278.65"/>
      <polygon class="cls-25" points="589.06 258.73 588.82 261.84 590.27 261.61 589.06 258.73 589.06 258.73"/>
      <polygon class="cls-8" points="602.78 280.29 601.34 280.02 604.49 263.05 605.93 263.32 602.78 280.29 602.78 280.29"/>
      <polygon class="cls-10" points="605.76 260.2 604.49 263.05 605.93 263.32 605.76 260.2 605.76 260.2"/>
      <polygon class="cls-8" points="600.95 275.31 599.51 275.04 602.66 258.07 604.11 258.34 600.95 275.31 600.95 275.31"/>
      <polygon class="cls-10" points="603.94 255.22 602.66 258.07 604.11 258.34 603.94 255.22 603.94 255.22"/>
      <polygon class="cls-31" points="605.77 285.43 594.24 285.43 594.24 268.8 605.77 268.8 605.77 285.43 605.77 285.43"/>
      <polygon class="cls-28" points="600.01 285.43 588.48 285.43 588.48 268.8 600.01 268.8 600.01 285.43 600.01 285.43"/>
      <path class="cls-18" d="M370.55,296.03c8.87-1.9,9.02-9.15,9.02-9.15-10.44,3.3-9.02,9.15-9.02,9.15h0Z"/>
      <path class="cls-18" d="M369.94,294.37s-5.53,2.24-9.46-3.4c0,0,6.38-1.08,9.46,3.4h0Z"/>
      <path class="cls-18" d="M382.08,403.73l1.15,1.32c.17.2.5.07.5-.19-.06-37.34-4.81-70.51-8.79-90.08-4.34-21.36-8.75-33.99-8.8-34.11.04.13,4.02,12.96,8.35,34.26,3.99,19.61,8.55,45.23,7.39,88.31,0,.18.07.36.19.5h0Z"/>
      <path class="cls-28" d="M366.22,275.57c1.42,1.14,6.83,5.98,1.58,9.72,0,0-4.03,1.27-5.36-1.83-1.02-2.37-1.29-5.01-1.37-6.13-.02-.29.2-.54.49-.56.31-.03.72-.1,1.14-.26.5-.19.75-.95,1.43-1.11.42-.1.85-.19,1.34-.15.28.02.54.14.76.32h0Z"/>
      <path class="cls-18" d="M369.23,283.94s-1.6,1.29-1.01,3.34l.02.76s-.43-1.9-2.4-2.49c0,0,1.78.2,3.39-1.61h0Z"/>
      <path class="cls-18" d="M370.55,296.03c8.87-1.9,9.02-9.15,9.02-9.15,0,0-7.02,3.86-9.02,9.15h0Z"/>
      <path class="cls-18" d="M379.07,291.06s5.58,2.13,9.4-3.59c0,0-6.4-.95-9.4,3.59h0Z"/>
      <path class="cls-18" d="M369.12,400.63l-1.12,1.34c-.17.21-.5.09-.51-.18-.68-37.33,3.39-70.59,6.98-90.24,3.92-21.44,8.07-34.16,8.11-34.28-.04.13-3.76,13.03-7.66,34.42-3.59,19.68-7.64,45.39-5.62,88.44,0,.18-.06.36-.18.51h0Z"/>
      <path class="cls-28" d="M382.41,272.18c-1.39,1.17-6.71,6.12-1.38,9.75,0,0,4.05,1.2,5.32-1.93.97-2.39,1.19-5.03,1.24-6.15.01-.29-.21-.53-.5-.55-.31-.02-.73-.08-1.14-.24-.5-.18-.77-.93-1.45-1.08-.42-.09-.86-.18-1.35-.12-.28.03-.54.15-.75.33h0Z"/>
      <path class="cls-18" d="M379.57,280.61s1.63,1.25,1.08,3.32v.76s.39-1.91,2.34-2.53c0,0-1.77.23-3.42-1.54h0Z"/>
      <path class="cls-18" d="M376.7,284.52s-5.89.98-8.5-5.38c0,0,6.46.34,8.5,5.38h0Z"/>
      <path class="cls-18" d="M364.7,393.89l.83,1.54c.13.23.48.18.53-.07,8.08-36.46,10.69-69.86,11.07-89.83.42-21.79-1.13-35.08-1.15-35.21.01.13,1.1,13.52.68,35.25-.38,20-1.52,46-12.04,87.8-.04.18-.01.37.07.53h0Z"/>
      <path class="cls-28" d="M377.17,265.36c1.13,1.42,5.36,7.33-.58,9.83,0,0-4.21.37-4.83-2.95-.48-2.53-.17-5.17,0-6.28.04-.29.31-.48.6-.44.31.04.73.06,1.17,0,.53-.08.94-.76,1.63-.77.43,0,.87,0,1.34.15.27.08.49.26.67.48h0Z"/>
      <path class="cls-18" d="M378.28,274.18s-1.84.91-1.72,3.04l-.15.75s0-1.95-1.79-2.95c0,0,1.69.58,3.66-.83h0Z"/>
      <path class="cls-18" d="M371.84,277.96s0-4.66-4.02-6.13c0,0-.89,3.89,4.02,6.13h0Z"/>
      <path class="cls-22" d="M381.28,270.47s-.12-3.56,3.17-4.58c0,0,.79,3.31-3.17,4.58h0Z"/>
      <path class="cls-18" d="M370.48,291.87c-.12.1-1.72-3.46,1.53-6.33,0,0,1.36,3.82-1.53,6.33h0Z"/>
      <path class="cls-18" d="M368.21,291.6c.09.02.02-1.78-1.66-2.03,0,0-.29,1.5,1.66,2.03h0Z"/>
      <path class="cls-18" d="M385.04,285.55s1.43-2.95,5.99-2.43c0,0-.68,3.16-5.99,2.43h0Z"/>
      <path class="cls-28" d="M392.81,349.42c-.07,2.67-.52,7.04-1.15,12.32-.22,1.79-.46,3.68-.72,5.64-.55,4.14-1.17,8.59-1.82,13.05-1.07,7.25-2.2,14.5-3.13,20.46-1.29,8.13-2.24,13.86-2.24,13.86l4.92,6.98h-28.32l4.89-6.98s-.95-5.71-2.22-13.82c-.93-6-2.06-13.34-3.15-20.64-.64-4.41-1.26-8.81-1.8-12.91-.45-3.42-.85-6.62-1.17-9.44-.41-3.56-.66-6.53-.72-8.52-.06-2.06.25-3.9.82-5.57,2.94-8.72,12.78-12.57,12.78-16.7,0-.59-.07-1.31-.18-2.17-.84-6.3-4.35-18.6-4.35-18.6h18.51s-3.44,12.05-4.33,18.39c-.13.95-.2,1.74-.2,2.38,0,4.13,9.85,7.98,12.78,16.7.56,1.67.87,3.51.81,5.57h0Z"/>
      <path class="cls-17" d="M392.81,349.42c-.07,2.67-.52,7.04-1.15,12.32-.22,1.79-.46,3.68-.72,5.64-.18.08-8.97,4.05-32.86,0h0c-.45-3.42-.85-6.62-1.17-9.44-.41-3.56-.66-6.53-.72-8.52-.06-2.06.25-3.9.82-5.57,0,0,17.65,4.41,35,0,.56,1.67.87,3.51.81,5.57h0Z"/>
      <path class="cls-28" d="M379.89,365.4c-1.44,0-2.32-.56-3.18-1.11-1.19-.76-2.31-1.47-4.88-.56-3.95,1.41-5.17.67-7.39-.65-.41-.24-.86-.52-1.37-.8-3.04-1.67-5.35.52-5.44.61l-.22-.22s2.56-2.45,5.8-.66c.52.28.97.56,1.38.8,2.13,1.28,3.31,1.98,7.13.63,2.72-.97,3.95-.18,5.15.59.88.56,1.78,1.14,3.32,1.05,1.7-.09,2.73-.95,3.64-1.7,1.04-.86,1.93-1.6,3.43-.85,2.64,1.32,4.11,2.02,4.13,2.03l-.13.28s-1.49-.71-4.13-2.03c-1.32-.66-2.1,0-3.1.82-.94.78-2.01,1.67-3.81,1.77-.11,0-.22,0-.32,0h0Z"/>
      <path class="cls-28" d="M379.89,363.54c-1.44,0-2.32-.56-3.18-1.11-1.19-.76-2.31-1.47-4.88-.55-3.95,1.4-5.17.67-7.39-.65-.4-.24-.86-.52-1.37-.79-3.05-1.67-5.42.59-5.44.61l-.22-.22s2.56-2.44,5.8-.66c.52.28.97.56,1.38.8,2.13,1.28,3.31,1.98,7.12.63,2.72-.97,3.96-.18,5.15.58.88.56,1.79,1.14,3.32,1.05,1.7-.09,2.73-.95,3.64-1.7,1.04-.86,1.93-1.6,3.43-.85,2.64,1.32,4.11,2.02,4.13,2.03l-.13.28s-1.49-.71-4.13-2.03c-1.32-.66-2.1,0-3.1.82-.94.78-2.01,1.67-3.81,1.77-.11,0-.22,0-.32,0h0Z"/>
      <path class="cls-28" d="M366.92,359.61c0-.63.51-1.13,1.13-1.13s1.13.51,1.13,1.13-.51,1.13-1.13,1.13-1.13-.51-1.13-1.13h0Z"/>
      <path class="cls-28" d="M378.87,359.61c0-.63.51-1.13,1.13-1.13s1.13.51,1.13,1.13-.51,1.13-1.13,1.13-1.13-.51-1.13-1.13h0Z"/>
      <path class="cls-28" d="M373.29,365.78c0-.62.51-1.13,1.13-1.13s1.13.51,1.13,1.13-.51,1.13-1.13,1.13-1.13-.51-1.13-1.13h0Z"/>
      <path class="cls-28" d="M384.86,365.78c0-.62.51-1.13,1.13-1.13s1.13.51,1.13,1.13-.51,1.13-1.13,1.13-1.13-.51-1.13-1.13h0Z"/>
      <path class="cls-28" d="M360.03,364.64c0-.62.51-1.13,1.13-1.13s1.14.51,1.14,1.13-.51,1.13-1.14,1.13-1.13-.51-1.13-1.13h0Z"/>
      <path class="cls-28" d="M388.49,359.61c0-.63.51-1.13,1.13-1.13s1.13.51,1.13,1.13-.51,1.13-1.13,1.13-1.13-.51-1.13-1.13h0Z"/>
      <path class="cls-28" d="M380.17,354.04c-1.51,0-2.43-.56-3.33-1.11-1.25-.76-2.43-1.47-5.14-.56-4.15,1.4-5.43.67-7.75-.65-.43-.24-.91-.52-1.44-.8-3.21-1.68-5.7.59-5.73.61l-.22-.23s2.68-2.44,6.09-.66c.54.28,1.02.56,1.45.8,2.24,1.28,3.48,1.99,7.49.63,2.85-.97,4.15-.18,5.41.58.92.56,1.87,1.14,3.49,1.05,1.79-.09,2.87-.95,3.82-1.7,1.09-.86,2.03-1.6,3.6-.86,2.77,1.32,4.32,2.02,4.33,2.03l-.13.29s-1.56-.71-4.34-2.03c-1.39-.66-2.22,0-3.26.82-.99.78-2.11,1.67-4,1.77-.12,0-.23,0-.34,0h0Z"/>
      <path class="cls-28" d="M380.17,352.17c-1.51,0-2.43-.56-3.33-1.11-1.25-.76-2.43-1.47-5.14-.56-4.15,1.4-5.43.67-7.75-.65-.43-.24-.91-.52-1.44-.8-3.21-1.68-5.7.59-5.73.61l-.22-.23s2.68-2.44,6.09-.66c.54.28,1.02.56,1.45.8,2.25,1.28,3.48,1.99,7.49.63,2.85-.96,4.15-.18,5.41.59.92.56,1.87,1.14,3.49,1.05,1.79-.09,2.87-.95,3.82-1.7,1.09-.86,2.03-1.6,3.6-.85,2.77,1.32,4.32,2.02,4.33,2.03l-.13.29s-1.56-.71-4.34-2.03c-1.39-.66-2.22,0-3.26.82-.99.78-2.11,1.67-4,1.77-.12,0-.23,0-.34,0h0Z"/>
      <path class="cls-28" d="M366.54,348.25c0-.62.53-1.13,1.19-1.13s1.19.51,1.19,1.13-.53,1.13-1.19,1.13-1.19-.51-1.19-1.13h0Z"/>
      <path class="cls-28" d="M379.09,348.25c0-.62.53-1.13,1.19-1.13s1.19.51,1.19,1.13-.53,1.13-1.19,1.13-1.19-.51-1.19-1.13h0Z"/>
      <path class="cls-28" d="M373.23,354.41c0-.63.53-1.13,1.19-1.13s1.19.51,1.19,1.13-.53,1.13-1.19,1.13-1.19-.51-1.19-1.13h0Z"/>
      <path class="cls-28" d="M385.38,354.41c0-.63.53-1.13,1.19-1.13s1.19.51,1.19,1.13-.53,1.13-1.19,1.13-1.19-.51-1.19-1.13h0Z"/>
      <path class="cls-28" d="M359.3,353.28c0-.63.53-1.13,1.19-1.13s1.19.51,1.19,1.13-.53,1.13-1.19,1.13-1.19-.51-1.19-1.13h0Z"/>
      <path class="cls-28" d="M389.24,348.25c0-.62.53-1.13,1.19-1.13s1.19.51,1.19,1.13-.53,1.13-1.19,1.13-1.19-.51-1.19-1.13h0Z"/>
      <path class="cls-26" d="M388.67,421.73h-28.32l4.89-6.98s9.04,2.04,18.51,0l4.92,6.98h0Z"/>
    </g>
  </g>
</svg>