<?xml version="1.0" encoding="UTF-8"?>
<svg id="Layer_2" data-name="Layer 2" xmlns="http://www.w3.org/2000/svg" xmlns:xlink="http://www.w3.org/1999/xlink" viewBox="0 0 393.6 369.58">
  <defs>
    <style>
      .cls-1 {
        fill: #a7aff9;
      }

      .cls-1, .cls-2, .cls-3, .cls-4, .cls-5, .cls-6, .cls-7, .cls-8, .cls-9, .cls-10, .cls-11, .cls-12, .cls-13, .cls-14, .cls-15, .cls-16 {
        stroke-width: 0px;
      }

      .cls-2 {
        fill: #d36666;
      }

      .cls-3 {
        fill: #fbd15b;
      }

      .cls-4 {
        fill: none;
      }

      .cls-5 {
        fill: #56548c;
      }

      .cls-6 {
        fill: #ffc8af;
      }

      .cls-7 {
        fill: #ec827d;
      }

      .cls-8 {
        fill: #4356dd;
      }

      .cls-9 {
        fill: #6b77db;
      }

      .cls-10 {
        fill: #878cf0;
      }

      .cls-11 {
        fill: #606bf1;
      }

      .cls-12 {
        fill: #f28b8b;
      }

      .cls-17 {
        clip-path: url(#clippath);
      }

      .cls-13 {
        fill: #eeeef7;
      }

      .cls-14 {
        fill: #112b46;
      }

      .cls-15 {
        fill: #f9fbfc;
      }

      .cls-16 {
        fill: #b1b2f3;
      }
    </style>
    <clipPath id="clippath">
      <path class="cls-4" d="M336.3,299.98H96.5S-7.7,283.58,4.8,212.88c12.5-70.7,72.3-69.8,71.7-120.7-.5-50.9,83.8-119.2,156.1-81.1s59.5,90.7,90.7,111.1c29.4,19.3,105,91.1,42.6,164.1-7.4,8.8-18.2,13.7-29.6,13.7Z"/>
    </clipPath>
  </defs>
  <g id="Layer_1-2" data-name="Layer 1">
    <g id="OBJECTS">
      <g>
        <path class="cls-13" d="M352.6,299.98H96.5S-7.7,283.58,4.8,212.88c12.5-70.7,72.3-69.8,71.7-120.7-.5-50.9,83.8-119.2,156.1-81.1s59.5,90.7,90.7,111.1c31.2,20.6,114.6,100.4,29.3,177.8Z"/>
        <g class="cls-17">
          <g>
            <path class="cls-15" d="M408.8,115.38v-2.2h-34.6v-30.2h-2.2v30.2h-71.6v-29h35.6v-2.2h-.2v-29h.1v-2.2h-35.6v-29h35.6v-2.2H58.7v2.2h17.8v29h-17.8v2.2h53.3v29h-53.3v2.2h17.8v29H-14.1v2.2h52.3v29H-14.1v2.2h90.6v29H-14.1v2.2h52.3v29H-14.1v2.2h90.6v29H-14.1v2.2h52.3v29H-14.1v2.2h90.6v29H-14.1v2.2h422.9v-1.8h-34.6v-29h34.6v-2.2h-73v-29h73v-2.2h-34.6v-29h34.6v-2.2h-73v-29h73v-2.2h-34.6v-29h34.6v-2.2h-73v-29h73v-.4ZM298.1,113.18h-71.6v-29h71.6v29ZM226.5,175.68v-29h71.6v29h-71.6ZM226.5,238.28v-29h71.6v29h-71.6ZM185.9,240.48v29h-71.6v-29h71.6ZM185.9,177.98v29h-71.6v-29h71.6ZM185.9,115.38v29h-71.6v-29h71.6ZM224.2,84.08v29h-71.6v-29h71.6ZM152.6,50.58v-29h71.6v29h-71.6ZM259.7,52.88v29h-71.6v-29s71.6,0,71.6,0ZM224.2,146.68v29h-71.6v-29h71.6ZM224.2,209.18v29h-71.6v-29h71.6ZM224.2,271.78v29h-71.6v-29h71.6ZM226.5,271.78h71.6v29h-71.6v-29ZM188.1,269.58v-29h71.6v29h-71.6ZM188.1,206.98v-29h71.6v29h-71.6ZM188.1,144.48v-29h71.6v29h-71.6ZM333.6,81.88h-71.6v-29h71.6v29ZM298.1,50.58h-71.6v-29h71.6v29ZM78.7,21.58h71.6v29h-71.6v-29ZM114.2,52.88h71.6v29h-71.6v-29ZM78.7,84.08h71.6v29h-71.6v-29ZM40.4,115.38h71.6v29H40.4v-29ZM78.7,146.68h71.6v29h-71.6v-29ZM40.4,177.98h71.6v29H40.4v-29ZM78.7,209.18h71.6v29h-71.6v-29ZM40.4,240.48h71.6v29H40.4v-29ZM78.7,271.78h71.6v29h-71.6v-29ZM372,300.78h-71.6v-29h71.6v29ZM333.6,269.58h-71.6v-29h71.6v29ZM372,238.28h-71.6v-29h71.6v29ZM333.6,206.98h-71.6v-29h71.6v29ZM372,175.68h-71.6v-29h71.6v29ZM333.6,144.48h-71.6v-29h71.6v29Z"/>
            <rect class="cls-15" x="372" y="20.48" width="2.2" height="31.3"/>
            <rect class="cls-15" x="38.1" y="51.78" width="2.2" height="31.3"/>
          </g>
        </g>
        <path class="cls-7" d="M207.1,69.58h-64V4.58h64v65ZM151.9,60.68h46.2V13.48h-46.2v47.2Z"/>
        <rect class="cls-15" x="151.9" y="13.48" width="46.2" height="47.2"/>
        <rect class="cls-6" x="158.6" y="20.28" width="32.9" height="33.7"/>
        <path class="cls-11" d="M127.9,155.58H18.3V5.68h109.6v149.9ZM27.2,146.68h91.8V14.68H27.2v132Z"/>
        <rect class="cls-15" x="27.2" y="14.58" width="91.8" height="132"/>
        <rect class="cls-16" x="41.1" y="28.78" width="63.9" height="103.8"/>
        <path class="cls-15" d="M112.6,139.68h-42.5l21.2-36.8,21.3,36.8ZM75.3,136.68h32.1l-16-27.8-16.1,27.8Z"/>
        <path class="cls-13" d="M393.6,322.88c0,25.8-88.1,46.6-196.8,46.6S0,348.68,0,322.88s88.1-31.3,196.8-31.3,196.8,5.6,196.8,31.3Z"/>
        <ellipse class="cls-13" cx="292.5" cy="361.28" rx="98.3" ry="8.3"/>
        <path class="cls-16" d="M348.8,80.78c-.5,9.2-3.6,18.2-8.6,25.9-3.9,5.9-11.3,16.3-19.5,13.1-8.1-3.2-5.3-11.4-2.3-17.3,5.3-10.5,13.5-19.4,23.6-25.5,1.7-1,3.9-2,5.6-.8,1.2.9,1.3,2.9,1.2,4.6Z"/>
        <path class="cls-16" d="M280.2,109.98c4.9,3.5,15.8,2.3,16.9-4.7.4-2.5-.3-5-1.2-7.3-3.6-9-11.6-19.8-21-23.2-1.7-.6-3.8-1-5.3,0-2.3,1.5-2.2,4.9-1.7,7.6,1.1,5.3,2.5,10.6,4.5,15.7,1.6,4.4,3.8,9.1,7.8,11.9Z"/>
        <path class="cls-16" d="M320.5,57.98c-1.1,9.9-2.9,19.7-5.4,29.3-.9,3.4-1.4,9.1-3.7,11.9-2.2,2.7-6.1,2.4-8-.5-2-3.2-1.2-8.2-1.1-11.8.1-4.6.5-9.2,1.5-13.7,1.6-7.3,4.9-14.3,10.2-19.5,1.1-1.1,2.5-2.1,4-1.8,2.4.4,2.8,3.7,2.5,6.1Z"/>
        <path class="cls-10" d="M307.4,160.98c-.7-30.1,9.8-58.5,28.8-77.9l.8.8c-18.9,19.2-29.3,47.3-28.5,77.1h-1.1Z"/>
        <path class="cls-10" d="M305.8,143.48c-1.9-27.2.6-53.7,7.4-78.7l1.1.3c-6.8,24.9-9.3,51.2-7.3,78.3l-1.2.1Z"/>
        <path class="cls-10" d="M303.5,142.38c-4.2-20.3-12.2-40.7-23-59.1l1-.6c10.9,18.4,18.9,39,23.1,59.4l-1.1.3Z"/>
        <g>
          <path class="cls-3" d="M248.4,216.58c-.4-.7-1.2-1.2-2-1.2h-17.6c-.8,0-1.6.5-2,1.2-3.3,6.1-4.2,15.5.7,20.7h20c5.1-5.2,4.2-14.7.9-20.7Z"/>
          <path class="cls-11" d="M281.5,215.78c-3.6-7.1-3.1-11.8-2.7-13.5.3-1.7,2.7-4.7-.2-4.7h-12.6c-3,0-.6,3.1-.2,4.7.3,1.7.9,6.4-2.7,13.5s-2.4,17,1.2,21.6h16.2c3.4-4.7,4.6-14.5,1-21.6Z"/>
          <path class="cls-11" d="M228.3,283.98h-6.8s-4.1-6.3-3.5-14.9c.7-8.6,2-13.2,2.4-15.3.4-2.1-1.7-4-.7-6.2h0c.3-.6.8-.9,1.3-.9h7.8c.5,0,1,.3,1.3,1h0c1,2.2-1.1,4.1-.7,6.2s1.7,6.7,2.4,15.3c.7,8.5-3.5,14.8-3.5,14.8Z"/>
          <g>
            <g>
              <rect class="cls-5" x="196.9" y="186.98" width="152.4" height="6.9"/>
              <rect class="cls-5" x="334.28" y="193.32" width="6.9" height="106.7"/>
              <rect class="cls-5" x="202.53" y="193.37" width="6.9" height="106.7"/>
            </g>
            <rect class="cls-5" x="206" y="283.98" width="129.9" height="5.6"/>
            <rect class="cls-5" x="206" y="237.28" width="129.9" height="5.6"/>
          </g>
          <g>
            <g>
              <path class="cls-11" d="M79.1,312.68l-1.3,18.6c-1.9.8-3.8.8-5.6,0l.6-18.6c2,1.2,4.1,1.2,6.3,0Z"/>
              <path class="cls-9" d="M85.3,225.48l-6.3,87.1h0c-2.2,1.2-4.3,1.2-6.3,0l2.8-87.1h9.8Z"/>
            </g>
            <g>
              <path class="cls-11" d="M125.3,312.68l1.3,18.6c1.9.8,3.8.8,5.6,0l-.6-18.6c-2,1.2-4.2,1.2-6.3,0Z"/>
              <path class="cls-10" d="M119,225.48l6.3,87.1h0c2.2,1.2,4.3,1.2,6.3,0l-2.8-87.1h-9.8Z"/>
            </g>
            <g>
              <path class="cls-11" d="M70.1,321.78l-1.3,18.6c-1.9.8-3.8.8-5.6,0l.6-18.6c2,1.2,4.1,1.2,6.3,0Z"/>
              <path class="cls-10" d="M76.4,234.68l-6.3,87.1h0c-2.2,1.2-4.3,1.2-6.3,0l2.8-87.1h9.8Z"/>
            </g>
            <g>
              <path class="cls-11" d="M110.7,321.78l1.3,18.6c1.9.8,3.8.8,5.6,0l-.6-18.6c-2.1,1.2-4.2,1.2-6.3,0Z"/>
              <path class="cls-10" d="M104.4,234.68l6.3,87.1h0c2.2,1.2,4.3,1.2,6.3,0l-2.8-87.1h-9.8Z"/>
            </g>
            <path class="cls-6" d="M196.5,291.58s11.8,8.7,23,13.7,17,3.7,18,5.3c1,1.6-3.7,6.8-16.4,6.5-12.8-.3-22.8-1.5-30.1,0s-5.4-15.6-4.8-16.5c.7-.9,10.3-9,10.3-9Z"/>
            <path class="cls-8" d="M101.8,180.08s59.6,39,70.1,46.9c10.5,7.9,26.5,62.2,27.4,67.3.9,5.1-6.6,6.4-13.1,5.5-9-14-30.3-57.5-30.3-57.5,0,0-49.6-17.8-62.7-30.8-13-13.1,8.6-31.4,8.6-31.4Z"/>
            <g>
              <g>
                <g>
                  <g>
                    <path class="cls-10" d="M279.8,329.58c-6.1-5.7-26.4-9.9-50.5-9.9s-44.4,4.2-50.5,9.9h-1.9v3.6c0,7.5,23.4,13.5,52.3,13.5s52.3-6,52.3-13.5v-3.6h-1.7Z"/>
                    <ellipse class="cls-1" cx="229.3" cy="329.58" rx="52.3" ry="13.5"/>
                  </g>
                  <path class="cls-10" d="M229.8,330.98h-1c-1.1,0-2.1-.9-2.1-2.1v-114.9h5.2v114.9c0,1.2-.9,2.1-2.1,2.1Z"/>
                </g>
                <g>
                  <path class="cls-10" d="M279.8,204.78c-6.1-5.7-26.4-9.9-50.5-9.9s-44.4,4.2-50.5,9.9h-1.9v3.6c0,7.5,23.4,13.5,52.3,13.5s52.3-6,52.3-13.5v-3.6h-1.7Z"/>
                  <ellipse class="cls-1" cx="229.3" cy="204.78" rx="52.3" ry="13.5"/>
                  <path class="cls-2" d="M192.2,189.68v12c0,5.3,16.6,9.6,37.1,9.6s37.1-4.3,37.1-9.6v-12h-74.2Z"/>
                  <ellipse class="cls-7" cx="229.3" cy="189.68" rx="37.1" ry="9.6"/>
                </g>
              </g>
              <g>
                <path class="cls-10" d="M258.5,126.78c-2.7-2.8-2.5-5.2,0-7,1.8-1.3,2.6-3.3,2.2-5.4-.3-1.7-1.3-3.2-2.7-4.1-4.6-3-14.8-4.3-28.6-4.3s-24,1.2-28.6,4.3c-1.4.9-2.5,2.4-2.7,4.1-.3,2.1.4,4,2.2,5.4,2.5,1.9,2.7,4.2,0,7-4,4.2-20.6,41.9,6.9,61.1,11.5,4.1,22.3,3.7,22.3,3.7,0,0,10.8.5,22.3-3.7,27.3-19.2,10.7-56.9,6.7-61.1Z"/>
                <path class="cls-5" d="M255,112.98c0,2-8.5,3.7-19.9,4.1-1.3,0-2.6.1-3.9.1h-2.8c-1.4,0-2.8,0-4.2-.1-11.7-.4-20.5-2.1-20.5-4.1,0-.2.1-.4.2-.6,1.4-1.8,9.4-3.2,19.8-3.6,1.2,0,2.4-.1,3.7-.1h4.8c5.1.1,9.8.4,13.6.9,4.8.7,8.2,1.6,9,2.7.1.3.2.5.2.7Z"/>
              </g>
            </g>
            <path class="cls-6" d="M208.7,103.98c1.2-1.5,8.2-3.1,16.6-2.7,8.4.4,17.7,4.6,16.5,6.1-1.9,2.3-8.5-2.1-17.7-.8-4.9.7.2,2.9,4.5,4.5,1.2.4.2,2-2.3,2-4.2,0-7.3-1.7-12.6-3.6-1.9-.7-5-5.5-5-5.5Z"/>
            <g>
              <path class="cls-10" d="M130.6,225.88h-15.9c-5.7-1.1-12.6-1.8-20-1.8s-14.3.7-20,1.8h-15.9s-.5,4,0,8.8c0,5.9,16.1,10.6,36,10.6s36-4.7,36-10.6c.3-4.8-.2-8.8-.2-8.8Z"/>
              <ellipse class="cls-1" cx="94.7" cy="225.88" rx="36" ry="10.6"/>
            </g>
            <path class="cls-6" d="M162.2,329.68c.5,3,9.7,19.7,13.6,25.4,3.9,5.7,11.5,2.7,10.4,8.6-.4,1.9-14.3,5.1-22.4,3.2-8.1-1.9-10.8-13-14.6-16.2s-10.4-6.2-6.5-16.5c3.8-10.2,19.5-4.5,19.5-4.5Z"/>
            <path class="cls-11" d="M76.4,182.58c.3,3.4-10.9,27.3,6.3,42.2,17.2,14.9,58.1,31.1,58.1,31.1,0,0,1.4,72,2.8,77.5s15.6,6.1,18.4,0c2.8-6.1,7.7-77.4,2.4-90.4s-56.8-49.8-60.5-53.1c-3.7-3.2-27.5-7.3-27.5-7.3Z"/>
            <path class="cls-7" d="M180.2,92.08c-1.6-.3-3-.5-4.4-.7-11.4-1.4-46-4-51.5,2.3s7,17.8,14.5,17.5,24.4-4,39.8-4h2.3c1.3-5,1.1-10.1-.7-15.1Z"/>
            <path class="cls-6" d="M218.2,102.48c-2.2-1.4-23.9-5.7-38-8.3,1.8,5,1.3,6.7,0,11.8,10.9.3,31.7,2.1,33.1,1.9,3.4-.5,7.3-3.8,4.9-5.4Z"/>
            <path class="cls-7" d="M120.4,94.18c-16.1,5.2-25.2,32.4-30.7,46.7-4.3,11.2-7.9,22.6-10.8,34.3-.8,3.1-7.9,11.1-8.1,14.2-.2,2.9,2.8,5.8,5.1,7.2,2.8,1.8,6,2.6,9.2,3.3,5.9,1.2,11.8,2,17.8,2.4,4.5.3,9.4.2,13.2-2.2,5.4-3.3,3.9-9.6,6.7-14.4,4.1-6.8,13.2-17.6,17.3-24.4,4.9-8.1,9.8-16.3,12.6-25.4,2.8-9.1,3.2-19.3-.8-27.9-5.7-12.4-19.2-16-31.5-13.8Z"/>
            <path class="cls-6" d="M168.3,67.88c1.2,9.3.8,30.9-7.8,36.6-8.6,5.8-28.9-5.9-30.1-26.1-1.7-30.5,35.6-29.3,37.9-10.5Z"/>
            <path class="cls-6" d="M130.7,80.98c1,9-6.2,16.4-6.2,16.4,2.9,11.4,18.1,14.6,18.1,14.6,3.6-8.5,9.8-12.5,9.8-12.5l-21.7-18.5Z"/>
            <path class="cls-6" d="M198.9,152.98c-.4-4.4,5.4-8.4,8.5-11s5.2-6.3,5.8-5.4c1.2,2.1-.2,5.4-3,8.3,8.9-3.9,12.1-6.5,14.7-9,1.6-1.5,1.4,1.7,1.4,2.5,0,1.8-.2,3.5-.7,5.2-1,3.2-3.1,6.1-6,7.8,2.6-1.5,4.3-2.8,6.9-4.3.4.5.5,1.2.2,1.8-.2.6-.7,1-1.1,1.4-4,3.6-7.9,6-13,7.8-3,1-7.4,1.5-10.4-.2-2.2-1.1-3.2-2.6-3.3-4.9Z"/>
            <path class="cls-6" d="M201.4,150.28c-23.6,4.8-43.6-1-43.9-1.2.6,6.6,1.7,9.3,0,15.5,18.7,1.3,36.9-2.5,48.4-5.6,1.1-5.1-4.5-8.7-4.5-8.7Z"/>
            <path class="cls-14" d="M147.2,68.48c10.9-.6,20.8-.9,23.9-6.5,3.1-5.6,0-10.1,0-10.1l-2.2,2.2s1-5.7-1.8-9.1c-2.7,4.4-32.5-.5-34.8,10.9-4.9-.6-9.7,6.4-9.2,15.3s5.3,26.2,13.2,26.2c2,0,.1-15,.1-15,6.8.7,8.3-3.9,10.8-13.9Z"/>
            <path class="cls-6" d="M140.4,76.78c-1.1-5.8-5.6-2.6-6.5-.7-.9,1.8-.6,10.1,4,9.3,4.6-.9,2.5-8.6,2.5-8.6Z"/>
            <path class="cls-12" d="M159.7,148.38c-16.6-5.8-27-36.2-32.6-42.2-5.8-6.1-25-2.6-22.8,14.8,2.3,17.5,33.5,45.2,52.7,47.1.6.1,1.2.1,1.9.1,1.7-6.1,1.4-13.2.8-19.8Z"/>
            <path class="cls-12" d="M157.5,166.08c2.8-4,1-15.4.9-16.3-.1-.9.3-3.9,7.1-2.5,6.7,1.4,4.2,19,1.3,21.7-2.8,2.7-11.9.8-9.3-2.9Z"/>
            <path class="cls-7" d="M177.4,91.58c.2,5.9-1.2,14.8-.9,15.6s2.3,1.7,5.2,1.5c3-.2,3.8-10.1,3.3-13.6-.4-3.5-4.3-6.6-7.6-3.5Z"/>
          </g>
          <path class="cls-3" d="M316.6,186.98h-18.3s-11.1-10.1-9.4-23.9c1.8-13.8,5.4-21.2,6.5-24.6,1.1-3.4-4.7-6.4-1.9-10h0c.8-1,2.1-1.5,3.4-1.5h21c1.3,0,2.6.5,3.4,1.5h0c2.8,3.5-3,6.5-1.9,10,1.1,3.4,4.7,10.8,6.5,24.6,1.9,13.7-9.3,23.9-9.3,23.9Z"/>
          <path class="cls-3" d="M245.8,283.98h-6.8s-4.1-5-3.5-11.7c.7-6.7,2-10.4,2.4-12,.4-1.7-1.7-3.1-.7-4.9h0c.3-.5.8-.7,1.3-.7h7.8c.5,0,1,.3,1.3.7h0c1,1.7-1.1,3.2-.7,4.9.4,1.7,1.7,5.3,2.4,12,.7,6.7-3.5,11.7-3.5,11.7Z"/>
          <path class="cls-7" d="M328.8,226.38c-.4-9.1-12-18.8-10.6-19.3,2.2-.7,1.8-4.5,0-4.5-3.1,0,1.8,0-9.4,0s-6.3,0-9.4,0c-1.8,0-2.2,3.8,0,4.5,1.4.5-10.2,10.2-10.6,19.3-.4,9.1,5.7,10.9,5.7,10.9h28.6s6.1-1.8,5.7-10.9Z"/>
          <path class="cls-10" d="M321.9,263.28c-.4-.7-1.2-1.2-2-1.2h-17.6c-.8,0-1.6.5-2,1.2-3.3,6.1-4.2,15.5.7,20.7h20c5.1-5.2,4.3-14.7.9-20.7Z"/>
          <path class="cls-16" d="M291.2,265.38c-.6-7.6-10.5-12.4-9.1-13.3s.9-4.3-1.9-4.3h-14.4c-2.8,0-3.3,3.4-1.9,4.3s-8.5,5.7-9.1,13.3c-.7,8.1,4.6,18.6,8.6,18.6h19c4.3,0,9.5-10.5,8.8-18.6Z"/>
        </g>
        <path class="cls-15" d="M76.9,61.08h-42.4l21.2-36.8,21.2,36.8ZM39.7,58.08h32.1l-16-27.8-16.1,27.8Z"/>
        <path class="cls-15" d="M68.8,99.78l-10.8-18.7h21.6l-10.8,18.7ZM63.2,84.08l5.6,9.7,5.6-9.7h-11.2Z"/>
        <path class="cls-15" d="M185.9,35.98c-5.3,0-9.5-4.3-9.5-9.5s4.3-9.5,9.5-9.5,9.5,4.3,9.5,9.5-4.3,9.5-9.5,9.5ZM185.9,19.88c-3.6,0-6.5,2.9-6.5,6.5s2.9,6.5,6.5,6.5,6.5-2.9,6.5-6.5-2.9-6.5-6.5-6.5Z"/>
        <path class="cls-15" d="M167.2,38.58c-2.3,0-4.1-1.8-4.1-4.1s1.8-4.1,4.1-4.1,4.1,1.8,4.1,4.1-1.9,4.1-4.1,4.1ZM167.2,33.38c-.6,0-1.1.5-1.1,1.1s.5,1.1,1.1,1.1,1.1-.5,1.1-1.1-.5-1.1-1.1-1.1Z"/>
        <path class="cls-15" d="M180.8,53.58c-3.2,0-5.8-2.6-5.8-5.8s2.6-5.8,5.8-5.8,5.8,2.6,5.8,5.8c.1,3.2-2.5,5.8-5.8,5.8ZM180.8,44.88c-1.6,0-2.8,1.3-2.8,2.8,0,1.6,1.3,2.8,2.8,2.8,1.6,0,2.8-1.3,2.8-2.8.1-1.5-1.2-2.8-2.8-2.8Z"/>
        <ellipse class="cls-13" cx="63.8" cy="346.68" rx="54.1" ry="10.7"/>
      </g>
    </g>
  </g>
</svg>