<svg xmlns="http://www.w3.org/2000/svg" version="1.1" xmlns:xlink="http://www.w3.org/1999/xlink" xmlns:svgjs="http://svgjs.dev/svgjs" width="1440" height="600" preserveAspectRatio="none" viewBox="0 0 1440 600"><g mask="url(&quot;#SvgjsMask1133&quot;)" fill="none"><rect width="1440" height="600" x="0" y="0" fill="rgba(239, 238, 237, 1)"></rect><path d="M855.92 440.42 a22.5 22.5 0 1 0 45 0 a22.5 22.5 0 1 0 -45 0z" stroke="rgba(248, 232, 219, 1)"></path><path d="M1364.21 545.69a45.29 45.29 0 1 0-8.13-90.21z" fill="rgba(213, 224, 213, 1)"></path><path d="M1325.5 505.31 a17.72 17.72 0 1 0 35.44 0 a17.72 17.72 0 1 0 -35.44 0z" fill="rgba(213, 224, 213, 1)"></path><path d="M1247.22 286.82L1291.61 286.82L1291.61 331.21L1247.22 331.21z" fill="rgba(230, 221, 211, 1)"></path><path d="M894.77 244.46 a15.07 15.07 0 1 0 30.14 0 a15.07 15.07 0 1 0 -30.14 0z" fill="rgba(248, 232, 219, 1)"></path><path d="M1363.91 86.03L1366.28 86.03L1366.28 115.35L1363.91 115.35z" fill="rgba(248, 232, 219, 1)"></path><path d="M773.8 186.54 a6.33 6.33 0 1 0 12.66 0 a6.33 6.33 0 1 0 -12.66 0z" fill="rgba(213, 224, 213, 1)"></path><path d="M83.52 252.45 a21.8 21.8 0 1 0 43.6 0 a21.8 21.8 0 1 0 -43.6 0z" stroke="rgba(248, 232, 219, 1)"></path><path d="M114.13 189.42L120.6 189.42L120.6 195.89L114.13 195.89z" stroke="rgba(248, 232, 219, 1)"></path><path d="M883.79 256.17a53.58 53.58 0 1 0-2.96-107.12z" fill="rgba(213, 224, 213, 1)"></path><path d="M536.47 55L578.35 55L578.35 85.6L536.47 85.6z" fill="rgba(230, 221, 211, 1)"></path><path d="M1117.78 259.39a14.34 14.34 0 1 0-12.34-25.88z" stroke="rgba(230, 221, 211, 1)"></path><path d="M285.32 38.44L311.49 38.44L311.49 65.66L285.32 65.66z" fill="rgba(248, 232, 219, 1)"></path><path d="M320.98 7.91 a56.49 56.49 0 1 0 112.98 0 a56.49 56.49 0 1 0 -112.98 0z" stroke="rgba(213, 224, 213, 1)"></path><path d="M114.63 162.71L144.53 162.71L144.53 192.61L114.63 192.61z" fill="rgba(230, 221, 211, 1)"></path><path d="M938.64 232.38a0.8 0.8 0 1 0-1.56-0.36z" stroke="rgba(230, 221, 211, 1)"></path><path d="M177.45 162.04L182.58 162.04L182.58 167.17L177.45 167.17z" fill="rgba(230, 221, 211, 1)"></path><path d="M650.33 493.84a52.82 52.82 0 1 0 50.51 92.78z" stroke="rgba(213, 224, 213, 1)"></path><path d="M620.69 301.98L642.41 301.98L642.41 326.44L620.69 326.44z" fill="rgba(248, 232, 219, 1)"></path><path d="M1425.38 445.47L1476.63 445.47L1476.63 496.72L1425.38 496.72z" fill="rgba(248, 232, 219, 1)"></path><path d="M126.18 231.92a51.97 51.97 0 1 0-103.66 7.54z" fill="rgba(248, 232, 219, 1)"></path><path d="M720.34 410.47L773.43 410.47L773.43 431.64L720.34 431.64z" stroke="rgba(213, 224, 213, 1)"></path><path d="M1183.51 541.34L1212.31 541.34L1212.31 582.81L1183.51 582.81z" stroke="rgba(248, 232, 219, 1)"></path><path d="M325.64 212.82a23.45 23.45 0 1 0-40.13 24.28z" stroke="rgba(248, 232, 219, 1)"></path><path d="M583.04 587.97L594.34 587.97L594.34 599.27L583.04 599.27z" stroke="rgba(213, 224, 213, 1)"></path><path d="M73.8 73.19L99.9 73.19L99.9 105.76L73.8 105.76z" stroke="rgba(230, 221, 211, 1)"></path><path d="M179.37 460.41L194.28 460.41L194.28 475.32L179.37 475.32z" fill="rgba(248, 232, 219, 1)"></path><path d="M447.37 598.28L470.43 598.28L470.43 621.34L447.37 621.34z" stroke="rgba(230, 221, 211, 1)"></path><path d="M1187.05 222.14L1212.84 222.14L1212.84 247.93L1187.05 247.93z" stroke="rgba(230, 221, 211, 1)"></path><path d="M564.97 275.46a0.86 0.86 0 1 0 0.44-1.66z" stroke="rgba(230, 221, 211, 1)"></path></g><defs><mask id="SvgjsMask1133"><rect width="1440" height="600" fill="#ffffff"></rect></mask></defs></svg>